<svg width="370" height="552" viewBox="0 0 370 552" fill="none" xmlns="http://www.w3.org/2000/svg">
<path d="M368.788 191V152V139.5V130.5L366.788 127L365.288 122.5C364.788 120.167 363.488 114.5 362.288 110.5C361.088 106.5 359.788 104.833 359.288 104.5L356.788 98C355.954 96.1667 353.788 91.5 351.788 87.5C349.788 83.5 348.954 82.1667 348.788 82L345.288 76.5L341.788 70.5L337.788 65L334.288 59L329.288 53.5L324.288 48L317.788 41.5L314.288 37L308.788 33L304.288 29L298.788 25.5L292.788 21L286.788 18L282.788 15.5L275.788 11.5L266.788 9L260.288 6.5L252.788 5L246.288 4L235.788 2C234.788 1.5 231.588 0.5 226.788 0.5H222.288H215.288H169.788H163.288L156.288 2C154.788 2.16667 150.488 2.8 145.288 4C140.088 5.2 139.121 5.16667 139.288 5L133.288 6.5L124.788 9.5L116.788 12L111.288 14.5C109.121 15.6667 103.388 18.6 97.7877 21C90.7877 24 90.2877 24 84.7877 27.5C79.2877 31 78.7877 32 69.7877 37.5C64.5877 41.1 62.2877 42.3333 61.7877 42.5L52.7877 49.5L43.7877 58L37.7877 64L31.7877 70L26.7877 76L23.7877 81.5L18.7877 89L15.7877 94L13.7877 99.5L10.7877 107.5L8.78771 116C7.95437 119.167 5.78771 127.1 3.78772 133.5C1.78773 139.9 2.95439 140.833 3.78772 140.5V163V177.5L6.28771 185V194.5V206L8.78771 214.5L10.2877 223V230V240L8.78771 243.5C6.95437 244.5 2.88771 247.7 1.28771 252.5C-0.712293 258.5 1.78771 259 1.28771 267.5C0.887707 274.3 2.45437 276.667 3.28771 277V283L4.78771 293L6.28771 303.5V312.5L8.78771 321L10.2877 326L12.7877 334L15.7877 342C15.9544 343 16.6877 345.9 18.2877 349.5C19.8877 353.1 21.2877 354 21.7877 354C22.621 355.333 25.0877 358.6 28.2877 361C32.2877 364 31.7877 363.5 35.7877 367.5C38.9877 370.7 39.121 369.833 38.7877 369L41.7877 370.5H45.2877L47.2877 373L50.7877 376.5L53.7877 381.5L55.7877 385L58.2877 390.5V393.5L61.2877 398.5V403L63.7877 409V414.5L66.7877 420.5V426V439.5V447.5V461V475.5V492V497L65.7877 500V514V522V529L66.7877 531.5L73.7877 534.5L82.7877 537L90.7877 540.5L97.7877 542.5L105.788 543.5L113.788 545L122.288 546L131.288 548L144.288 550.5H156.288L167.788 551.5H178.788H190.288L211.788 550.5H220.288H230.288H238.288L243.788 548H251.288L258.288 546L264.788 545L271.788 543L277.288 541.5L283.788 540L289.288 538L293.788 536L300.788 532L308.288 530L313.288 528.5V522.5V516L311.288 507V496.5L308.288 484V464L309.288 444.5L311.288 436L313.788 427L315.288 417.5V412.5V405L316.788 398L318.288 390L319.288 383V379L324.288 374.5L329.288 372L335.288 367.5L343.288 361L350.288 352.5L357.288 339L362.788 320L368.788 287.5V271.5V252.5L359.788 243.5L368.788 191Z" fill="#FA0A0A" fill-opacity="0.3"/>
<path d="M368.788 191V152V139.5V130.5L366.788 127L365.288 122.5C364.788 120.167 363.488 114.5 362.288 110.5C361.088 106.5 359.788 104.833 359.288 104.5L356.788 98C355.954 96.1667 353.788 91.5 351.788 87.5C349.788 83.5 348.954 82.1667 348.788 82L345.288 76.5L341.788 70.5L337.788 65L334.288 59L329.288 53.5L324.288 48L317.788 41.5L314.288 37L308.788 33L304.288 29L298.788 25.5L292.788 21L286.788 18L282.788 15.5L275.788 11.5L266.788 9L260.288 6.5L252.788 5L246.288 4L235.788 2C234.788 1.5 231.588 0.5 226.788 0.5H222.288H215.288H169.788H163.288L156.288 2C154.788 2.16667 150.488 2.8 145.288 4C140.088 5.2 139.121 5.16667 139.288 5L133.288 6.5L124.788 9.5L116.788 12L111.288 14.5C109.121 15.6667 103.388 18.6 97.7877 21C90.7877 24 90.2877 24 84.7877 27.5C79.2877 31 78.7877 32 69.7877 37.5C64.5877 41.1 62.2877 42.3333 61.7877 42.5L52.7877 49.5L43.7877 58L37.7877 64L31.7877 70L26.7877 76L23.7877 81.5L18.7877 89L15.7877 94L13.7877 99.5L10.7877 107.5L8.78771 116C7.95437 119.167 5.78771 127.1 3.78772 133.5C1.78773 139.9 2.95439 140.833 3.78772 140.5V163V177.5L6.28771 185V194.5V206L8.78771 214.5L10.2877 223V230V240L8.78771 243.5C6.95437 244.5 2.88771 247.7 1.28771 252.5C-0.712293 258.5 1.78771 259 1.28771 267.5C0.887707 274.3 2.45437 276.667 3.28771 277V283L4.78771 293L6.28771 303.5V312.5L8.78771 321L10.2877 326L12.7877 334L15.7877 342C15.9544 343 16.6877 345.9 18.2877 349.5C19.8877 353.1 21.2877 354 21.7877 354C22.621 355.333 25.0877 358.6 28.2877 361C32.2877 364 31.7877 363.5 35.7877 367.5C38.9877 370.7 39.121 369.833 38.7877 369L41.7877 370.5H45.2877L47.2877 373L50.7877 376.5L53.7877 381.5L55.7877 385L58.2877 390.5V393.5L61.2877 398.5V403L63.7877 409V414.5L66.7877 420.5V426V439.5V447.5V461V475.5V492V497L65.7877 500V514V522V529L66.7877 531.5L73.7877 534.5L82.7877 537L90.7877 540.5L97.7877 542.5L105.788 543.5L113.788 545L122.288 546L131.288 548L144.288 550.5H156.288L167.788 551.5H178.788H190.288L211.788 550.5H220.288H230.288H238.288L243.788 548H251.288L258.288 546L264.788 545L271.788 543L277.288 541.5L283.788 540L289.288 538L293.788 536L300.788 532L308.288 530L313.288 528.5V522.5V516L311.288 507V496.5L308.288 484V464L309.288 444.5L311.288 436L313.788 427L315.288 417.5V412.5V405L316.788 398L318.288 390L319.288 383V379L324.288 374.5L329.288 372L335.288 367.5L343.288 361L350.288 352.5L357.288 339L362.788 320L368.788 287.5V271.5V252.5L359.788 243.5L368.788 191Z" stroke="black"/>
<path d="M368.788 191V152V139.5V130.5L366.788 127L365.288 122.5C364.788 120.167 363.488 114.5 362.288 110.5C361.088 106.5 359.788 104.833 359.288 104.5L356.788 98C355.954 96.1667 353.788 91.5 351.788 87.5C349.788 83.5 348.954 82.1667 348.788 82L345.288 76.5L341.788 70.5L337.788 65L334.288 59L329.288 53.5L324.288 48L317.788 41.5L314.288 37L308.788 33L304.288 29L298.788 25.5L292.788 21L286.788 18L282.788 15.5L275.788 11.5L266.788 9L260.288 6.5L252.788 5L246.288 4L235.788 2C234.788 1.5 231.588 0.5 226.788 0.5H222.288H215.288H169.788H163.288L156.288 2C154.788 2.16667 150.488 2.8 145.288 4C140.088 5.2 139.121 5.16667 139.288 5L133.288 6.5L124.788 9.5L116.788 12L111.288 14.5C109.121 15.6667 103.388 18.6 97.7877 21C90.7877 24 90.2877 24 84.7877 27.5C79.2877 31 78.7877 32 69.7877 37.5C64.5877 41.1 62.2877 42.3333 61.7877 42.5L52.7877 49.5L43.7877 58L37.7877 64L31.7877 70L26.7877 76L23.7877 81.5L18.7877 89L15.7877 94L13.7877 99.5L10.7877 107.5L8.78771 116C7.95437 119.167 5.78771 127.1 3.78772 133.5C1.78773 139.9 2.95439 140.833 3.78772 140.5V163V177.5L6.28771 185V194.5V206L8.78771 214.5L10.2877 223V230V240L8.78771 243.5C6.95437 244.5 2.88771 247.7 1.28771 252.5C-0.712293 258.5 1.78771 259 1.28771 267.5C0.887707 274.3 2.45437 276.667 3.28771 277V283L4.78771 293L6.28771 303.5V312.5L8.78771 321L10.2877 326L12.7877 334L15.7877 342C15.9544 343 16.6877 345.9 18.2877 349.5C19.8877 353.1 21.2877 354 21.7877 354C22.621 355.333 25.0877 358.6 28.2877 361C32.2877 364 31.7877 363.5 35.7877 367.5C38.9877 370.7 39.121 369.833 38.7877 369L41.7877 370.5H45.2877L47.2877 373L50.7877 376.5L53.7877 381.5L55.7877 385L58.2877 390.5V393.5L61.2877 398.5V403L63.7877 409V414.5L66.7877 420.5V426V439.5V447.5V461V475.5V492V497L65.7877 500V514V522V529L66.7877 531.5L73.7877 534.5L82.7877 537L90.7877 540.5L97.7877 542.5L105.788 543.5L113.788 545L122.288 546L131.288 548L144.288 550.5H156.288L167.788 551.5H178.788H190.288L211.788 550.5H220.288H230.288H238.288L243.788 548H251.288L258.288 546L264.788 545L271.788 543L277.288 541.5L283.788 540L289.288 538L293.788 536L300.788 532L308.288 530L313.288 528.5V522.5V516L311.288 507V496.5L308.288 484V464L309.288 444.5L311.288 436L313.788 427L315.288 417.5V412.5V405L316.788 398L318.288 390L319.288 383V379L324.288 374.5L329.288 372L335.288 367.5L343.288 361L350.288 352.5L357.288 339L362.788 320L368.788 287.5V271.5V252.5L359.788 243.5L368.788 191Z" stroke="#0B0A0A" stroke-opacity="0.1"/>
<path d="M368.788 191V152V139.5V130.5L366.788 127L365.288 122.5C364.788 120.167 363.488 114.5 362.288 110.5C361.088 106.5 359.788 104.833 359.288 104.5L356.788 98C355.954 96.1667 353.788 91.5 351.788 87.5C349.788 83.5 348.954 82.1667 348.788 82L345.288 76.5L341.788 70.5L337.788 65L334.288 59L329.288 53.5L324.288 48L317.788 41.5L314.288 37L308.788 33L304.288 29L298.788 25.5L292.788 21L286.788 18L282.788 15.5L275.788 11.5L266.788 9L260.288 6.5L252.788 5L246.288 4L235.788 2C234.788 1.5 231.588 0.5 226.788 0.5H222.288H215.288H169.788H163.288L156.288 2C154.788 2.16667 150.488 2.8 145.288 4C140.088 5.2 139.121 5.16667 139.288 5L133.288 6.5L124.788 9.5L116.788 12L111.288 14.5C109.121 15.6667 103.388 18.6 97.7877 21C90.7877 24 90.2877 24 84.7877 27.5C79.2877 31 78.7877 32 69.7877 37.5C64.5877 41.1 62.2877 42.3333 61.7877 42.5L52.7877 49.5L43.7877 58L37.7877 64L31.7877 70L26.7877 76L23.7877 81.5L18.7877 89L15.7877 94L13.7877 99.5L10.7877 107.5L8.78771 116C7.95437 119.167 5.78771 127.1 3.78772 133.5C1.78773 139.9 2.95439 140.833 3.78772 140.5V163V177.5L6.28771 185V194.5V206L8.78771 214.5L10.2877 223V230V240L8.78771 243.5C6.95437 244.5 2.88771 247.7 1.28771 252.5C-0.712293 258.5 1.78771 259 1.28771 267.5C0.887707 274.3 2.45437 276.667 3.28771 277V283L4.78771 293L6.28771 303.5V312.5L8.78771 321L10.2877 326L12.7877 334L15.7877 342C15.9544 343 16.6877 345.9 18.2877 349.5C19.8877 353.1 21.2877 354 21.7877 354C22.621 355.333 25.0877 358.6 28.2877 361C32.2877 364 31.7877 363.5 35.7877 367.5C38.9877 370.7 39.121 369.833 38.7877 369L41.7877 370.5H45.2877L47.2877 373L50.7877 376.5L53.7877 381.5L55.7877 385L58.2877 390.5V393.5L61.2877 398.5V403L63.7877 409V414.5L66.7877 420.5V426V439.5V447.5V461V475.5V492V497L65.7877 500V514V522V529L66.7877 531.5L73.7877 534.5L82.7877 537L90.7877 540.5L97.7877 542.5L105.788 543.5L113.788 545L122.288 546L131.288 548L144.288 550.5H156.288L167.788 551.5H178.788H190.288L211.788 550.5H220.288H230.288H238.288L243.788 548H251.288L258.288 546L264.788 545L271.788 543L277.288 541.5L283.788 540L289.288 538L293.788 536L300.788 532L308.288 530L313.288 528.5V522.5V516L311.288 507V496.5L308.288 484V464L309.288 444.5L311.288 436L313.788 427L315.288 417.5V412.5V405L316.788 398L318.288 390L319.288 383V379L324.288 374.5L329.288 372L335.288 367.5L343.288 361L350.288 352.5L357.288 339L362.788 320L368.788 287.5V271.5V252.5L359.788 243.5L368.788 191Z" stroke="#D52020" stroke-opacity="0.73"/>
</svg>
