<svg width="361" height="1747" viewBox="0 0 361 1747" fill="none" xmlns="http://www.w3.org/2000/svg">
<path d="M0.5 24.7215V3.7215V0.721497L4.5 2.2215L11 5.2215L16.5 8.7215L22.5 12.7215L32.5 16.2215L38.5 19.2215L54.5 25.7215L61 28.7215L70 32.2215L75 33.2215L87 38.2215L103.5 42.7215L127.5 49.2215L142 52.2215C144.333 52.3882 150.5 53.2215 156.5 55.2215C162.5 57.2215 167 56.7215 168.5 56.2215H170L170.5 58.2215H187.5H209.5H226H249.5L264.5 55.7215L272.5 54.7215L281 53.2215L293.5 51.7215L301 50.7215L306.5 48.7215L319 44.2215L326.5 41.2215L333.5 37.2215L344.5 30.2215L351.5 24.7215L359 18.7215V37.2215L360.5 58.7215L358 161.721C357.167 178.555 355 218.721 353 244.721C351.4 259.121 351.333 269.055 351.5 272.221L348 296.221L345 341.221C344.333 347.055 342.5 362.521 340.5 377.721C338.5 392.922 338 407.721 338 413.221L336 456.221V529.721L334 573.721V659.221C334 661.888 333.6 670.321 332 682.721C330.4 695.122 328.333 704.555 327.5 707.721C326.167 714.555 322.8 731.021 320 742.221C317.2 753.422 315.833 757.221 315.5 757.721C315 759.055 313.2 764.721 310 776.721C306.8 788.721 305.333 791.055 305 790.721V803.721L301.5 814.221L300 821.221L301.5 846.221C301.833 849.555 303 858.321 305 866.721C307 875.122 308.167 881.221 308.5 883.221C309.333 885.888 311.6 892.922 314 899.721C316.4 906.521 316.667 914.221 316.5 917.221L320 931.221C320.5 934.055 322.2 942.922 325 955.721C327.8 968.521 327.167 974.721 326.5 976.221L330 999.221V1016.22L332 1023.72V1093.72L330 1106.72L328.5 1119.72C326.833 1131.89 322.4 1164.42 318 1197.22C315.2 1217.22 315.5 1218.55 316 1216.72C315.833 1219.05 315 1227.12 313 1240.72C311 1254.32 312.167 1259.72 313 1260.72L311.5 1268.22C311 1273.22 310 1285.42 310 1294.22V1302.72V1382.72L313 1389.22V1404.22C313 1411.42 315.333 1416.89 316.5 1418.72C316.833 1422.22 318.4 1432.12 322 1443.72C325.6 1455.32 326.167 1459.55 326 1460.22C326.333 1462.89 328.1 1471.02 332.5 1482.22C336.9 1493.42 336.333 1492.55 335.5 1490.72L339 1501.72L341.5 1510.22L345 1525.72L349 1532.22L350.5 1544.72L351.5 1575.72L349 1584.22C348.5 1589.89 347.5 1603.82 347.5 1614.22C347.5 1624.62 345.833 1635.89 345 1640.22L342.5 1646.22V1690.72L341.5 1695.72C341.167 1697.39 339.8 1703.22 337 1713.22C335.8 1719.22 334.833 1720.05 334.5 1719.72L327.5 1729.72L320.5 1737.22L312.5 1740.72L304 1743.22L298.5 1745.72H285H252.5H245C241.833 1745.22 234 1743.52 228 1740.72C222 1737.92 220.5 1736.55 220.5 1736.22L213.5 1731.22L209.5 1724.72L203.5 1714.22L200.5 1707.22C199.5 1705.22 197.3 1699.82 196.5 1694.22C195.7 1688.62 194.833 1685.55 194.5 1684.72L190.5 1682.22L185.5 1678.72L178.5 1675.72L173.5 1673.22L167.5 1669.72L158.5 1665.22C156.667 1664.39 152 1662.02 148 1659.22C144.621 1656.86 143.859 1656.47 143.904 1656.6L144 1656.72C143.948 1656.67 143.913 1656.63 143.904 1656.6L140 1651.72L137.5 1646.22L135 1636.72L133 1630.72V1627.22V1596.72L134 1589.72L137.5 1585.22L141 1582.72H158.5L165.5 1574.22H176.5H184.5L186 1567.72L190.5 1564.22L195 1560.72L201 1558.72L202.5 1554.22V1542.72L204 1536.72L205 1530.72V1486.22L204 1483.72L196 1447.22L180.5 1396.72L166.5 1349.72L148 1293.22L131.5 1246.22L119.5 1212.72L111 1185.22L103 1159.72L95.5 1137.72L90.5 1115.22L85.5 1093.72L82.5 1072.22L79 1059.22L76.5 1042.72V1031.22L74 1009.22V961.221L77.5 932.221L80 914.721L91.5 863.721L96 844.221L102.5 806.721V782.721V736.721L101 702.721L98 694.721L95 661.221L93 621.221L89.5 608.721L85 578.721L78 544.221L70.5 516.221L62 482.221L54.5 455.721L46.5 419.221L40 392.721L30 355.221L27 342.221C26 334.721 23.6 317.121 22 306.721C20.4 296.322 18.6667 288.388 18 285.721L16 256.721L14 243.221L8.5 205.221C8 200.221 6.5 185.721 4.5 167.721C3.5 157.721 4 156.221 2.5 140.221C1.3 127.421 0.666667 123.555 0.5 123.221V107.221V88.7215V67.7215V47.2215V24.7215Z" fill="#FF0000" fill-opacity="0.3"/>
<path d="M0.5 3.7215V24.7215V47.2215V67.7215V88.7215V107.221V123.221C0.666667 123.555 1.3 127.421 2.5 140.221C4 156.221 3.5 157.721 4.5 167.721C6.5 185.721 8 200.221 8.5 205.221L14 243.221L16 256.721L18 285.721C18.6667 288.388 20.4 296.321 22 306.721C23.6 317.121 26 334.721 27 342.221L30 355.221L40 392.721L46.5 419.221L54.5 455.721L62 482.221L70.5 516.221L78 544.221L85 578.721L89.5 608.721L93 621.221L95 661.221L98 694.721L101 702.721L102.5 736.721V782.721V806.721L96 844.221L91.5 863.721L80 914.721L77.5 932.221L74 961.221V1009.22L76.5 1031.22V1042.72L79 1059.22L82.5 1072.22L85.5 1093.72L90.5 1115.22L95.5 1137.72L103 1159.72L111 1185.22L119.5 1212.72L131.5 1246.22L148 1293.22L166.5 1349.72L180.5 1396.72L196 1447.22L204 1483.72L205 1486.22V1530.72L204 1536.72L202.5 1542.72V1554.22L201 1558.72L195 1560.72L190.5 1564.22L186 1567.72L184.5 1574.22H176.5H165.5L158.5 1582.72H141L137.5 1585.22L134 1589.72L133 1596.72V1627.22V1630.72L135 1636.72L137.5 1646.22L140 1651.72L144 1656.72C143.667 1656.39 144 1656.42 148 1659.22C152 1662.02 156.667 1664.39 158.5 1665.22L167.5 1669.72L173.5 1673.22L178.5 1675.72L185.5 1678.72L190.5 1682.22L194.5 1684.72C194.833 1685.55 195.7 1688.62 196.5 1694.22C197.3 1699.82 199.5 1705.22 200.5 1707.22L203.5 1714.22L209.5 1724.72L213.5 1731.22L220.5 1736.22C220.5 1736.55 222 1737.92 228 1740.72C234 1743.52 241.833 1745.22 245 1745.72H252.5H285H298.5L304 1743.22L312.5 1740.72L320.5 1737.22L327.5 1729.72L334.5 1719.72C334.833 1720.05 335.8 1719.22 337 1713.22C339.8 1703.22 341.167 1697.39 341.5 1695.72L342.5 1690.72V1646.22L345 1640.22C345.833 1635.89 347.5 1624.62 347.5 1614.22C347.5 1603.82 348.5 1589.89 349 1584.22L351.5 1575.72L350.5 1544.72L349 1532.22L345 1525.72L341.5 1510.22L339 1501.72L335.5 1490.72C336.333 1492.55 336.9 1493.42 332.5 1482.22C328.1 1471.02 326.333 1462.89 326 1460.22C326.167 1459.55 325.6 1455.32 322 1443.72C318.4 1432.12 316.833 1422.22 316.5 1418.72C315.333 1416.89 313 1411.42 313 1404.22C313 1397.02 313 1391.22 313 1389.22L310 1382.72V1302.72C310 1303.55 310 1303.02 310 1294.22C310 1285.42 311 1273.22 311.5 1268.22L313 1260.72C312.167 1259.72 311 1254.32 313 1240.72C315 1227.12 315.833 1219.05 316 1216.72C315.5 1218.55 315.2 1217.22 318 1197.22C322.4 1164.42 326.833 1131.89 328.5 1119.72L330 1106.72L332 1093.72V1023.72L330 1016.22V999.221L326.5 976.221C327.167 974.721 327.8 968.521 325 955.721C322.2 942.921 320.5 934.055 320 931.221L316.5 917.221C316.667 914.221 316.4 906.521 314 899.721C311.6 892.921 309.333 885.888 308.5 883.221C308.167 881.221 307 875.121 305 866.721C303 858.321 301.833 849.555 301.5 846.221L300 821.221L301.5 814.221L305 803.721V790.721C305.333 791.055 306.8 788.721 310 776.721C313.2 764.721 315 759.055 315.5 757.721C315.833 757.221 317.2 753.421 320 742.221C322.8 731.021 326.167 714.555 327.5 707.721C328.333 704.555 330.4 695.121 332 682.721C333.6 670.321 334 661.888 334 659.221V573.721L336 529.721V456.221L338 413.221C338 407.721 338.5 392.921 340.5 377.721C342.5 362.521 344.333 347.055 345 341.221L348 296.221L351.5 272.221C351.333 269.055 351.4 259.121 353 244.721C355 218.721 357.167 178.555 358 161.721L360.5 58.7215L359 37.2215V18.7215L351.5 24.7215L344.5 30.2215L333.5 37.2215L326.5 41.2215L319 44.2215L306.5 48.7215L301 50.7215L293.5 51.7215L281 53.2215L272.5 54.7215L264.5 55.7215L249.5 58.2215H226H209.5H187.5H170.5L170 56.2215H168.5C167 56.7215 162.5 57.2215 156.5 55.2215C150.5 53.2215 144.333 52.3882 142 52.2215L127.5 49.2215L103.5 42.7215L87 38.2215L75 33.2215L70 32.2215L61 28.7215L54.5 25.7215L38.5 19.2215L32.5 16.2215L22.5 12.7215L16.5 8.7215L11 5.2215L4.5 2.2215L0.5 0.721497V3.7215Z" stroke="black"/>
</svg>
