<svg width="453" height="1501" viewBox="0 0 453 1501" fill="none" xmlns="http://www.w3.org/2000/svg">
<path d="M365.044 0.667969L369.044 11.668C369.211 11.668 370.044 13.568 372.044 21.168C375.244 33.968 378.378 44.5013 379.544 48.168L382.044 58.168C382.211 57.668 382.744 58.168 383.544 64.168C385.544 74.968 387.378 82.668 388.044 85.168L389.544 93.668L392.044 100.168L394.044 106.168C393.878 106.001 393.944 107.168 395.544 113.168C397.144 119.168 398.878 126.001 399.544 128.668L401.044 136.668L403.044 144.668L405.044 151.668L406.544 159.168C408.144 167.168 409.878 174.501 410.544 177.168L412.044 185.168L413.544 192.668L415.044 199.168L416.544 205.668L417.544 211.668C417.544 211.835 417.844 213.368 419.044 218.168C420.544 224.168 420.544 223.168 421.544 230.168C422.344 235.768 423.878 242.501 424.544 245.168L426.044 254.168L427.544 261.168L429.044 267.168L430.544 276.168L431.544 285.668L433.044 292.668C432.878 293.335 432.844 295.868 434.044 300.668C435.244 305.468 436.878 313.001 437.544 316.168L438.544 322.168C437.878 322.168 436.944 323.368 438.544 328.168C440.144 332.968 440.878 338.501 441.044 340.668L442.044 347.168C441.544 347.501 440.844 349.568 442.044 355.168C443.244 360.768 444.544 367.501 445.044 370.168C445.211 370.335 445.744 372.568 446.544 380.168C447.544 389.668 447.044 385.668 448.044 396.668C449.644 405.868 450.378 413.501 450.544 416.168V423.168V439.668C450.544 454.468 451.211 464.835 451.544 468.168V525.168L448.544 559.668V568.668C448.544 573.868 443.878 578.835 441.544 580.668L438.544 589.168L435.544 598.668C435.211 599.001 434.044 601.268 432.044 607.668C427.544 620.168 428.044 621.168 425.044 630.668C422.044 640.168 420.544 638.668 419.044 647.668C417.844 654.868 417.211 662.335 417.044 665.168L416.044 671.168V678.668V687.668L415.544 696.168L414.544 702.168V710.668V716.668L413.544 722.668L412.044 735.668L411.044 743.168L409.544 746.168V761.168L408.544 766.168L407.544 773.668C407.544 773.168 407.344 773.568 406.544 779.168C405.744 784.768 404.544 790.168 404.044 792.168L402.044 798.668L401.044 803.668V806.668L398.544 812.168V817.168L396.544 821.168C396.044 823.668 394.844 829.368 394.044 832.168C393.244 834.968 392.711 839.001 392.544 840.668C392.378 840.335 391.844 840.668 391.044 844.668C390.244 848.668 388.711 852.668 388.044 854.168L384.544 864.168L383.044 871.168L380.544 876.668L377.044 885.168L375.544 889.668L373.544 894.168L371.044 900.668L368.544 906.668L365.544 912.668C365.211 912.501 364.244 913.168 363.044 917.168C357.844 929.568 354.878 935.001 354.044 936.168L351.544 942.668L347.544 950.168L345.044 955.668L342.544 960.168L340.044 965.168L335.044 973.168L332.544 978.668L329.544 983.168L326.544 989.168L324.044 994.668C323.878 995.168 322.944 997.168 320.544 1001.17C315.744 1008.77 313.211 1015 312.544 1017.17L307.544 1023.67L306.544 1028.17C306.378 1027.83 305.744 1028.07 304.544 1031.67C303.344 1035.27 300.378 1039.83 299.044 1041.67C299.378 1041.83 299.544 1043.07 297.544 1046.67C295.044 1051.17 294.044 1051.67 291.544 1056.67C288.344 1063.47 286.211 1067.5 285.544 1068.67L282.044 1073.17L280.044 1078.67L277.544 1083.17L274.544 1088.17C273.878 1088.5 272.144 1090.17 270.544 1094.17C268.544 1099.17 269.544 1099.67 266.544 1103.67C264.144 1106.87 262.544 1110.67 262.044 1112.17C261.211 1112.17 259.244 1113.17 258.044 1117.17C256.544 1122.17 256.544 1122.67 254.544 1126.67C252.544 1130.67 253.044 1128.67 251.044 1134.17C249.444 1138.57 247.711 1142.67 247.044 1144.17L245.544 1148.67C244.878 1148 243.744 1147.97 244.544 1153.17C245.544 1159.67 244.044 1159.17 245.544 1163.17C247.044 1167.17 247.544 1167.17 249.044 1172.17C250.644 1176.97 251.044 1180.83 251.044 1182.17V1187.67L252.044 1192.67V1200.17V1207.17V1223.17V1255.17V1292.67V1308.17C249.644 1312.97 248.711 1316.17 248.544 1317.17V1322.17C248.544 1330.17 249.211 1342.83 249.544 1348.17C249.044 1347.67 248.344 1347.77 249.544 1352.17C250.744 1356.57 251.044 1362 251.044 1364.17V1372.67L253.044 1378.17C252.711 1378.83 252.244 1381.07 253.044 1384.67C254.644 1391.47 255.378 1396.5 255.544 1398.17V1421.67V1430.17V1437.17V1442.17L254.044 1446.67L253.044 1450.17C253.544 1450.17 253.944 1450.87 251.544 1453.67C246.744 1457.27 242.211 1458.5 240.544 1458.67L235.544 1457.17C235.044 1458.17 233.544 1459.17 231.544 1455.17C229.544 1451.17 227.711 1447.83 227.044 1446.67L224.044 1418.67C223.044 1414.33 221.044 1404.17 221.044 1398.17C219.444 1384.17 217.711 1375.33 217.044 1372.67C217.211 1373 217.044 1371.77 215.044 1364.17C211.044 1345.77 208.378 1344.17 207.544 1345.67C206.711 1346.5 205.144 1349.77 205.544 1356.17C205.944 1362.57 205.044 1365.83 204.544 1366.67V1376.17V1440.67L203.044 1446.67C203.544 1445.83 204.244 1445.77 203.044 1452.17C201.544 1460.17 202.544 1457.17 201.044 1464.17C199.844 1469.77 198.878 1474.5 198.544 1476.17C199.044 1477.33 199.144 1480.17 195.544 1482.17C191.044 1484.67 191.044 1488.17 184.544 1485.17C174.544 1477.67 171.544 1481.17 170.544 1471.67C169.744 1464.07 168.544 1457.5 168.044 1455.17L166.544 1447.67V1439.17L164.044 1430.17V1425.17V1418.67L163.044 1413.17L161.044 1405.17V1396.67V1391.17C161.544 1390.83 162.244 1388.77 161.044 1383.17C159.544 1376.17 160.044 1376.17 158.544 1368.67C157.344 1362.67 156.711 1356.5 156.544 1354.17C156.378 1354 155.744 1355.57 154.544 1363.17C151.044 1378.17 151.044 1380.17 149.544 1383.17C148.344 1385.57 147.711 1389.83 147.544 1391.67L147.044 1396.17V1401.67L146.044 1403.17L145.044 1406.17L144.544 1411.17L143.544 1415.17L142.544 1417.17V1426.67C142.378 1427.67 141.844 1430.07 141.044 1431.67C140.244 1433.27 140.044 1437 140.044 1438.67L139.044 1441.17L138.044 1444.67V1448.17L136.544 1453.17L136.044 1457.67L135.544 1461.17L134.544 1464.17L133.544 1467.17L132.544 1471.67V1476.17L131.544 1479.67L130.044 1483.17L129.044 1486.17L127.044 1490.67C127.044 1490.5 126.544 1490.87 124.544 1493.67C117.544 1499.17 116.544 1500.67 111.544 1498.67C105.544 1496.67 104.044 1496.17 100.544 1490.67C97.7443 1480.27 97.7109 1471.67 98.0443 1468.67V1461.17L99.5443 1449.17C100.544 1431.67 100.044 1430.17 102.044 1423.67C103.644 1418.47 104.044 1412.17 104.044 1409.67L105.044 1406.67L106.044 1402.17C105.878 1401.5 105.744 1399.07 106.544 1394.67C107.209 1389.57 107.481 1388.4 107.578 1388.25C107.56 1388.02 107.544 1387.56 107.544 1386.67C107.544 1382.67 106.878 1375.67 106.544 1372.67V1368.67L102.044 1372.67L99.5443 1379.67L98.0443 1388.67C97.3776 1387.5 95.8443 1386.47 95.0443 1391.67C94.0443 1398.17 94.0443 1397.17 91.0443 1405.17C88.6443 1411.57 85.711 1417.83 84.5443 1420.17L79.0443 1428.67L77.5443 1432.67L75.5443 1436.67L73.5443 1440.17L71.0443 1443.67L66.0443 1453.17L61.5443 1457.67L58.0443 1464.17L54.0443 1467.17C54.3776 1467.83 53.9443 1469.27 49.5443 1469.67C45.1443 1470.07 41.711 1469.17 40.5443 1468.67L36.5443 1464.17C35.8776 1465.17 34.1443 1465.97 32.5443 1461.17V1455.17L31.0443 1446.67L32.5443 1441.17V1436.67L34.0443 1432.67C34.211 1432.5 34.6443 1431.47 35.0443 1428.67C36.2443 1423.47 37.5443 1419.83 38.0443 1418.67C38.0443 1417.33 38.4443 1413.97 40.0443 1411.17C41.6443 1408.37 42.711 1406 43.0443 1405.17L44.5443 1401.67C44.5443 1401 44.7443 1399.07 45.5443 1396.67C46.3443 1394.27 46.8776 1391.67 47.0443 1390.67C47.3776 1390.67 48.1443 1390.07 48.5443 1387.67C49.0443 1384.67 50.5443 1384.67 50.5443 1381.67C51.3443 1378.07 52.5443 1374.83 53.0443 1373.67C53.211 1372.83 53.7443 1370.57 54.5443 1368.17C56.1443 1361.77 57.211 1358.5 57.5443 1357.67C57.3776 1357.5 57.3443 1356.47 58.5443 1353.67C60.1443 1348.47 61.5443 1344.83 62.0443 1343.67C62.211 1343 62.6443 1341.07 63.0443 1338.67C64.6443 1333.87 65.0443 1330.33 65.0443 1329.17L65.5443 1325.17C65.5443 1325.5 65.7443 1325.27 66.5443 1321.67C68.0382 1316.94 68.4162 1317.17 68.481 1317.91C68.4972 1317.7 68.518 1317.46 68.5443 1317.17C68.9443 1312.77 69.711 1307.67 70.0443 1305.67C70.211 1306 70.7443 1305.77 71.5443 1302.17C72.3443 1298.57 72.5443 1295 72.5443 1293.67V1289.67C72.8776 1289 73.6443 1286.37 74.0443 1281.17C74.4443 1275.97 76.5443 1271.67 77.5443 1270.17L70.0443 1277.67L65.5443 1281.17L61.5443 1286.17C60.3776 1286.67 57.7443 1288.27 56.5443 1290.67C51.5443 1298.67 51.0443 1300.17 50.0443 1304.67C48.8443 1312.67 47.211 1316 46.5443 1316.67C46.3776 1316.83 45.9443 1318.17 45.5443 1322.17C45.1443 1326.17 44.0443 1329.5 43.5443 1330.67L41.0443 1334.67L38.0443 1338.67C38.5443 1338.5 38.8443 1338.97 36.0443 1342.17C32.5443 1346.17 33.0443 1345.67 30.0443 1348.17C21.6443 1353.37 17.211 1355.33 16.0443 1355.67H11.5443C10.211 1356.33 7.14431 1357.27 5.54431 1355.67C3.94431 1354.07 2.21098 1351.33 1.54431 1350.17L0.544312 1346.67L2.54431 1343.67C2.04431 1343 1.34431 1341.07 2.54431 1338.67C4.54431 1333.07 5.37765 1329 5.54431 1327.67V1316.67V1307.17C5.21098 1305.67 4.74431 1301.47 5.54431 1296.67C7.14431 1288.27 8.54431 1283.5 9.04431 1282.17C8.04431 1281.83 6.64431 1280.47 9.04431 1277.67C15.0443 1269.27 14.8776 1269.17 14.0443 1270.17L15.5443 1266.67L17.0443 1264.67L19.0443 1261.17L21.0443 1258.17L22.5443 1254.17L24.0443 1250.67C24.211 1250.5 24.7443 1249.47 25.5443 1246.67C26.3443 1243.87 27.5443 1240.83 28.0443 1239.67C27.211 1239.17 26.0443 1237.47 28.0443 1234.67C31.0443 1226.67 32.0443 1239.67 31.5443 1232.17C31.1443 1226.17 32.711 1222.67 33.5443 1221.67L34.5443 1218.17L36.0443 1213.67L41.5443 1202.67C41.8776 1201.5 43.4443 1198.47 47.0443 1195.67C51.5443 1192.17 50.5443 1193.17 55.0443 1188.67C62.2443 1183.07 73.3776 1173 78.0443 1168.67L80.5443 1166.67C80.0443 1166.5 79.9443 1165.67 83.5443 1163.67C87.1443 1161.67 89.711 1159.83 90.5443 1159.17C91.8776 1158 95.2443 1155.17 98.0443 1153.17C106.044 1146.77 110.044 1144.17 111.044 1143.67C110.878 1143.17 111.044 1141.77 113.044 1140.17C116.644 1135.37 117.878 1132.5 118.044 1131.67V1125.17C119.644 1116.37 120.711 1112.5 121.044 1111.67C121.044 1112.5 121.144 1112.77 121.544 1107.17C125.544 1093.17 126.878 1085.33 127.044 1083.17C127.044 1083.5 127.544 1083.17 129.544 1079.17C131.544 1075.17 132.044 1072.83 132.044 1072.17V1068.17C132.044 1065.17 135.044 1068.67 135.044 1063.67V1055.67C135.711 1055 137.144 1052.77 137.544 1049.17C139.544 1038.77 140.044 1032.17 140.044 1030.17C140.378 1031.83 141.244 1033.87 142.044 1028.67C142.844 1021.07 144.378 1017.17 145.044 1016.17C144.711 1016.5 144.244 1016.17 145.044 1012.17C146.044 1003.67 147.044 1006.67 147.544 1001.17C149.544 993.168 150.544 994.668 150.544 990.168V982.168C150.544 980.835 150.844 977.368 152.044 974.168C153.644 966.168 155.378 958.835 156.044 956.168C156.544 955.668 157.544 953.568 157.544 949.168C157.544 943.668 159.044 940.668 159.544 934.668C160.044 928.668 160.044 927.668 161.044 922.668C161.844 918.668 163.044 914.668 163.544 913.168C163.211 911.501 162.744 906.968 163.544 902.168C165.144 895.368 166.211 888.668 166.544 886.168V878.168L168.044 875.168L169.044 869.668L170.544 857.168C170.711 856.835 171.144 855.268 171.544 851.668C171.944 848.068 173.044 842.501 173.544 840.168V834.168C173.544 830.568 175.211 827.668 176.044 826.668C176.211 825.668 176.544 822.668 176.544 818.668C177.744 811.468 178.711 806.668 179.044 805.168V800.168C181.544 793.168 180.044 792.168 181.544 786.668C183.044 781.168 183.544 783.668 184.044 777.668C185.644 770.868 186.378 766.501 186.544 765.168C185.878 765.001 185.144 763.068 187.544 756.668C192.544 736.168 187.044 763.168 190.044 748.668C192.444 737.068 193.711 731.168 194.044 729.668L195.544 723.668L196.544 721.168C196.378 720.001 196.344 716.868 197.544 713.668C204.044 693.168 198.044 718.168 201.544 703.168C205.044 688.168 204.544 690.168 206.544 684.668C210.544 675.068 212.544 670.001 213.044 668.668C213.544 667.835 214.844 665.168 216.044 661.168C222.544 648.668 214.044 663.668 219.544 653.168C223.944 644.768 226.044 641.001 226.544 640.168L232.544 630.668C232.544 629.668 232.944 626.868 234.544 623.668C236.144 620.468 238.878 616.335 240.044 614.668L241.544 608.668L243.544 604.168L247.544 594.168L251.044 581.668L252.544 577.168L254.044 567.668C254.378 568.335 255.144 568.568 255.544 564.168C255.944 559.768 255.711 542.335 255.544 534.168L256.044 509.168V482.668L257.544 466.668L258.044 459.168L259.544 446.168L260.544 441.168C261.044 440.835 262.044 439.068 262.044 434.668C262.044 422.268 262.711 416.835 263.044 415.668V406.668C268.044 385.668 267.544 381.168 268.044 377.668C268.544 374.168 270.044 375.168 270.044 367.668C272.044 359.168 271.544 365.668 272.544 356.668C273.544 347.668 274.044 351.668 275.044 344.168C275.844 338.168 277.044 333.668 277.544 332.168L278.044 324.668V321.168V312.668C278.211 311.835 278.644 308.968 279.044 304.168C279.444 299.368 279.211 289.501 279.044 285.168V280.168V270.168C279.211 270.168 279.244 269.168 278.044 265.168C276.844 261.168 276.544 256.835 276.544 255.168L277.044 250.168V241.168L276.544 235.668V232.668V227.668L277.044 214.668V206.668L278.044 201.668V190.668L280.044 184.168V180.668C279.544 181.835 278.844 182.568 280.044 176.168C281.544 168.168 282.044 170.168 282.544 163.668C284.144 154.868 285.544 146.668 286.044 143.668L287.544 139.668L289.044 133.668V129.168L290.044 127.168L291.044 125.168L292.044 122.668L293.044 119.168C292.878 118.835 292.644 117.568 293.044 115.168C293.444 112.768 294.878 110.501 295.544 109.668L296.044 106.668C295.711 106.335 295.344 104.968 296.544 102.168C297.744 99.368 298.711 98.0013 299.044 97.668L301.544 88.168L303.044 85.668C302.711 85.8346 302.344 85.468 303.544 82.668C304.744 79.868 306.044 77.168 306.544 76.168L308.044 71.668L309.544 68.668L310.544 66.668C309.878 67.168 309.044 67.268 311.044 63.668C313.544 59.168 314.044 58.668 315.544 55.668C316.744 53.268 318.378 50.668 319.044 49.668C319.378 49.3346 320.244 48.068 321.044 45.668C321.844 43.268 323.044 41.0013 323.544 40.168L325.044 37.668C325.378 37.3346 326.444 36.168 328.044 34.168C329.644 32.168 331.044 30.3346 331.544 29.668L334.044 27.168L335.544 25.168L339.544 21.168L343.544 17.168L344.544 15.668C344.878 15.3346 346.544 13.868 350.544 10.668C357.344 5.06797 360.711 2.66797 361.544 2.16797L365.044 0.667969Z" fill="#FF0202" fill-opacity="0.3"/>
<path d="M365.044 0.667969L369.044 11.668C369.211 11.668 370.044 13.568 372.044 21.168C375.244 33.968 378.378 44.5013 379.544 48.168L382.044 58.168C382.211 57.668 382.744 58.168 383.544 64.168C385.544 74.968 387.378 82.668 388.044 85.168L389.544 93.668L392.044 100.168L394.044 106.168C393.878 106.001 393.944 107.168 395.544 113.168C397.144 119.168 398.878 126.001 399.544 128.668L401.044 136.668L403.044 144.668L405.044 151.668L406.544 159.168C408.144 167.168 409.878 174.501 410.544 177.168L412.044 185.168L413.544 192.668L415.044 199.168L416.544 205.668L417.544 211.668C417.544 211.835 417.844 213.368 419.044 218.168C420.544 224.168 420.544 223.168 421.544 230.168C422.344 235.768 423.878 242.501 424.544 245.168L426.044 254.168L427.544 261.168L429.044 267.168L430.544 276.168L431.544 285.668L433.044 292.668C432.878 293.335 432.844 295.868 434.044 300.668C435.244 305.468 436.878 313.001 437.544 316.168L438.544 322.168C437.878 322.168 436.944 323.368 438.544 328.168C440.144 332.968 440.878 338.501 441.044 340.668L442.044 347.168C441.544 347.501 440.844 349.568 442.044 355.168C443.244 360.768 444.544 367.501 445.044 370.168C445.211 370.335 445.744 372.568 446.544 380.168C447.544 389.668 447.044 385.668 448.044 396.668C449.644 405.868 450.378 413.501 450.544 416.168V423.168V439.668C450.544 454.468 451.211 464.835 451.544 468.168V525.168L448.544 559.668V568.668C448.544 573.868 443.878 578.835 441.544 580.668L438.544 589.168L435.544 598.668C435.211 599.001 434.044 601.268 432.044 607.668C427.544 620.168 428.044 621.168 425.044 630.668C422.044 640.168 420.544 638.668 419.044 647.668C417.844 654.868 417.211 662.335 417.044 665.168L416.044 671.168V678.668V687.668L415.544 696.168L414.544 702.168V710.668V716.668L413.544 722.668L412.044 735.668L411.044 743.168L409.544 746.168V761.168L408.544 766.168L407.544 773.668C407.544 773.168 407.344 773.568 406.544 779.168C405.744 784.768 404.544 790.168 404.044 792.168L402.044 798.668L401.044 803.668V806.668L398.544 812.168V817.168L396.544 821.168C396.044 823.668 394.844 829.368 394.044 832.168C393.244 834.968 392.711 839.001 392.544 840.668C392.378 840.335 391.844 840.668 391.044 844.668C390.244 848.668 388.711 852.668 388.044 854.168L384.544 864.168L383.044 871.168L380.544 876.668L377.044 885.168L375.544 889.668L373.544 894.168L371.044 900.668L368.544 906.668L365.544 912.668C365.211 912.501 364.244 913.168 363.044 917.168C357.844 929.568 354.878 935.001 354.044 936.168L351.544 942.668L347.544 950.168L345.044 955.668L342.544 960.168L340.044 965.168L335.044 973.168L332.544 978.668L329.544 983.168L326.544 989.168L324.044 994.668C323.878 995.168 322.944 997.168 320.544 1001.17C315.744 1008.77 313.211 1015 312.544 1017.17L307.544 1023.67L306.544 1028.17C306.378 1027.83 305.744 1028.07 304.544 1031.67C303.344 1035.27 300.378 1039.83 299.044 1041.67C299.378 1041.83 299.544 1043.07 297.544 1046.67C295.044 1051.17 294.044 1051.67 291.544 1056.67C288.344 1063.47 286.211 1067.5 285.544 1068.67L282.044 1073.17L280.044 1078.67L277.544 1083.17L274.544 1088.17C273.878 1088.5 272.144 1090.17 270.544 1094.17C268.544 1099.17 269.544 1099.67 266.544 1103.67C264.144 1106.87 262.544 1110.67 262.044 1112.17C261.211 1112.17 259.244 1113.17 258.044 1117.17C256.544 1122.17 256.544 1122.67 254.544 1126.67C252.544 1130.67 253.044 1128.67 251.044 1134.17C249.444 1138.57 247.711 1142.67 247.044 1144.17L245.544 1148.67C244.878 1148 243.744 1147.97 244.544 1153.17C245.544 1159.67 244.044 1159.17 245.544 1163.17C247.044 1167.17 247.544 1167.17 249.044 1172.17C250.644 1176.97 251.044 1180.83 251.044 1182.17V1187.67L252.044 1192.67V1200.17V1207.17V1223.17V1255.17V1292.67V1308.17C249.644 1312.97 248.711 1316.17 248.544 1317.17V1322.17C248.544 1330.17 249.211 1342.83 249.544 1348.17C249.044 1347.67 248.344 1347.77 249.544 1352.17C250.744 1356.57 251.044 1362 251.044 1364.17V1372.67L253.044 1378.17C252.711 1378.83 252.244 1381.07 253.044 1384.67C254.644 1391.47 255.378 1396.5 255.544 1398.17V1421.67V1430.17V1437.17V1442.17L254.044 1446.67L253.044 1450.17C253.544 1450.17 253.944 1450.87 251.544 1453.67C246.744 1457.27 242.211 1458.5 240.544 1458.67L235.544 1457.17C235.044 1458.17 233.544 1459.17 231.544 1455.17C229.544 1451.17 227.711 1447.83 227.044 1446.67L224.044 1418.67C223.044 1414.33 221.044 1404.17 221.044 1398.17C219.444 1384.17 217.711 1375.33 217.044 1372.67C217.211 1373 217.044 1371.77 215.044 1364.17C211.044 1345.77 208.378 1344.17 207.544 1345.67C206.711 1346.5 205.144 1349.77 205.544 1356.17C205.944 1362.57 205.044 1365.83 204.544 1366.67V1376.17V1440.67L203.044 1446.67C203.544 1445.83 204.244 1445.77 203.044 1452.17C201.544 1460.17 202.544 1457.17 201.044 1464.17C199.844 1469.77 198.878 1474.5 198.544 1476.17C199.044 1477.33 199.144 1480.17 195.544 1482.17C191.044 1484.67 191.044 1488.17 184.544 1485.17C174.544 1477.67 171.544 1481.17 170.544 1471.67C169.744 1464.07 168.544 1457.5 168.044 1455.17L166.544 1447.67V1439.17L164.044 1430.17V1425.17V1418.67L163.044 1413.17L161.044 1405.17V1396.67V1391.17C161.544 1390.83 162.244 1388.77 161.044 1383.17C159.544 1376.17 160.044 1376.17 158.544 1368.67C157.344 1362.67 156.711 1356.5 156.544 1354.17C156.378 1354 155.744 1355.57 154.544 1363.17C151.044 1378.17 151.044 1380.17 149.544 1383.17C148.344 1385.57 147.711 1389.83 147.544 1391.67L147.044 1396.17V1401.67L146.044 1403.17L145.044 1406.17L144.544 1411.17L143.544 1415.17L142.544 1417.17V1426.67C142.378 1427.67 141.844 1430.07 141.044 1431.67C140.244 1433.27 140.044 1437 140.044 1438.67L139.044 1441.17L138.044 1444.67V1448.17L136.544 1453.17L136.044 1457.67L135.544 1461.17L134.544 1464.17L133.544 1467.17L132.544 1471.67V1476.17L131.544 1479.67L130.044 1483.17L129.044 1486.17L127.044 1490.67C127.044 1490.5 126.544 1490.87 124.544 1493.67C117.544 1499.17 116.544 1500.67 111.544 1498.67C105.544 1496.67 104.044 1496.17 100.544 1490.67C97.7443 1480.27 97.7109 1471.67 98.0443 1468.67V1461.17L99.5443 1449.17C100.544 1431.67 100.044 1430.17 102.044 1423.67C103.644 1418.47 104.044 1412.17 104.044 1409.67L105.044 1406.67L106.044 1402.17C105.878 1401.5 105.744 1399.07 106.544 1394.67C107.209 1389.57 107.481 1388.4 107.578 1388.25C107.56 1388.02 107.544 1387.56 107.544 1386.67C107.544 1382.67 106.878 1375.67 106.544 1372.67V1368.67L102.044 1372.67L99.5443 1379.67L98.0443 1388.67C97.3776 1387.5 95.8443 1386.47 95.0443 1391.67C94.0443 1398.17 94.0443 1397.17 91.0443 1405.17C88.6443 1411.57 85.711 1417.83 84.5443 1420.17L79.0443 1428.67L77.5443 1432.67L75.5443 1436.67L73.5443 1440.17L71.0443 1443.67L66.0443 1453.17L61.5443 1457.67L58.0443 1464.17L54.0443 1467.17C54.3776 1467.83 53.9443 1469.27 49.5443 1469.67C45.1443 1470.07 41.711 1469.17 40.5443 1468.67L36.5443 1464.17C35.8776 1465.17 34.1443 1465.97 32.5443 1461.17V1455.17L31.0443 1446.67L32.5443 1441.17V1436.67L34.0443 1432.67C34.211 1432.5 34.6443 1431.47 35.0443 1428.67C36.2443 1423.47 37.5443 1419.83 38.0443 1418.67C38.0443 1417.33 38.4443 1413.97 40.0443 1411.17C41.6443 1408.37 42.711 1406 43.0443 1405.17L44.5443 1401.67C44.5443 1401 44.7443 1399.07 45.5443 1396.67C46.3443 1394.27 46.8776 1391.67 47.0443 1390.67C47.3776 1390.67 48.1443 1390.07 48.5443 1387.67C49.0443 1384.67 50.5443 1384.67 50.5443 1381.67C51.3443 1378.07 52.5443 1374.83 53.0443 1373.67C53.211 1372.83 53.7443 1370.57 54.5443 1368.17C56.1443 1361.77 57.211 1358.5 57.5443 1357.67C57.3776 1357.5 57.3443 1356.47 58.5443 1353.67C60.1443 1348.47 61.5443 1344.83 62.0443 1343.67C62.211 1343 62.6443 1341.07 63.0443 1338.67C64.6443 1333.87 65.0443 1330.33 65.0443 1329.17L65.5443 1325.17C65.5443 1325.5 65.7443 1325.27 66.5443 1321.67C68.0382 1316.94 68.4162 1317.17 68.481 1317.91C68.4972 1317.7 68.518 1317.46 68.5443 1317.17C68.9443 1312.77 69.711 1307.67 70.0443 1305.67C70.211 1306 70.7443 1305.77 71.5443 1302.17C72.3443 1298.57 72.5443 1295 72.5443 1293.67V1289.67C72.8776 1289 73.6443 1286.37 74.0443 1281.17C74.4443 1275.97 76.5443 1271.67 77.5443 1270.17L70.0443 1277.67L65.5443 1281.17L61.5443 1286.17C60.3776 1286.67 57.7443 1288.27 56.5443 1290.67C51.5443 1298.67 51.0443 1300.17 50.0443 1304.67C48.8443 1312.67 47.211 1316 46.5443 1316.67C46.3776 1316.83 45.9443 1318.17 45.5443 1322.17C45.1443 1326.17 44.0443 1329.5 43.5443 1330.67L41.0443 1334.67L38.0443 1338.67C38.5443 1338.5 38.8443 1338.97 36.0443 1342.17C32.5443 1346.17 33.0443 1345.67 30.0443 1348.17C21.6443 1353.37 17.211 1355.33 16.0443 1355.67H11.5443C10.211 1356.33 7.14431 1357.27 5.54431 1355.67C3.94431 1354.07 2.21098 1351.33 1.54431 1350.17L0.544312 1346.67L2.54431 1343.67C2.04431 1343 1.34431 1341.07 2.54431 1338.67C4.54431 1333.07 5.37765 1329 5.54431 1327.67V1316.67V1307.17C5.21098 1305.67 4.74431 1301.47 5.54431 1296.67C7.14431 1288.27 8.54431 1283.5 9.04431 1282.17C8.04431 1281.83 6.64431 1280.47 9.04431 1277.67C15.0443 1269.27 14.8776 1269.17 14.0443 1270.17L15.5443 1266.67L17.0443 1264.67L19.0443 1261.17L21.0443 1258.17L22.5443 1254.17L24.0443 1250.67C24.211 1250.5 24.7443 1249.47 25.5443 1246.67C26.3443 1243.87 27.5443 1240.83 28.0443 1239.67C27.211 1239.17 26.0443 1237.47 28.0443 1234.67C31.0443 1226.67 32.0443 1239.67 31.5443 1232.17C31.1443 1226.17 32.711 1222.67 33.5443 1221.67L34.5443 1218.17L36.0443 1213.67L41.5443 1202.67C41.8776 1201.5 43.4443 1198.47 47.0443 1195.67C51.5443 1192.17 50.5443 1193.17 55.0443 1188.67C62.2443 1183.07 73.3776 1173 78.0443 1168.67L80.5443 1166.67C80.0443 1166.5 79.9443 1165.67 83.5443 1163.67C87.1443 1161.67 89.711 1159.83 90.5443 1159.17C91.8776 1158 95.2443 1155.17 98.0443 1153.17C106.044 1146.77 110.044 1144.17 111.044 1143.67C110.878 1143.17 111.044 1141.77 113.044 1140.17C116.644 1135.37 117.878 1132.5 118.044 1131.67V1125.17C119.644 1116.37 120.711 1112.5 121.044 1111.67C121.044 1112.5 121.144 1112.77 121.544 1107.17C125.544 1093.17 126.878 1085.33 127.044 1083.17C127.044 1083.5 127.544 1083.17 129.544 1079.17C131.544 1075.17 132.044 1072.83 132.044 1072.17V1068.17C132.044 1065.17 135.044 1068.67 135.044 1063.67V1055.67C135.711 1055 137.144 1052.77 137.544 1049.17C139.544 1038.77 140.044 1032.17 140.044 1030.17C140.378 1031.83 141.244 1033.87 142.044 1028.67C142.844 1021.07 144.378 1017.17 145.044 1016.17C144.711 1016.5 144.244 1016.17 145.044 1012.17C146.044 1003.67 147.044 1006.67 147.544 1001.17C149.544 993.168 150.544 994.668 150.544 990.168V982.168C150.544 980.835 150.844 977.368 152.044 974.168C153.644 966.168 155.378 958.835 156.044 956.168C156.544 955.668 157.544 953.568 157.544 949.168C157.544 943.668 159.044 940.668 159.544 934.668C160.044 928.668 160.044 927.668 161.044 922.668C161.844 918.668 163.044 914.668 163.544 913.168C163.211 911.501 162.744 906.968 163.544 902.168C165.144 895.368 166.211 888.668 166.544 886.168V878.168L168.044 875.168L169.044 869.668L170.544 857.168C170.711 856.835 171.144 855.268 171.544 851.668C171.944 848.068 173.044 842.501 173.544 840.168V834.168C173.544 830.568 175.211 827.668 176.044 826.668C176.211 825.668 176.544 822.668 176.544 818.668C177.744 811.468 178.711 806.668 179.044 805.168V800.168C181.544 793.168 180.044 792.168 181.544 786.668C183.044 781.168 183.544 783.668 184.044 777.668C185.644 770.868 186.378 766.501 186.544 765.168C185.878 765.001 185.144 763.068 187.544 756.668C192.544 736.168 187.044 763.168 190.044 748.668C192.444 737.068 193.711 731.168 194.044 729.668L195.544 723.668L196.544 721.168C196.378 720.001 196.344 716.868 197.544 713.668C204.044 693.168 198.044 718.168 201.544 703.168C205.044 688.168 204.544 690.168 206.544 684.668C210.544 675.068 212.544 670.001 213.044 668.668C213.544 667.835 214.844 665.168 216.044 661.168C222.544 648.668 214.044 663.668 219.544 653.168C223.944 644.768 226.044 641.001 226.544 640.168L232.544 630.668C232.544 629.668 232.944 626.868 234.544 623.668C236.144 620.468 238.878 616.335 240.044 614.668L241.544 608.668L243.544 604.168L247.544 594.168L251.044 581.668L252.544 577.168L254.044 567.668C254.378 568.335 255.144 568.568 255.544 564.168C255.944 559.768 255.711 542.335 255.544 534.168L256.044 509.168V482.668L257.544 466.668L258.044 459.168L259.544 446.168L260.544 441.168C261.044 440.835 262.044 439.068 262.044 434.668C262.044 422.268 262.711 416.835 263.044 415.668V406.668C268.044 385.668 267.544 381.168 268.044 377.668C268.544 374.168 270.044 375.168 270.044 367.668C272.044 359.168 271.544 365.668 272.544 356.668C273.544 347.668 274.044 351.668 275.044 344.168C275.844 338.168 277.044 333.668 277.544 332.168L278.044 324.668V321.168V312.668C278.211 311.835 278.644 308.968 279.044 304.168C279.444 299.368 279.211 289.501 279.044 285.168V280.168V270.168C279.211 270.168 279.244 269.168 278.044 265.168C276.844 261.168 276.544 256.835 276.544 255.168L277.044 250.168V241.168L276.544 235.668V232.668V227.668L277.044 214.668V206.668L278.044 201.668V190.668L280.044 184.168V180.668C279.544 181.835 278.844 182.568 280.044 176.168C281.544 168.168 282.044 170.168 282.544 163.668C284.144 154.868 285.544 146.668 286.044 143.668L287.544 139.668L289.044 133.668V129.168L290.044 127.168L291.044 125.168L292.044 122.668L293.044 119.168C292.878 118.835 292.644 117.568 293.044 115.168C293.444 112.768 294.878 110.501 295.544 109.668L296.044 106.668C295.711 106.335 295.344 104.968 296.544 102.168C297.744 99.368 298.711 98.0013 299.044 97.668L301.544 88.168L303.044 85.668C302.711 85.8346 302.344 85.468 303.544 82.668C304.744 79.868 306.044 77.168 306.544 76.168L308.044 71.668L309.544 68.668L310.544 66.668C309.878 67.168 309.044 67.268 311.044 63.668C313.544 59.168 314.044 58.668 315.544 55.668C316.744 53.268 318.378 50.668 319.044 49.668C319.378 49.3346 320.244 48.068 321.044 45.668C321.844 43.268 323.044 41.0013 323.544 40.168L325.044 37.668C325.378 37.3346 326.444 36.168 328.044 34.168C329.644 32.168 331.044 30.3346 331.544 29.668L334.044 27.168L335.544 25.168L339.544 21.168L343.544 17.168L344.544 15.668C344.878 15.3346 346.544 13.868 350.544 10.668C357.344 5.06797 360.711 2.66797 361.544 2.16797L365.044 0.667969Z" stroke="black"/>
<path d="M365.044 0.667969L369.044 11.668C369.211 11.668 370.044 13.568 372.044 21.168C375.244 33.968 378.378 44.5013 379.544 48.168L382.044 58.168C382.211 57.668 382.744 58.168 383.544 64.168C385.544 74.968 387.378 82.668 388.044 85.168L389.544 93.668L392.044 100.168L394.044 106.168C393.878 106.001 393.944 107.168 395.544 113.168C397.144 119.168 398.878 126.001 399.544 128.668L401.044 136.668L403.044 144.668L405.044 151.668L406.544 159.168C408.144 167.168 409.878 174.501 410.544 177.168L412.044 185.168L413.544 192.668L415.044 199.168L416.544 205.668L417.544 211.668C417.544 211.835 417.844 213.368 419.044 218.168C420.544 224.168 420.544 223.168 421.544 230.168C422.344 235.768 423.878 242.501 424.544 245.168L426.044 254.168L427.544 261.168L429.044 267.168L430.544 276.168L431.544 285.668L433.044 292.668C432.878 293.335 432.844 295.868 434.044 300.668C435.244 305.468 436.878 313.001 437.544 316.168L438.544 322.168C437.878 322.168 436.944 323.368 438.544 328.168C440.144 332.968 440.878 338.501 441.044 340.668L442.044 347.168C441.544 347.501 440.844 349.568 442.044 355.168C443.244 360.768 444.544 367.501 445.044 370.168C445.211 370.335 445.744 372.568 446.544 380.168C447.544 389.668 447.044 385.668 448.044 396.668C449.644 405.868 450.378 413.501 450.544 416.168V423.168V439.668C450.544 454.468 451.211 464.835 451.544 468.168V525.168L448.544 559.668V568.668C448.544 573.868 443.878 578.835 441.544 580.668L438.544 589.168L435.544 598.668C435.211 599.001 434.044 601.268 432.044 607.668C427.544 620.168 428.044 621.168 425.044 630.668C422.044 640.168 420.544 638.668 419.044 647.668C417.844 654.868 417.211 662.335 417.044 665.168L416.044 671.168V678.668V687.668L415.544 696.168L414.544 702.168V710.668V716.668L413.544 722.668L412.044 735.668L411.044 743.168L409.544 746.168V761.168L408.544 766.168L407.544 773.668C407.544 773.168 407.344 773.568 406.544 779.168C405.744 784.768 404.544 790.168 404.044 792.168L402.044 798.668L401.044 803.668V806.668L398.544 812.168V817.168L396.544 821.168C396.044 823.668 394.844 829.368 394.044 832.168C393.244 834.968 392.711 839.001 392.544 840.668C392.378 840.335 391.844 840.668 391.044 844.668C390.244 848.668 388.711 852.668 388.044 854.168L384.544 864.168L383.044 871.168L380.544 876.668L377.044 885.168L375.544 889.668L373.544 894.168L371.044 900.668L368.544 906.668L365.544 912.668C365.211 912.501 364.244 913.168 363.044 917.168C357.844 929.568 354.878 935.001 354.044 936.168L351.544 942.668L347.544 950.168L345.044 955.668L342.544 960.168L340.044 965.168L335.044 973.168L332.544 978.668L329.544 983.168L326.544 989.168L324.044 994.668C323.878 995.168 322.944 997.168 320.544 1001.17C315.744 1008.77 313.211 1015 312.544 1017.17L307.544 1023.67L306.544 1028.17C306.378 1027.83 305.744 1028.07 304.544 1031.67C303.344 1035.27 300.378 1039.83 299.044 1041.67C299.378 1041.83 299.544 1043.07 297.544 1046.67C295.044 1051.17 294.044 1051.67 291.544 1056.67C288.344 1063.47 286.211 1067.5 285.544 1068.67L282.044 1073.17L280.044 1078.67L277.544 1083.17L274.544 1088.17C273.878 1088.5 272.144 1090.17 270.544 1094.17C268.544 1099.17 269.544 1099.67 266.544 1103.67C264.144 1106.87 262.544 1110.67 262.044 1112.17C261.211 1112.17 259.244 1113.17 258.044 1117.17C256.544 1122.17 256.544 1122.67 254.544 1126.67C252.544 1130.67 253.044 1128.67 251.044 1134.17C249.444 1138.57 247.711 1142.67 247.044 1144.17L245.544 1148.67C244.878 1148 243.744 1147.97 244.544 1153.17C245.544 1159.67 244.044 1159.17 245.544 1163.17C247.044 1167.17 247.544 1167.17 249.044 1172.17C250.644 1176.97 251.044 1180.83 251.044 1182.17V1187.67L252.044 1192.67V1200.17V1207.17V1223.17V1255.17V1292.67V1308.17C249.644 1312.97 248.711 1316.17 248.544 1317.17V1322.17C248.544 1330.17 249.211 1342.83 249.544 1348.17C249.044 1347.67 248.344 1347.77 249.544 1352.17C250.744 1356.57 251.044 1362 251.044 1364.17V1372.67L253.044 1378.17C252.711 1378.83 252.244 1381.07 253.044 1384.67C254.644 1391.47 255.378 1396.5 255.544 1398.17V1421.67V1430.17V1437.17V1442.17L254.044 1446.67L253.044 1450.17C253.544 1450.17 253.944 1450.87 251.544 1453.67C246.744 1457.27 242.211 1458.5 240.544 1458.67L235.544 1457.17C235.044 1458.17 233.544 1459.17 231.544 1455.17C229.544 1451.17 227.711 1447.83 227.044 1446.67L224.044 1418.67C223.044 1414.33 221.044 1404.17 221.044 1398.17C219.444 1384.17 217.711 1375.33 217.044 1372.67C217.211 1373 217.044 1371.77 215.044 1364.17C211.044 1345.77 208.378 1344.17 207.544 1345.67C206.711 1346.5 205.144 1349.77 205.544 1356.17C205.944 1362.57 205.044 1365.83 204.544 1366.67V1376.17V1440.67L203.044 1446.67C203.544 1445.83 204.244 1445.77 203.044 1452.17C201.544 1460.17 202.544 1457.17 201.044 1464.17C199.844 1469.77 198.878 1474.5 198.544 1476.17C199.044 1477.33 199.144 1480.17 195.544 1482.17C191.044 1484.67 191.044 1488.17 184.544 1485.17C174.544 1477.67 171.544 1481.17 170.544 1471.67C169.744 1464.07 168.544 1457.5 168.044 1455.17L166.544 1447.67V1439.17L164.044 1430.17V1425.17V1418.67L163.044 1413.17L161.044 1405.17V1396.67V1391.17C161.544 1390.83 162.244 1388.77 161.044 1383.17C159.544 1376.17 160.044 1376.17 158.544 1368.67C157.344 1362.67 156.711 1356.5 156.544 1354.17C156.378 1354 155.744 1355.57 154.544 1363.17C151.044 1378.17 151.044 1380.17 149.544 1383.17C148.344 1385.57 147.711 1389.83 147.544 1391.67L147.044 1396.17V1401.67L146.044 1403.17L145.044 1406.17L144.544 1411.17L143.544 1415.17L142.544 1417.17V1426.67C142.378 1427.67 141.844 1430.07 141.044 1431.67C140.244 1433.27 140.044 1437 140.044 1438.67L139.044 1441.17L138.044 1444.67V1448.17L136.544 1453.17L136.044 1457.67L135.544 1461.17L134.544 1464.17L133.544 1467.17L132.544 1471.67V1476.17L131.544 1479.67L130.044 1483.17L129.044 1486.17L127.044 1490.67C127.044 1490.5 126.544 1490.87 124.544 1493.67C117.544 1499.17 116.544 1500.67 111.544 1498.67C105.544 1496.67 104.044 1496.17 100.544 1490.67C97.7443 1480.27 97.7109 1471.67 98.0443 1468.67V1461.17L99.5443 1449.17C100.544 1431.67 100.044 1430.17 102.044 1423.67C103.644 1418.47 104.044 1412.17 104.044 1409.67L105.044 1406.67L106.044 1402.17C105.878 1401.5 105.744 1399.07 106.544 1394.67C107.209 1389.57 107.481 1388.4 107.578 1388.25C107.56 1388.02 107.544 1387.56 107.544 1386.67C107.544 1382.67 106.878 1375.67 106.544 1372.67V1368.67L102.044 1372.67L99.5443 1379.67L98.0443 1388.67C97.3776 1387.5 95.8443 1386.47 95.0443 1391.67C94.0443 1398.17 94.0443 1397.17 91.0443 1405.17C88.6443 1411.57 85.711 1417.83 84.5443 1420.17L79.0443 1428.67L77.5443 1432.67L75.5443 1436.67L73.5443 1440.17L71.0443 1443.67L66.0443 1453.17L61.5443 1457.67L58.0443 1464.17L54.0443 1467.17C54.3776 1467.83 53.9443 1469.27 49.5443 1469.67C45.1443 1470.07 41.711 1469.17 40.5443 1468.67L36.5443 1464.17C35.8776 1465.17 34.1443 1465.97 32.5443 1461.17V1455.17L31.0443 1446.67L32.5443 1441.17V1436.67L34.0443 1432.67C34.211 1432.5 34.6443 1431.47 35.0443 1428.67C36.2443 1423.47 37.5443 1419.83 38.0443 1418.67C38.0443 1417.33 38.4443 1413.97 40.0443 1411.17C41.6443 1408.37 42.711 1406 43.0443 1405.17L44.5443 1401.67C44.5443 1401 44.7443 1399.07 45.5443 1396.67C46.3443 1394.27 46.8776 1391.67 47.0443 1390.67C47.3776 1390.67 48.1443 1390.07 48.5443 1387.67C49.0443 1384.67 50.5443 1384.67 50.5443 1381.67C51.3443 1378.07 52.5443 1374.83 53.0443 1373.67C53.211 1372.83 53.7443 1370.57 54.5443 1368.17C56.1443 1361.77 57.211 1358.5 57.5443 1357.67C57.3776 1357.5 57.3443 1356.47 58.5443 1353.67C60.1443 1348.47 61.5443 1344.83 62.0443 1343.67C62.211 1343 62.6443 1341.07 63.0443 1338.67C64.6443 1333.87 65.0443 1330.33 65.0443 1329.17L65.5443 1325.17C65.5443 1325.5 65.7443 1325.27 66.5443 1321.67C68.0382 1316.94 68.4162 1317.17 68.481 1317.91C68.4972 1317.7 68.518 1317.46 68.5443 1317.17C68.9443 1312.77 69.711 1307.67 70.0443 1305.67C70.211 1306 70.7443 1305.77 71.5443 1302.17C72.3443 1298.57 72.5443 1295 72.5443 1293.67V1289.67C72.8776 1289 73.6443 1286.37 74.0443 1281.17C74.4443 1275.97 76.5443 1271.67 77.5443 1270.17L70.0443 1277.67L65.5443 1281.17L61.5443 1286.17C60.3776 1286.67 57.7443 1288.27 56.5443 1290.67C51.5443 1298.67 51.0443 1300.17 50.0443 1304.67C48.8443 1312.67 47.211 1316 46.5443 1316.67C46.3776 1316.83 45.9443 1318.17 45.5443 1322.17C45.1443 1326.17 44.0443 1329.5 43.5443 1330.67L41.0443 1334.67L38.0443 1338.67C38.5443 1338.5 38.8443 1338.97 36.0443 1342.17C32.5443 1346.17 33.0443 1345.67 30.0443 1348.17C21.6443 1353.37 17.211 1355.33 16.0443 1355.67H11.5443C10.211 1356.33 7.14431 1357.27 5.54431 1355.67C3.94431 1354.07 2.21098 1351.33 1.54431 1350.17L0.544312 1346.67L2.54431 1343.67C2.04431 1343 1.34431 1341.07 2.54431 1338.67C4.54431 1333.07 5.37765 1329 5.54431 1327.67V1316.67V1307.17C5.21098 1305.67 4.74431 1301.47 5.54431 1296.67C7.14431 1288.27 8.54431 1283.5 9.04431 1282.17C8.04431 1281.83 6.64431 1280.47 9.04431 1277.67C15.0443 1269.27 14.8776 1269.17 14.0443 1270.17L15.5443 1266.67L17.0443 1264.67L19.0443 1261.17L21.0443 1258.17L22.5443 1254.17L24.0443 1250.67C24.211 1250.5 24.7443 1249.47 25.5443 1246.67C26.3443 1243.87 27.5443 1240.83 28.0443 1239.67C27.211 1239.17 26.0443 1237.47 28.0443 1234.67C31.0443 1226.67 32.0443 1239.67 31.5443 1232.17C31.1443 1226.17 32.711 1222.67 33.5443 1221.67L34.5443 1218.17L36.0443 1213.67L41.5443 1202.67C41.8776 1201.5 43.4443 1198.47 47.0443 1195.67C51.5443 1192.17 50.5443 1193.17 55.0443 1188.67C62.2443 1183.07 73.3776 1173 78.0443 1168.67L80.5443 1166.67C80.0443 1166.5 79.9443 1165.67 83.5443 1163.67C87.1443 1161.67 89.711 1159.83 90.5443 1159.17C91.8776 1158 95.2443 1155.17 98.0443 1153.17C106.044 1146.77 110.044 1144.17 111.044 1143.67C110.878 1143.17 111.044 1141.77 113.044 1140.17C116.644 1135.37 117.878 1132.5 118.044 1131.67V1125.17C119.644 1116.37 120.711 1112.5 121.044 1111.67C121.044 1112.5 121.144 1112.77 121.544 1107.17C125.544 1093.17 126.878 1085.33 127.044 1083.17C127.044 1083.5 127.544 1083.17 129.544 1079.17C131.544 1075.17 132.044 1072.83 132.044 1072.17V1068.17C132.044 1065.17 135.044 1068.67 135.044 1063.67V1055.67C135.711 1055 137.144 1052.77 137.544 1049.17C139.544 1038.77 140.044 1032.17 140.044 1030.17C140.378 1031.83 141.244 1033.87 142.044 1028.67C142.844 1021.07 144.378 1017.17 145.044 1016.17C144.711 1016.5 144.244 1016.17 145.044 1012.17C146.044 1003.67 147.044 1006.67 147.544 1001.17C149.544 993.168 150.544 994.668 150.544 990.168V982.168C150.544 980.835 150.844 977.368 152.044 974.168C153.644 966.168 155.378 958.835 156.044 956.168C156.544 955.668 157.544 953.568 157.544 949.168C157.544 943.668 159.044 940.668 159.544 934.668C160.044 928.668 160.044 927.668 161.044 922.668C161.844 918.668 163.044 914.668 163.544 913.168C163.211 911.501 162.744 906.968 163.544 902.168C165.144 895.368 166.211 888.668 166.544 886.168V878.168L168.044 875.168L169.044 869.668L170.544 857.168C170.711 856.835 171.144 855.268 171.544 851.668C171.944 848.068 173.044 842.501 173.544 840.168V834.168C173.544 830.568 175.211 827.668 176.044 826.668C176.211 825.668 176.544 822.668 176.544 818.668C177.744 811.468 178.711 806.668 179.044 805.168V800.168C181.544 793.168 180.044 792.168 181.544 786.668C183.044 781.168 183.544 783.668 184.044 777.668C185.644 770.868 186.378 766.501 186.544 765.168C185.878 765.001 185.144 763.068 187.544 756.668C192.544 736.168 187.044 763.168 190.044 748.668C192.444 737.068 193.711 731.168 194.044 729.668L195.544 723.668L196.544 721.168C196.378 720.001 196.344 716.868 197.544 713.668C204.044 693.168 198.044 718.168 201.544 703.168C205.044 688.168 204.544 690.168 206.544 684.668C210.544 675.068 212.544 670.001 213.044 668.668C213.544 667.835 214.844 665.168 216.044 661.168C222.544 648.668 214.044 663.668 219.544 653.168C223.944 644.768 226.044 641.001 226.544 640.168L232.544 630.668C232.544 629.668 232.944 626.868 234.544 623.668C236.144 620.468 238.878 616.335 240.044 614.668L241.544 608.668L243.544 604.168L247.544 594.168L251.044 581.668L252.544 577.168L254.044 567.668C254.378 568.335 255.144 568.568 255.544 564.168C255.944 559.768 255.711 542.335 255.544 534.168L256.044 509.168V482.668L257.544 466.668L258.044 459.168L259.544 446.168L260.544 441.168C261.044 440.835 262.044 439.068 262.044 434.668C262.044 422.268 262.711 416.835 263.044 415.668V406.668C268.044 385.668 267.544 381.168 268.044 377.668C268.544 374.168 270.044 375.168 270.044 367.668C272.044 359.168 271.544 365.668 272.544 356.668C273.544 347.668 274.044 351.668 275.044 344.168C275.844 338.168 277.044 333.668 277.544 332.168L278.044 324.668V321.168V312.668C278.211 311.835 278.644 308.968 279.044 304.168C279.444 299.368 279.211 289.501 279.044 285.168V280.168V270.168C279.211 270.168 279.244 269.168 278.044 265.168C276.844 261.168 276.544 256.835 276.544 255.168L277.044 250.168V241.168L276.544 235.668V232.668V227.668L277.044 214.668V206.668L278.044 201.668V190.668L280.044 184.168V180.668C279.544 181.835 278.844 182.568 280.044 176.168C281.544 168.168 282.044 170.168 282.544 163.668C284.144 154.868 285.544 146.668 286.044 143.668L287.544 139.668L289.044 133.668V129.168L290.044 127.168L291.044 125.168L292.044 122.668L293.044 119.168C292.878 118.835 292.644 117.568 293.044 115.168C293.444 112.768 294.878 110.501 295.544 109.668L296.044 106.668C295.711 106.335 295.344 104.968 296.544 102.168C297.744 99.368 298.711 98.0013 299.044 97.668L301.544 88.168L303.044 85.668C302.711 85.8346 302.344 85.468 303.544 82.668C304.744 79.868 306.044 77.168 306.544 76.168L308.044 71.668L309.544 68.668L310.544 66.668C309.878 67.168 309.044 67.268 311.044 63.668C313.544 59.168 314.044 58.668 315.544 55.668C316.744 53.268 318.378 50.668 319.044 49.668C319.378 49.3346 320.244 48.068 321.044 45.668C321.844 43.268 323.044 41.0013 323.544 40.168L325.044 37.668C325.378 37.3346 326.444 36.168 328.044 34.168C329.644 32.168 331.044 30.3346 331.544 29.668L334.044 27.168L335.544 25.168L339.544 21.168L343.544 17.168L344.544 15.668C344.878 15.3346 346.544 13.868 350.544 10.668C357.344 5.06797 360.711 2.66797 361.544 2.16797L365.044 0.667969Z" stroke="#0B0A0A" stroke-opacity="0.1"/>
<path d="M365.044 0.667969L369.044 11.668C369.211 11.668 370.044 13.568 372.044 21.168C375.244 33.968 378.378 44.5013 379.544 48.168L382.044 58.168C382.211 57.668 382.744 58.168 383.544 64.168C385.544 74.968 387.378 82.668 388.044 85.168L389.544 93.668L392.044 100.168L394.044 106.168C393.878 106.001 393.944 107.168 395.544 113.168C397.144 119.168 398.878 126.001 399.544 128.668L401.044 136.668L403.044 144.668L405.044 151.668L406.544 159.168C408.144 167.168 409.878 174.501 410.544 177.168L412.044 185.168L413.544 192.668L415.044 199.168L416.544 205.668L417.544 211.668C417.544 211.835 417.844 213.368 419.044 218.168C420.544 224.168 420.544 223.168 421.544 230.168C422.344 235.768 423.878 242.501 424.544 245.168L426.044 254.168L427.544 261.168L429.044 267.168L430.544 276.168L431.544 285.668L433.044 292.668C432.878 293.335 432.844 295.868 434.044 300.668C435.244 305.468 436.878 313.001 437.544 316.168L438.544 322.168C437.878 322.168 436.944 323.368 438.544 328.168C440.144 332.968 440.878 338.501 441.044 340.668L442.044 347.168C441.544 347.501 440.844 349.568 442.044 355.168C443.244 360.768 444.544 367.501 445.044 370.168C445.211 370.335 445.744 372.568 446.544 380.168C447.544 389.668 447.044 385.668 448.044 396.668C449.644 405.868 450.378 413.501 450.544 416.168V423.168V439.668C450.544 454.468 451.211 464.835 451.544 468.168V525.168L448.544 559.668V568.668C448.544 573.868 443.878 578.835 441.544 580.668L438.544 589.168L435.544 598.668C435.211 599.001 434.044 601.268 432.044 607.668C427.544 620.168 428.044 621.168 425.044 630.668C422.044 640.168 420.544 638.668 419.044 647.668C417.844 654.868 417.211 662.335 417.044 665.168L416.044 671.168V678.668V687.668L415.544 696.168L414.544 702.168V710.668V716.668L413.544 722.668L412.044 735.668L411.044 743.168L409.544 746.168V761.168L408.544 766.168L407.544 773.668C407.544 773.168 407.344 773.568 406.544 779.168C405.744 784.768 404.544 790.168 404.044 792.168L402.044 798.668L401.044 803.668V806.668L398.544 812.168V817.168L396.544 821.168C396.044 823.668 394.844 829.368 394.044 832.168C393.244 834.968 392.711 839.001 392.544 840.668C392.378 840.335 391.844 840.668 391.044 844.668C390.244 848.668 388.711 852.668 388.044 854.168L384.544 864.168L383.044 871.168L380.544 876.668L377.044 885.168L375.544 889.668L373.544 894.168L371.044 900.668L368.544 906.668L365.544 912.668C365.211 912.501 364.244 913.168 363.044 917.168C357.844 929.568 354.878 935.001 354.044 936.168L351.544 942.668L347.544 950.168L345.044 955.668L342.544 960.168L340.044 965.168L335.044 973.168L332.544 978.668L329.544 983.168L326.544 989.168L324.044 994.668C323.878 995.168 322.944 997.168 320.544 1001.17C315.744 1008.77 313.211 1015 312.544 1017.17L307.544 1023.67L306.544 1028.17C306.378 1027.83 305.744 1028.07 304.544 1031.67C303.344 1035.27 300.378 1039.83 299.044 1041.67C299.378 1041.83 299.544 1043.07 297.544 1046.67C295.044 1051.17 294.044 1051.67 291.544 1056.67C288.344 1063.47 286.211 1067.5 285.544 1068.67L282.044 1073.17L280.044 1078.67L277.544 1083.17L274.544 1088.17C273.878 1088.5 272.144 1090.17 270.544 1094.17C268.544 1099.17 269.544 1099.67 266.544 1103.67C264.144 1106.87 262.544 1110.67 262.044 1112.17C261.211 1112.17 259.244 1113.17 258.044 1117.17C256.544 1122.17 256.544 1122.67 254.544 1126.67C252.544 1130.67 253.044 1128.67 251.044 1134.17C249.444 1138.57 247.711 1142.67 247.044 1144.17L245.544 1148.67C244.878 1148 243.744 1147.97 244.544 1153.17C245.544 1159.67 244.044 1159.17 245.544 1163.17C247.044 1167.17 247.544 1167.17 249.044 1172.17C250.644 1176.97 251.044 1180.83 251.044 1182.17V1187.67L252.044 1192.67V1200.17V1207.17V1223.17V1255.17V1292.67V1308.17C249.644 1312.97 248.711 1316.17 248.544 1317.17V1322.17C248.544 1330.17 249.211 1342.83 249.544 1348.17C249.044 1347.67 248.344 1347.77 249.544 1352.17C250.744 1356.57 251.044 1362 251.044 1364.17V1372.67L253.044 1378.17C252.711 1378.83 252.244 1381.07 253.044 1384.67C254.644 1391.47 255.378 1396.5 255.544 1398.17V1421.67V1430.17V1437.17V1442.17L254.044 1446.67L253.044 1450.17C253.544 1450.17 253.944 1450.87 251.544 1453.67C246.744 1457.27 242.211 1458.5 240.544 1458.67L235.544 1457.17C235.044 1458.17 233.544 1459.17 231.544 1455.17C229.544 1451.17 227.711 1447.83 227.044 1446.67L224.044 1418.67C223.044 1414.33 221.044 1404.17 221.044 1398.17C219.444 1384.17 217.711 1375.33 217.044 1372.67C217.211 1373 217.044 1371.77 215.044 1364.17C211.044 1345.77 208.378 1344.17 207.544 1345.67C206.711 1346.5 205.144 1349.77 205.544 1356.17C205.944 1362.57 205.044 1365.83 204.544 1366.67V1376.17V1440.67L203.044 1446.67C203.544 1445.83 204.244 1445.77 203.044 1452.17C201.544 1460.17 202.544 1457.17 201.044 1464.17C199.844 1469.77 198.878 1474.5 198.544 1476.17C199.044 1477.33 199.144 1480.17 195.544 1482.17C191.044 1484.67 191.044 1488.17 184.544 1485.17C174.544 1477.67 171.544 1481.17 170.544 1471.67C169.744 1464.07 168.544 1457.5 168.044 1455.17L166.544 1447.67V1439.17L164.044 1430.17V1425.17V1418.67L163.044 1413.17L161.044 1405.17V1396.67V1391.17C161.544 1390.83 162.244 1388.77 161.044 1383.17C159.544 1376.17 160.044 1376.17 158.544 1368.67C157.344 1362.67 156.711 1356.5 156.544 1354.17C156.378 1354 155.744 1355.57 154.544 1363.17C151.044 1378.17 151.044 1380.17 149.544 1383.17C148.344 1385.57 147.711 1389.83 147.544 1391.67L147.044 1396.17V1401.67L146.044 1403.17L145.044 1406.17L144.544 1411.17L143.544 1415.17L142.544 1417.17V1426.67C142.378 1427.67 141.844 1430.07 141.044 1431.67C140.244 1433.27 140.044 1437 140.044 1438.67L139.044 1441.17L138.044 1444.67V1448.17L136.544 1453.17L136.044 1457.67L135.544 1461.17L134.544 1464.17L133.544 1467.17L132.544 1471.67V1476.17L131.544 1479.67L130.044 1483.17L129.044 1486.17L127.044 1490.67C127.044 1490.5 126.544 1490.87 124.544 1493.67C117.544 1499.17 116.544 1500.67 111.544 1498.67C105.544 1496.67 104.044 1496.17 100.544 1490.67C97.7443 1480.27 97.7109 1471.67 98.0443 1468.67V1461.17L99.5443 1449.17C100.544 1431.67 100.044 1430.17 102.044 1423.67C103.644 1418.47 104.044 1412.17 104.044 1409.67L105.044 1406.67L106.044 1402.17C105.878 1401.5 105.744 1399.07 106.544 1394.67C107.209 1389.57 107.481 1388.4 107.578 1388.25C107.56 1388.02 107.544 1387.56 107.544 1386.67C107.544 1382.67 106.878 1375.67 106.544 1372.67V1368.67L102.044 1372.67L99.5443 1379.67L98.0443 1388.67C97.3776 1387.5 95.8443 1386.47 95.0443 1391.67C94.0443 1398.17 94.0443 1397.17 91.0443 1405.17C88.6443 1411.57 85.711 1417.83 84.5443 1420.17L79.0443 1428.67L77.5443 1432.67L75.5443 1436.67L73.5443 1440.17L71.0443 1443.67L66.0443 1453.17L61.5443 1457.67L58.0443 1464.17L54.0443 1467.17C54.3776 1467.83 53.9443 1469.27 49.5443 1469.67C45.1443 1470.07 41.711 1469.17 40.5443 1468.67L36.5443 1464.17C35.8776 1465.17 34.1443 1465.97 32.5443 1461.17V1455.17L31.0443 1446.67L32.5443 1441.17V1436.67L34.0443 1432.67C34.211 1432.5 34.6443 1431.47 35.0443 1428.67C36.2443 1423.47 37.5443 1419.83 38.0443 1418.67C38.0443 1417.33 38.4443 1413.97 40.0443 1411.17C41.6443 1408.37 42.711 1406 43.0443 1405.17L44.5443 1401.67C44.5443 1401 44.7443 1399.07 45.5443 1396.67C46.3443 1394.27 46.8776 1391.67 47.0443 1390.67C47.3776 1390.67 48.1443 1390.07 48.5443 1387.67C49.0443 1384.67 50.5443 1384.67 50.5443 1381.67C51.3443 1378.07 52.5443 1374.83 53.0443 1373.67C53.211 1372.83 53.7443 1370.57 54.5443 1368.17C56.1443 1361.77 57.211 1358.5 57.5443 1357.67C57.3776 1357.5 57.3443 1356.47 58.5443 1353.67C60.1443 1348.47 61.5443 1344.83 62.0443 1343.67C62.211 1343 62.6443 1341.07 63.0443 1338.67C64.6443 1333.87 65.0443 1330.33 65.0443 1329.17L65.5443 1325.17C65.5443 1325.5 65.7443 1325.27 66.5443 1321.67C68.0382 1316.94 68.4162 1317.17 68.481 1317.91C68.4972 1317.7 68.518 1317.46 68.5443 1317.17C68.9443 1312.77 69.711 1307.67 70.0443 1305.67C70.211 1306 70.7443 1305.77 71.5443 1302.17C72.3443 1298.57 72.5443 1295 72.5443 1293.67V1289.67C72.8776 1289 73.6443 1286.37 74.0443 1281.17C74.4443 1275.97 76.5443 1271.67 77.5443 1270.17L70.0443 1277.67L65.5443 1281.17L61.5443 1286.17C60.3776 1286.67 57.7443 1288.27 56.5443 1290.67C51.5443 1298.67 51.0443 1300.17 50.0443 1304.67C48.8443 1312.67 47.211 1316 46.5443 1316.67C46.3776 1316.83 45.9443 1318.17 45.5443 1322.17C45.1443 1326.17 44.0443 1329.5 43.5443 1330.67L41.0443 1334.67L38.0443 1338.67C38.5443 1338.5 38.8443 1338.97 36.0443 1342.17C32.5443 1346.17 33.0443 1345.67 30.0443 1348.17C21.6443 1353.37 17.211 1355.33 16.0443 1355.67H11.5443C10.211 1356.33 7.14431 1357.27 5.54431 1355.67C3.94431 1354.07 2.21098 1351.33 1.54431 1350.17L0.544312 1346.67L2.54431 1343.67C2.04431 1343 1.34431 1341.07 2.54431 1338.67C4.54431 1333.07 5.37765 1329 5.54431 1327.67V1316.67V1307.17C5.21098 1305.67 4.74431 1301.47 5.54431 1296.67C7.14431 1288.27 8.54431 1283.5 9.04431 1282.17C8.04431 1281.83 6.64431 1280.47 9.04431 1277.67C15.0443 1269.27 14.8776 1269.17 14.0443 1270.17L15.5443 1266.67L17.0443 1264.67L19.0443 1261.17L21.0443 1258.17L22.5443 1254.17L24.0443 1250.67C24.211 1250.5 24.7443 1249.47 25.5443 1246.67C26.3443 1243.87 27.5443 1240.83 28.0443 1239.67C27.211 1239.17 26.0443 1237.47 28.0443 1234.67C31.0443 1226.67 32.0443 1239.67 31.5443 1232.17C31.1443 1226.17 32.711 1222.67 33.5443 1221.67L34.5443 1218.17L36.0443 1213.67L41.5443 1202.67C41.8776 1201.5 43.4443 1198.47 47.0443 1195.67C51.5443 1192.17 50.5443 1193.17 55.0443 1188.67C62.2443 1183.07 73.3776 1173 78.0443 1168.67L80.5443 1166.67C80.0443 1166.5 79.9443 1165.67 83.5443 1163.67C87.1443 1161.67 89.711 1159.83 90.5443 1159.17C91.8776 1158 95.2443 1155.17 98.0443 1153.17C106.044 1146.77 110.044 1144.17 111.044 1143.67C110.878 1143.17 111.044 1141.77 113.044 1140.17C116.644 1135.37 117.878 1132.5 118.044 1131.67V1125.17C119.644 1116.37 120.711 1112.5 121.044 1111.67C121.044 1112.5 121.144 1112.77 121.544 1107.17C125.544 1093.17 126.878 1085.33 127.044 1083.17C127.044 1083.5 127.544 1083.17 129.544 1079.17C131.544 1075.17 132.044 1072.83 132.044 1072.17V1068.17C132.044 1065.17 135.044 1068.67 135.044 1063.67V1055.67C135.711 1055 137.144 1052.77 137.544 1049.17C139.544 1038.77 140.044 1032.17 140.044 1030.17C140.378 1031.83 141.244 1033.87 142.044 1028.67C142.844 1021.07 144.378 1017.17 145.044 1016.17C144.711 1016.5 144.244 1016.17 145.044 1012.17C146.044 1003.67 147.044 1006.67 147.544 1001.17C149.544 993.168 150.544 994.668 150.544 990.168V982.168C150.544 980.835 150.844 977.368 152.044 974.168C153.644 966.168 155.378 958.835 156.044 956.168C156.544 955.668 157.544 953.568 157.544 949.168C157.544 943.668 159.044 940.668 159.544 934.668C160.044 928.668 160.044 927.668 161.044 922.668C161.844 918.668 163.044 914.668 163.544 913.168C163.211 911.501 162.744 906.968 163.544 902.168C165.144 895.368 166.211 888.668 166.544 886.168V878.168L168.044 875.168L169.044 869.668L170.544 857.168C170.711 856.835 171.144 855.268 171.544 851.668C171.944 848.068 173.044 842.501 173.544 840.168V834.168C173.544 830.568 175.211 827.668 176.044 826.668C176.211 825.668 176.544 822.668 176.544 818.668C177.744 811.468 178.711 806.668 179.044 805.168V800.168C181.544 793.168 180.044 792.168 181.544 786.668C183.044 781.168 183.544 783.668 184.044 777.668C185.644 770.868 186.378 766.501 186.544 765.168C185.878 765.001 185.144 763.068 187.544 756.668C192.544 736.168 187.044 763.168 190.044 748.668C192.444 737.068 193.711 731.168 194.044 729.668L195.544 723.668L196.544 721.168C196.378 720.001 196.344 716.868 197.544 713.668C204.044 693.168 198.044 718.168 201.544 703.168C205.044 688.168 204.544 690.168 206.544 684.668C210.544 675.068 212.544 670.001 213.044 668.668C213.544 667.835 214.844 665.168 216.044 661.168C222.544 648.668 214.044 663.668 219.544 653.168C223.944 644.768 226.044 641.001 226.544 640.168L232.544 630.668C232.544 629.668 232.944 626.868 234.544 623.668C236.144 620.468 238.878 616.335 240.044 614.668L241.544 608.668L243.544 604.168L247.544 594.168L251.044 581.668L252.544 577.168L254.044 567.668C254.378 568.335 255.144 568.568 255.544 564.168C255.944 559.768 255.711 542.335 255.544 534.168L256.044 509.168V482.668L257.544 466.668L258.044 459.168L259.544 446.168L260.544 441.168C261.044 440.835 262.044 439.068 262.044 434.668C262.044 422.268 262.711 416.835 263.044 415.668V406.668C268.044 385.668 267.544 381.168 268.044 377.668C268.544 374.168 270.044 375.168 270.044 367.668C272.044 359.168 271.544 365.668 272.544 356.668C273.544 347.668 274.044 351.668 275.044 344.168C275.844 338.168 277.044 333.668 277.544 332.168L278.044 324.668V321.168V312.668C278.211 311.835 278.644 308.968 279.044 304.168C279.444 299.368 279.211 289.501 279.044 285.168V280.168V270.168C279.211 270.168 279.244 269.168 278.044 265.168C276.844 261.168 276.544 256.835 276.544 255.168L277.044 250.168V241.168L276.544 235.668V232.668V227.668L277.044 214.668V206.668L278.044 201.668V190.668L280.044 184.168V180.668C279.544 181.835 278.844 182.568 280.044 176.168C281.544 168.168 282.044 170.168 282.544 163.668C284.144 154.868 285.544 146.668 286.044 143.668L287.544 139.668L289.044 133.668V129.168L290.044 127.168L291.044 125.168L292.044 122.668L293.044 119.168C292.878 118.835 292.644 117.568 293.044 115.168C293.444 112.768 294.878 110.501 295.544 109.668L296.044 106.668C295.711 106.335 295.344 104.968 296.544 102.168C297.744 99.368 298.711 98.0013 299.044 97.668L301.544 88.168L303.044 85.668C302.711 85.8346 302.344 85.468 303.544 82.668C304.744 79.868 306.044 77.168 306.544 76.168L308.044 71.668L309.544 68.668L310.544 66.668C309.878 67.168 309.044 67.268 311.044 63.668C313.544 59.168 314.044 58.668 315.544 55.668C316.744 53.268 318.378 50.668 319.044 49.668C319.378 49.3346 320.244 48.068 321.044 45.668C321.844 43.268 323.044 41.0013 323.544 40.168L325.044 37.668C325.378 37.3346 326.444 36.168 328.044 34.168C329.644 32.168 331.044 30.3346 331.544 29.668L334.044 27.168L335.544 25.168L339.544 21.168L343.544 17.168L344.544 15.668C344.878 15.3346 346.544 13.868 350.544 10.668C357.344 5.06797 360.711 2.66797 361.544 2.16797L365.044 0.667969Z" stroke="#D52020" stroke-opacity="0.73"/>
</svg>
