<svg width="460" height="1500" viewBox="0 0 460 1500" fill="none" xmlns="http://www.w3.org/2000/svg">
<path d="M438.5 1229.13L444 1240.13L448 1249.13L452.5 1262.63C453 1260.79 454.4 1259.83 456 1270.63C457.6 1281.43 458.667 1294.46 459 1299.63V1313.13V1325.13V1334.63L452.5 1337.63L444 1334.63L434 1331.63L426.5 1325.13L421.5 1313.13L416 1306.63L413.5 1297.13L411 1284.63L407.5 1275.13L401.5 1270.63L395.5 1262.63L392 1270.63L393.5 1279.13L395.5 1284.63L397 1290.63L399 1302.63L403 1310.13L404 1315.63L405 1321.63L406.5 1328.13L409 1335.63C409 1335.79 409.3 1337.23 410.5 1341.63C411.7 1346.03 413 1351.46 413.5 1353.63L416 1358.63L417 1364.13L418.5 1370.13L420 1376.13L422.5 1383.13L424.5 1389.63L426 1394.63L428 1401.63L430.5 1407.63V1412.13L432 1417.63L434 1424.13L435.5 1430.63V1436.13L437 1442.13V1447.63V1454.13L435.5 1458.13L432 1459.63L428 1461.13L423.5 1461.63L418.5 1461.13L415.5 1459.63L411 1454.13L407 1450.13L403 1442.13L395 1436.13C394.667 1435.13 393 1433.73 389 1436.13C385 1438.53 382 1441.13 381 1442.13L376.5 1447.63V1454.13V1470.13V1475.63V1483.13C376.5 1488.73 375.167 1492.13 374.5 1493.13L368.5 1497.13L364.5 1498.13C364.667 1498.46 363.8 1498.93 359 1498.13C354.2 1497.33 350.667 1495.46 349.5 1494.63L346 1489.13L344.5 1484.63L342.5 1478.63V1474.13L339.5 1463.63L338.5 1455.63L335 1450.13L330.5 1447.63L323 1445.63L318 1447.63L313 1450.13L309.5 1454.13V1463.63V1470.13L307.5 1474.13L306.5 1478.63L305.5 1482.13L304 1486.13L302.5 1489.13L300 1493.13L296 1494.63H290C289.667 1495.46 288.4 1496.33 286 1493.13C283.6 1489.93 281 1487.13 280 1486.13C279.333 1486.46 277.8 1486.13 277 1482.13C276 1477.13 275 1475.13 274 1471.13C273.2 1467.93 273.667 1458.46 274 1454.13C274 1454.29 273.7 1453.73 272.5 1450.13C271.3 1446.53 270.667 1443.63 270.5 1442.63C270.667 1442.63 270.6 1442.13 269 1440.13C267.4 1438.13 265.333 1437.96 264.5 1438.13H261L257.5 1440.13L254.5 1441.63L252.5 1442.63L251 1445.63L249.5 1450.13C250.333 1450.46 251.5 1451.73 249.5 1454.13C247 1457.13 247.5 1458.13 243 1459.63C238.5 1461.13 238.5 1463.63 234 1462.13C226 1458.63 226.5 1459.13 223 1455.63C220.2 1452.83 218.833 1449.13 218.5 1447.63V1442.63V1438.13V1433.63V1429.13V1414.63V1408.13V1403.13V1389.63V1384.13V1376.13V1370.13V1365.13C218.5 1364.63 218.7 1362.83 219.5 1359.63C219.5 1350.63 222.5 1361.13 221 1354.13C219.8 1348.53 220.5 1347.13 221 1347.13V1342.13V1336.63V1330.13C221.5 1329.46 222.2 1327.03 221 1322.63C219.453 1315.47 218.856 1312.55 218.747 1311.83L216 1301.63V1296.63V1270.63C216 1249.13 212 1258.13 214 1236.13C215.6 1218.53 214.667 1199.79 214 1192.63C213.5 1192.13 213.2 1189.63 216 1183.63C221 1175.63 221 1176.63 221 1167.63C221 1152.13 223 1158.13 219.5 1145.13C216.7 1134.73 214.667 1128.79 214 1127.13L209.5 1119.13L207 1111.63L205 1105.13C204.333 1103.96 202.6 1100.63 201 1096.63C197.647 1088.94 196.02 1085.22 195.353 1083.72L195.5 1084.13C194.993 1082.95 194.666 1082.17 195.353 1083.72L193 1077.13L187.5 1070.63L184 1061.63L176 1042.63L170 1031.13L167.5 1023.63L164.5 1018.63L161.5 1013.13C160.833 1012.63 159.2 1010.63 158 1006.63C156.8 1002.63 155.167 999.295 154.5 998.128L152 994.128L149.5 988.628C147 983.128 146.5 981.628 144 977.128C140.8 969.128 137.667 963.795 136.5 962.128C136 961.295 134.4 958.428 132 953.628C129.6 948.828 128 943.628 127.5 941.628C127.5 941.295 126.4 938.628 122 930.628C112 910.628 107.167 900.628 106 898.128L95.5 878.628C96.1667 880.628 96.3 881.328 91.5 868.128C78.5 838.128 89.5 859.628 83.5 845.628C78.7 834.428 74.8333 824.961 73.5 821.628C74.3333 822.295 75 821.328 71 812.128C67 802.928 64.3333 794.628 63.5 791.628C62.1667 791.295 59.5 789.128 59.5 783.128C59.5 775.693 58.9523 772.106 58.3834 770.577C58.3881 771.378 57.8968 770.521 57.5 769.628C57.7394 769.508 58.0647 769.72 58.3834 770.577C58.3802 770.031 58.1477 768.719 57.5 766.128C57.5 752.628 57.5 757.128 56 750.628C54.5 744.128 54 739.628 53.5 732.128C51.5 709.128 53 729.128 52 718.128C50.4 698.528 49 685.628 48.5 681.628C48.3333 681.128 47.8 678.828 47 673.628C45.4 666.028 44 662.128 43.5 661.128C43.5 661.295 43.1 660.328 41.5 655.128C38.3 641.128 38.8333 643.628 39.5 646.628L35 634.628L32.5 629.128C32.3334 628.961 31.7 627.728 30.5 624.128C29 619.628 30 620.128 27 613.128C24.6 607.528 23.3334 602.795 23 601.128L20 593.628C20.8334 594.461 22 594.828 20 589.628C18 584.428 14.1667 578.461 12.5 576.128C12.6667 577.295 12.6 577.728 11 570.128C9.40002 562.528 9.33335 556.628 9.50002 554.628C8.83334 553.461 7.3 549.328 6.5 542.128C5.5 533.128 9 540.628 6.5 527.128C4 513.628 3.5 513.128 2.5 501.628C1.5 490.128 1 489.128 0.5 478.628V456.128V438.628C0.5 426.628 2.5 425.628 2.5 414.128C2.5 402.628 4 403.128 4 395.628C4 389.628 5.33333 383.128 6 380.628V372.628L8.5 365.128C7.83333 365.795 6.9 365.628 8.5 359.628C9.62133 354.582 10.1926 352.601 10.456 352.121C10.4697 351.964 10.4844 351.8 10.5 351.628C14.1 325.228 15 325.628 15 329.128V316.128C16.1667 315.462 18.4 313.328 18 310.128C17.5 306.128 15 306.128 18 301.628C20.4 293.228 21.3333 288.128 21.5 286.628C21 287.462 20.3 287.928 21.5 283.128C22.7 278.328 23.3333 274.128 23.5 272.628V267.128L26.5 261.128V256.128C28.5 240.928 29 244.128 29 247.628L29.5 240.128L30 234.128L30.5 229.628L31 225.628L32.5 221.628L33 218.628V216.128C33 214.528 33.3333 212.795 33.5 212.128L34 208.628L34.5 206.628L35 203.128L35.5 200.128V197.628L36.5 193.628V190.628C36.5 191.128 36.6 191.328 37 188.128C37.4 184.928 37.8333 182.795 38 182.128L39 178.628L39.5 175.128L40 171.628L40.5 168.628L41 165.628V162.128L41.5 158.628L42 155.628L43 152.128L43.5 149.128L44 146.128L44.5 142.628C45 142.628 45.9 141.828 45.5 138.628C45.1 135.428 45.3333 133.295 45.5 132.628L46 130.128L46.5 126.628L47 122.628L47.5 119.128L48 116.128L48.5 113.628L49 110.128L49.5 107.128V104.628L50.5 103.128V101.128V98.1282C50.1667 98.2948 49.7 98.0282 50.5 95.6282C51.3 93.2282 52.1667 91.6282 52.5 91.1282L53 88.1282L53.5 86.6282V84.1282L54.5 82.1282V79.6282V77.1282C54.1667 76.9615 53.7 76.1282 54.5 74.1282C55.5 71.6282 56.5 71.6282 56.5 69.1282V64.1282L57 60.6282C56.8333 60.7948 56.7 60.4282 57.5 57.6282C58.3 54.8282 59.1667 51.4615 59.5 50.1282V47.6282V44.6282V42.1282C59.6667 41.7948 60.1 40.7282 60.5 39.1282C60.9 37.5282 61.3333 35.4615 61.5 34.6282V31.6282L62.5 28.1282L63.5 23.1282V19.6282L65.5 14.1282L66 10.1282L67 7.12817L69 3.62817L71 0.628174L75.5 2.62817L79 4.62817L82 7.12817L84.5 8.62817L86 10.1282L87.5 11.1282L89.5 12.6282L91.5 13.6282L92.5 14.6282L94 15.6282L96.5 16.6282L98 18.1282L100 19.6282L101.5 21.1282L103 23.1282L104.5 24.1282L106.5 26.6282C106.167 26.6282 105.9 26.9282 107.5 28.1282C109.1 29.3282 111.167 31.2948 112 32.1282C111.833 32.1282 111.9 32.5282 113.5 34.1282L118.5 39.1282L120.5 41.6282L123 44.1282L123.5 45.1282L124.5 46.6282L126 49.1282L127 50.6282L128.5 53.1282L130 55.1282L132 57.1282L133.5 59.6282L135 62.1282L136.5 64.6282L137.5 66.6282L139 68.6282C141.4 71.8282 142.333 73.9615 142.5 74.6282L144 77.1282L145.5 79.6282L147 83.1282L148.5 85.6282L150 88.1282L151.5 90.6282L152.5 92.6282L153.5 95.1282L155 97.6282L155.5 99.6282L157.5 103.628L158.5 106.628L160 109.628L161 113.628L162 117.128L163.5 121.628L165 127.128L166.5 131.128L168 135.628L168.5 138.128L169.5 143.628L170 147.128L170.5 151.128L171.5 154.628L172 156.628L172.5 159.628L173 163.628L173.5 168.628L174 172.628V177.128C174.167 177.128 174.6 177.928 175 181.128C175.4 184.328 175.5 188.128 175.5 189.628L176 194.628V198.628V202.628C176.4 208.228 176.5 212.628 176.5 214.128V218.128V222.128V226.628V231.628C176.5 234.828 176.167 237.962 176 239.128L175.5 242.628L174.5 246.128V250.628V255.128L174 259.628V263.628V267.128L173.5 270.628L173 274.128V277.628V281.128V284.128L172 287.128V290.128V293.628L171.5 297.628C171.5 297.462 171.4 297.928 171 301.128C170.6 304.328 170.5 307.795 170.5 309.128V312.128V315.628V319.628V322.628C170.333 322.795 170.1 323.928 170.5 327.128C170.9 330.328 171.333 332.795 171.5 333.628V335.128C171.5 334.962 171.6 335.028 172 336.628C172.5 338.628 172 338.128 173 340.628C173.8 342.628 174.333 344.462 174.5 345.128L175 347.128L175.5 349.128L176 351.628L176.5 353.128L177 355.128C177.4 356.728 178.167 358.795 178.5 359.628L179.5 361.628L180 364.128L180.5 366.128L181.5 369.128L182 372.128L182.5 374.628L183 377.128L183.5 378.628C183.5 378.795 183.6 379.428 184 380.628C184.4 381.828 185.167 383.128 185.5 383.628L186 385.628V387.128L186.837 389.221C186.881 389.295 186.944 389.462 187 389.628L186.837 389.221C186.748 389.073 186.733 389.295 187 390.628C187.4 392.628 187.5 394.128 187.5 394.628V396.628V398.628L188 400.628L189 403.628L190 406.628L191 409.128C190.833 408.795 190.7 408.628 191.5 410.628C192.3 412.628 192.5 414.128 192.5 414.628L193 416.628V419.628L193.5 421.628L194 423.628L195 426.128V428.628C195.4 431.428 195.5 433.128 195.5 433.628V435.128L196 438.628L196.5 441.128L197 444.128L197.5 446.628V448.128V450.628V453.628V456.128V459.128L198 462.628V464.628L198.5 467.128L199.5 469.128L200 472.128V474.128L200.5 476.628V478.128L201 480.128V481.628V484.128V486.128V488.128C201 491.628 201.5 491.628 201.5 493.628C201.5 495.228 201.833 496.295 202 496.628L202.5 498.128V501.628V503.628L203 506.128V508.128V510.128V512.628V515.128L203.5 517.628L204 519.628L204.5 521.628V523.628V530.128V532.628L205 536.128L205.5 537.628V539.628L206 541.628L206.5 543.628V544.628C206.333 544.628 206.1 545.228 206.5 547.628C206.9 550.028 206.667 550.628 206.5 550.628V552.628L207 554.628V557.128C207 556.628 207.1 556.128 207.5 558.128C207.9 560.128 208 561.628 208 562.128C207.833 561.795 207.6 561.628 208 563.628C208.4 565.628 209.5 573.795 210 577.628V587.128C210 600.328 212 607.961 213 610.128L215 617.628L217.5 624.128L220 630.128C220.167 630.628 220.8 632.028 222 633.628C223.2 635.228 223.833 636.295 224 636.628C223.667 636.295 223.4 636.328 225 639.128C226.6 641.928 228.333 645.295 229 646.628L231.5 650.128L232 651.628C231.667 651.628 231.4 652.128 233 654.128C234.6 656.128 235.333 657.628 235.5 658.128L237 660.628C237 660.795 237.2 661.628 238 663.628L240 668.628L241.5 671.128L243 674.628L244 677.128L245.5 680.628L246.5 683.128C246.833 683.795 247.9 686.428 249.5 691.628C251.9 698.828 251.833 697.628 251.5 696.128L252.5 700.128L254 703.628L254.5 705.628C254.5 705.128 254.8 705.328 256 710.128C257.2 714.928 258.167 717.795 258.5 718.628L260 722.628C259.667 722.628 259.3 723.328 260.5 726.128C261.7 728.928 262.333 731.628 262.5 732.628C262.5 732.961 262.7 734.028 263.5 735.628C264.3 737.228 265.167 739.628 265.5 740.628L266 743.128L266.5 747.128L267 749.628L268 753.128L268.5 755.628L269.5 758.628L270.5 761.128L271.5 764.128L272.5 767.128L273 770.128C272.833 769.795 272.8 769.928 274 773.128C275.5 777.128 275 777.128 276 780.628C278 786.628 278 784.628 278.5 789.128C278.5 795.128 278.833 798.961 279 800.128L280 802.628L280.5 807.128L282 811.128V815.128C282 814.961 282.2 815.328 283 818.128C283.8 820.928 284 823.628 284 824.628V828.128C283.667 828.461 283.2 829.528 284 831.128C285 833.128 285 831.628 285.5 835.128C285.9 839.928 286.333 842.795 286.5 843.628V847.628C286.5 851.628 287.5 854.295 288 855.128C288 855.295 288.1 856.328 288.5 859.128C288.9 861.928 289 865.295 289 866.628C289.167 866.961 289.6 868.028 290 869.628C290.4 871.228 290.167 872.628 290 873.128C289.833 872.795 289.7 872.628 290.5 874.628C291.5 877.128 291.5 875.128 292 879.128C292.4 882.328 292.167 884.795 292 885.628L292.5 888.628L293.5 891.628C293.333 891.795 293.2 892.628 294 894.628C294.8 898.628 295.333 901.628 295.5 902.628C295.333 902.795 295.1 903.628 295.5 905.628C296 908.128 295.5 907.628 296.5 910.628C297.5 913.628 296.5 911.628 297 914.628C297.5 917.628 297.5 918.628 298 920.628C298.5 922.628 298.5 922.628 299 925.628C299.4 928.028 300.167 929.295 300.5 929.628V931.628C300.5 934.028 300.833 935.961 301 936.628C300.833 936.295 300.7 936.228 301.5 938.628C302.3 941.028 302.833 943.961 303 945.128C303 945.461 303.1 946.728 303.5 949.128C304 952.128 304 953.128 304.5 955.628C306.1 959.628 306.5 961.628 306.5 962.128L307.5 965.128C308.3 967.528 308.833 970.461 309 971.628C309 971.128 309.2 970.928 310 974.128C310.8 977.328 311.667 979.795 312 980.628L312.5 984.128C312 983.795 311.4 984.028 313 987.628C313.951 990.481 314.412 991.939 314.598 992.595C314.966 992.526 315.635 992.941 316 995.128C317.2 999.528 318.167 1002.29 318.5 1003.13V1006.13L319.5 1008.63L320.5 1010.63L321.5 1013.13V1015.63C321.333 1015.79 321.2 1016.53 322 1018.13C323.2 1021.33 324.167 1023.46 324.5 1024.13L325 1028.63L325.5 1031.13L327.5 1034.63L328 1037.13C327.833 1037.79 327.7 1039.63 328.5 1041.63C329.3 1043.63 330.5 1046.13 331 1047.13C331.167 1047.96 331.6 1049.93 332 1051.13C332.8 1054.33 332.667 1057.13 332.5 1058.13C332.167 1057.46 331.7 1056.83 332.5 1059.63C333.5 1063.13 333 1060.13 334 1065.13C335.6 1071.13 336.333 1073.96 336.5 1074.63L337 1077.63L337.5 1080.63V1083.13L338.5 1085.13C340 1088.13 340 1088.13 341 1090.63C343 1096.23 343.833 1099.29 344 1100.13L344.5 1102.63L345.5 1106.13C345.667 1105.79 346 1105.63 346 1107.63C346 1109.63 346.667 1111.79 347 1112.63L348 1116.63C348.167 1116.46 348.5 1116.83 348.5 1119.63C348.5 1122.43 348.833 1124.13 349 1124.63V1128.63L350 1131.63C350.8 1134.03 352.667 1137.96 353.5 1139.63L357 1144.13C356.5 1143.96 356.3 1144.33 359.5 1147.13C362.7 1149.93 366.5 1153.63 368 1155.13L374 1159.63L379 1163.13L384 1167.13L389.5 1171.63L397.5 1177.63L401.5 1182.63L405.5 1186.13L411 1190.13L416 1196.13L421.5 1201.13C421.5 1200.79 422.2 1201.03 425 1204.63C427.8 1208.23 430.5 1212.46 431.5 1214.13L434.429 1219.63L438.5 1229.13Z" fill="#FA1A1A" fill-opacity="0.3"/>
<path d="M434 1218.63L434.429 1219.63M434.429 1219.63L438.5 1229.13L444 1240.13L448 1249.13L452.5 1262.63C453 1260.79 454.4 1259.83 456 1270.63C457.6 1281.43 458.667 1294.46 459 1299.63V1313.13V1325.13V1334.63L452.5 1337.63L444 1334.63L434 1331.63L426.5 1325.13L421.5 1313.13L416 1306.63L413.5 1297.13L411 1284.63L407.5 1275.13L401.5 1270.63L395.5 1262.63L392 1270.63L393.5 1279.13L395.5 1284.63L397 1290.63L399 1302.63L403 1310.13L404 1315.63L405 1321.63L406.5 1328.13L409 1335.63C409 1335.79 409.3 1337.23 410.5 1341.63C411.7 1346.03 413 1351.46 413.5 1353.63L416 1358.63L417 1364.13L418.5 1370.13L420 1376.13L422.5 1383.13L424.5 1389.63L426 1394.63L428 1401.63L430.5 1407.63V1412.13L432 1417.63L434 1424.13L435.5 1430.63V1436.13L437 1442.13V1447.63V1454.13L435.5 1458.13L432 1459.63L428 1461.13L423.5 1461.63L418.5 1461.13L415.5 1459.63L411 1454.13L407 1450.13L403 1442.13L395 1436.13C394.667 1435.13 393 1433.73 389 1436.13C385 1438.53 382 1441.13 381 1442.13L376.5 1447.63C376.5 1446.63 376.5 1446.53 376.5 1454.13C376.5 1461.73 376.5 1467.96 376.5 1470.13V1475.63C376.5 1475.79 376.5 1477.53 376.5 1483.13C376.5 1488.73 375.167 1492.13 374.5 1493.13L368.5 1497.13L364.5 1498.13C364.667 1498.46 363.8 1498.93 359 1498.13C354.2 1497.33 350.667 1495.46 349.5 1494.63L346 1489.13L344.5 1484.63L342.5 1478.63V1474.13L339.5 1463.63L338.5 1455.63L335 1450.13L330.5 1447.63L323 1445.63L318 1447.63L313 1450.13L309.5 1454.13V1463.63V1470.13L307.5 1474.13L306.5 1478.63L305.5 1482.13L304 1486.13L302.5 1489.13L300 1493.13L296 1494.63H290C289.667 1495.46 288.4 1496.33 286 1493.13C283.6 1489.93 281 1487.13 280 1486.13C279.333 1486.46 277.8 1486.13 277 1482.13C276 1477.13 275 1475.13 274 1471.13C273.2 1467.93 273.667 1458.46 274 1454.13C274 1454.29 273.7 1453.73 272.5 1450.13C271.3 1446.53 270.667 1443.63 270.5 1442.63C270.667 1442.63 270.6 1442.13 269 1440.13C267.4 1438.13 265.333 1437.96 264.5 1438.13H261L257.5 1440.13L254.5 1441.63L252.5 1442.63L251 1445.63L249.5 1450.13C250.333 1450.46 251.5 1451.73 249.5 1454.13C247 1457.13 247.5 1458.13 243 1459.63C238.5 1461.13 238.5 1463.63 234 1462.13C226 1458.63 226.5 1459.13 223 1455.63C220.2 1452.83 218.833 1449.13 218.5 1447.63V1442.63V1438.13V1433.63C218.5 1433.96 218.5 1433.53 218.5 1429.13C218.5 1421.53 218.5 1416.29 218.5 1414.63V1408.13C218.5 1408.13 218.5 1407.13 218.5 1403.13C218.5 1395.93 218.5 1391.13 218.5 1389.63C218.5 1389.13 218.5 1387.33 218.5 1384.13C218.5 1380.93 218.5 1377.46 218.5 1376.13V1370.13V1365.13C218.5 1364.63 218.7 1362.83 219.5 1359.63C219.5 1350.63 222.5 1361.13 221 1354.13C219.8 1348.53 220.5 1347.13 221 1347.13V1342.13V1336.63V1330.13C221.5 1329.46 222.2 1327.03 221 1322.63C217.8 1307.83 218.667 1311.13 219.5 1314.63L216 1301.63V1296.63C216 1295.13 216 1287.83 216 1270.63C216 1249.13 212 1258.13 214 1236.13C215.6 1218.53 214.667 1199.79 214 1192.63C213.5 1192.13 213.2 1189.63 216 1183.63C221 1175.63 221 1176.63 221 1167.63C221 1152.13 223 1158.13 219.5 1145.13C216.7 1134.73 214.667 1128.79 214 1127.13L209.5 1119.13L207 1111.63L205 1105.13C204.333 1103.96 202.6 1100.63 201 1096.63C194.2 1081.03 194.5 1081.79 195.5 1084.13L193 1077.13L187.5 1070.63L184 1061.63L176 1042.63L170 1031.13L167.5 1023.63L164.5 1018.63L161.5 1013.13C160.833 1012.63 159.2 1010.63 158 1006.63C156.8 1002.63 155.167 999.295 154.5 998.128L152 994.128C152 994.128 151.5 993.028 149.5 988.628C147 983.128 146.5 981.628 144 977.128C140.8 969.128 137.667 963.795 136.5 962.128C136 961.295 134.4 958.428 132 953.628C129.6 948.828 128 943.628 127.5 941.628C127.5 941.295 126.4 938.628 122 930.628C112 910.628 107.167 900.628 106 898.128L95.5 878.628C96.1667 880.628 96.3 881.328 91.5 868.128C78.5 838.128 89.5 859.628 83.5 845.628C78.7 834.428 74.8333 824.962 73.5 821.628C74.3333 822.295 75 821.328 71 812.128C67 802.928 64.3333 794.628 63.5 791.628C62.1667 791.295 59.5 789.128 59.5 783.128C59.5 771.528 58.1667 769.295 57.5 769.628C58.1667 771.128 59.1 772.528 57.5 766.128C57.5 752.628 57.5 757.128 56 750.628C54.5 744.128 54 739.628 53.5 732.128C51.5 709.128 53 729.128 52 718.128C50.4 698.528 49 685.628 48.5 681.628C48.3333 681.128 47.8 678.828 47 673.628C45.4 666.028 44 662.128 43.5 661.128C43.5 661.295 43.1 660.328 41.5 655.128C38.3 641.128 38.8333 643.628 39.5 646.628L35 634.628L32.5 629.128C32.3334 628.962 31.7 627.728 30.5 624.128C29 619.628 30 620.128 27 613.128C24.6 607.528 23.3334 602.795 23 601.128L20 593.628C20.8334 594.462 22 594.828 20 589.628C18 584.428 14.1667 578.462 12.5 576.128C12.6667 577.295 12.6 577.728 11 570.128C9.40002 562.528 9.33335 556.628 9.50002 554.628C8.83334 553.462 7.3 549.328 6.5 542.128C5.5 533.128 9 540.628 6.5 527.128C4 513.628 3.5 513.128 2.5 501.628C1.5 490.128 1 489.128 0.5 478.628C0.5 465.428 0.5 458.128 0.5 456.128C0.5 454.295 0.5 448.228 0.5 438.628C0.5 426.628 2.5 425.628 2.5 414.128C2.5 402.628 4 403.128 4 395.628C4 389.628 5.33333 383.128 6 380.628V372.628L8.5 365.128C7.83333 365.795 6.9 365.628 8.5 359.628C12.5 341.628 9.5 362.628 10.5 351.628C14.1 325.228 15 325.628 15 329.128V316.128C16.1667 315.462 18.4 313.328 18 310.128C17.5 306.128 15 306.128 18 301.628C20.4 293.228 21.3333 288.128 21.5 286.628C21 287.462 20.3 287.928 21.5 283.128C22.7 278.328 23.3333 274.128 23.5 272.628V267.128L26.5 261.128C26.5 261.295 26.5 260.528 26.5 256.128C28.5 240.928 29 244.128 29 247.628L29.5 240.128L30 234.128L30.5 229.628L31 225.628L32.5 221.628L33 218.628C33 218.462 33 217.728 33 216.128C33 214.528 33.3333 212.795 33.5 212.128L34 208.628L34.5 206.628L35 203.128L35.5 200.128V197.628L36.5 193.628V190.628C36.5 191.128 36.6 191.328 37 188.128C37.4 184.928 37.8333 182.795 38 182.128L39 178.628L39.5 175.128L40 171.628L40.5 168.628L41 165.628V162.128L41.5 158.628L42 155.628L43 152.128L43.5 149.128L44 146.128L44.5 142.628C45 142.628 45.9 141.828 45.5 138.628C45.1 135.428 45.3333 133.295 45.5 132.628L46 130.128L46.5 126.628L47 122.628L47.5 119.128L48 116.128L48.5 113.628L49 110.128L49.5 107.128V104.628L50.5 103.128V101.128V98.1282C50.1667 98.2948 49.7 98.0282 50.5 95.6282C51.3 93.2282 52.1667 91.6282 52.5 91.1282L53 88.1282L53.5 86.6282V84.1282L54.5 82.1282V79.6282V77.1282C54.1667 76.9615 53.7 76.1282 54.5 74.1282C55.5 71.6282 56.5 71.6282 56.5 69.1282C56.5 67.1282 56.5 64.9615 56.5 64.1282L57 60.6282C56.8333 60.7948 56.7 60.4282 57.5 57.6282C58.3 54.8282 59.1667 51.4615 59.5 50.1282V47.6282V44.6282V42.1282C59.6667 41.7948 60.1 40.7282 60.5 39.1282C60.9 37.5282 61.3333 35.4615 61.5 34.6282V31.6282L62.5 28.1282L63.5 23.1282V19.6282L65.5 14.1282L66 10.1282L67 7.12817L69 3.62817L71 0.628174L75.5 2.62817L79 4.62817L82 7.12817L84.5 8.62817L86 10.1282L87.5 11.1282L89.5 12.6282L91.5 13.6282L92.5 14.6282L94 15.6282L96.5 16.6282L98 18.1282L100 19.6282L101.5 21.1282L103 23.1282L104.5 24.1282L106.5 26.6282C106.167 26.6282 105.9 26.9282 107.5 28.1282C109.1 29.3282 111.167 31.2948 112 32.1282C111.833 32.1282 111.9 32.5282 113.5 34.1282C115.1 35.7282 117.5 38.1282 118.5 39.1282L120.5 41.6282L123 44.1282L123.5 45.1282L124.5 46.6282L126 49.1282L127 50.6282L128.5 53.1282L130 55.1282L132 57.1282L133.5 59.6282L135 62.1282L136.5 64.6282L137.5 66.6282C137.5 66.6282 137.8 67.0282 139 68.6282C141.4 71.8282 142.333 73.9615 142.5 74.6282L144 77.1282L145.5 79.6282L147 83.1282L148.5 85.6282L150 88.1282L151.5 90.6282L152.5 92.6282L153.5 95.1282L155 97.6282L155.5 99.6282L157.5 103.628L158.5 106.628L160 109.628L161 113.628L162 117.128L163.5 121.628L165 127.128L166.5 131.128L168 135.628L168.5 138.128L169.5 143.628L170 147.128L170.5 151.128L171.5 154.628L172 156.628L172.5 159.628L173 163.628L173.5 168.628L174 172.628V177.128C174.167 177.128 174.6 177.928 175 181.128C175.4 184.328 175.5 188.128 175.5 189.628L176 194.628V198.628C176 198.962 176 200.228 176 202.628C176.4 208.228 176.5 212.628 176.5 214.128V218.128V222.128V226.628C176.5 226.962 176.5 228.428 176.5 231.628C176.5 234.828 176.167 237.962 176 239.128L175.5 242.628L174.5 246.128V250.628V255.128L174 259.628V263.628V267.128L173.5 270.628L173 274.128V277.628V281.128V284.128L172 287.128V290.128V293.628L171.5 297.628C171.5 297.462 171.4 297.928 171 301.128C170.6 304.328 170.5 307.795 170.5 309.128V312.128V315.628V319.628V322.628C170.333 322.795 170.1 323.928 170.5 327.128C170.9 330.328 171.333 332.795 171.5 333.628V335.128C171.5 334.962 171.6 335.028 172 336.628C172.5 338.628 172 338.128 173 340.628C173.8 342.628 174.333 344.462 174.5 345.128L175 347.128L175.5 349.128L176 351.628L176.5 353.128C176.5 353.128 176.6 353.528 177 355.128C177.4 356.728 178.167 358.795 178.5 359.628L179.5 361.628L180 364.128L180.5 366.128L181.5 369.128L182 372.128L182.5 374.628L183 377.128L183.5 378.628C183.5 378.795 183.6 379.428 184 380.628C184.4 381.828 185.167 383.128 185.5 383.628L186 385.628V387.128L187 389.628C186.833 389.128 186.6 388.628 187 390.628C187.4 392.628 187.5 394.128 187.5 394.628V396.628V398.628L188 400.628L189 403.628L190 406.628L191 409.128C190.833 408.795 190.7 408.628 191.5 410.628C192.3 412.628 192.5 414.128 192.5 414.628L193 416.628V419.628L193.5 421.628L194 423.628L195 426.128C195 426.295 195 427.028 195 428.628C195.4 431.428 195.5 433.128 195.5 433.628V435.128L196 438.628L196.5 441.128L197 444.128L197.5 446.628V448.128V450.628V453.628V456.128V459.128L198 462.628V464.628L198.5 467.128L199.5 469.128L200 472.128V474.128L200.5 476.628V478.128L201 480.128V481.628V484.128V486.128C201 485.628 201 485.328 201 488.128C201 491.628 201.5 491.628 201.5 493.628C201.5 495.228 201.833 496.295 202 496.628L202.5 498.128V501.628V503.628L203 506.128V508.128V510.128V512.628V515.128L203.5 517.628L204 519.628L204.5 521.628C204.5 521.462 204.5 521.628 204.5 523.628C204.5 525.628 204.5 528.795 204.5 530.128V532.628L205 536.128L205.5 537.628V539.628L206 541.628L206.5 543.628V544.628C206.333 544.628 206.1 545.228 206.5 547.628C206.9 550.028 206.667 550.628 206.5 550.628V552.628L207 554.628V557.128C207 556.628 207.1 556.128 207.5 558.128C207.9 560.128 208 561.628 208 562.128C207.833 561.795 207.6 561.628 208 563.628C208.4 565.628 209.5 573.795 210 577.628C210 575.295 210 573.928 210 587.128C210 600.328 212 607.962 213 610.128L215 617.628L217.5 624.128L220 630.128C220.167 630.628 220.8 632.028 222 633.628C223.2 635.228 223.833 636.295 224 636.628C223.667 636.295 223.4 636.328 225 639.128C226.6 641.928 228.333 645.295 229 646.628L231.5 650.128L232 651.628C231.667 651.628 231.4 652.128 233 654.128C234.6 656.128 235.333 657.628 235.5 658.128L237 660.628C237 660.795 237.2 661.628 238 663.628C238.8 665.628 239.667 667.795 240 668.628L241.5 671.128L243 674.628L244 677.128L245.5 680.628L246.5 683.128C246.833 683.795 247.9 686.428 249.5 691.628C251.9 698.828 251.833 697.628 251.5 696.128L252.5 700.128L254 703.628L254.5 705.628C254.5 705.128 254.8 705.328 256 710.128C257.2 714.928 258.167 717.795 258.5 718.628L260 722.628C259.667 722.628 259.3 723.328 260.5 726.128C261.7 728.928 262.333 731.628 262.5 732.628C262.5 732.962 262.7 734.028 263.5 735.628C264.3 737.228 265.167 739.628 265.5 740.628L266 743.128L266.5 747.128L267 749.628L268 753.128L268.5 755.628L269.5 758.628L270.5 761.128L271.5 764.128L272.5 767.128L273 770.128C272.833 769.795 272.8 769.928 274 773.128C275.5 777.128 275 777.128 276 780.628C278 786.628 278 784.628 278.5 789.128C278.5 795.128 278.833 798.962 279 800.128L280 802.628L280.5 807.128L282 811.128V815.128C282 814.962 282.2 815.328 283 818.128C283.8 820.928 284 823.628 284 824.628V828.128C283.667 828.462 283.2 829.528 284 831.128C285 833.128 285 831.628 285.5 835.128C285.9 839.928 286.333 842.795 286.5 843.628C286.5 843.295 286.5 843.628 286.5 847.628C286.5 851.628 287.5 854.295 288 855.128C288 855.295 288.1 856.328 288.5 859.128C288.9 861.928 289 865.295 289 866.628C289.167 866.962 289.6 868.028 290 869.628C290.4 871.228 290.167 872.628 290 873.128C289.833 872.795 289.7 872.628 290.5 874.628C291.5 877.128 291.5 875.128 292 879.128C292.4 882.328 292.167 884.795 292 885.628L292.5 888.628L293.5 891.628C293.333 891.795 293.2 892.628 294 894.628C294.8 898.628 295.333 901.628 295.5 902.628C295.333 902.795 295.1 903.628 295.5 905.628C296 908.128 295.5 907.628 296.5 910.628C297.5 913.628 296.5 911.628 297 914.628C297.5 917.628 297.5 918.628 298 920.628C298.5 922.628 298.5 922.628 299 925.628C299.4 928.028 300.167 929.295 300.5 929.628C300.5 929.295 300.5 929.228 300.5 931.628C300.5 934.028 300.833 935.962 301 936.628C300.833 936.295 300.7 936.228 301.5 938.628C302.3 941.028 302.833 943.962 303 945.128C303 945.462 303.1 946.728 303.5 949.128C304 952.128 304 953.128 304.5 955.628C306.1 959.628 306.5 961.628 306.5 962.128C306.5 962.128 306.7 962.728 307.5 965.128C308.3 967.528 308.833 970.462 309 971.628C309 971.128 309.2 970.928 310 974.128C310.8 977.328 311.667 979.795 312 980.628L312.5 984.128C312 983.795 311.4 984.028 313 987.628C315 993.628 314.833 993.462 314.5 992.628C314.833 992.462 315.6 992.728 316 995.128C317.2 999.528 318.167 1002.29 318.5 1003.13V1006.13L319.5 1008.63L320.5 1010.63L321.5 1013.13V1015.63C321.333 1015.79 321.2 1016.53 322 1018.13C323.2 1021.33 324.167 1023.46 324.5 1024.13L325 1028.63L325.5 1031.13L327.5 1034.63L328 1037.13C327.833 1037.79 327.7 1039.63 328.5 1041.63C329.3 1043.63 330.5 1046.13 331 1047.13C331.167 1047.96 331.6 1049.93 332 1051.13C332.8 1054.33 332.667 1057.13 332.5 1058.13C332.167 1057.46 331.7 1056.83 332.5 1059.63C333.5 1063.13 333 1060.13 334 1065.13C335.6 1071.13 336.333 1073.96 336.5 1074.63L337 1077.63L337.5 1080.63V1083.13C337.333 1082.79 337.3 1082.73 338.5 1085.13C340 1088.13 340 1088.13 341 1090.63C343 1096.23 343.833 1099.29 344 1100.13L344.5 1102.63L345.5 1106.13C345.667 1105.79 346 1105.63 346 1107.63C346 1109.63 346.667 1111.79 347 1112.63L348 1116.63C348.167 1116.46 348.5 1116.83 348.5 1119.63C348.5 1122.43 348.833 1124.13 349 1124.63V1128.63C349 1128.63 349.2 1129.23 350 1131.63C350.8 1134.03 352.667 1137.96 353.5 1139.63L357 1144.13C356.5 1143.96 356.3 1144.33 359.5 1147.13C362.7 1149.93 366.5 1153.63 368 1155.13L374 1159.63L379 1163.13L384 1167.13L389.5 1171.63L397.5 1177.63L401.5 1182.63L405.5 1186.13L411 1190.13L416 1196.13L421.5 1201.13C421.5 1200.79 422.2 1201.03 425 1204.63C427.8 1208.23 430.5 1212.46 431.5 1214.13L434.429 1219.63Z" stroke="black"/>
<path d="M434 1218.63L434.429 1219.63M434.429 1219.63L438.5 1229.13L444 1240.13L448 1249.13L452.5 1262.63C453 1260.79 454.4 1259.83 456 1270.63C457.6 1281.43 458.667 1294.46 459 1299.63V1313.13V1325.13V1334.63L452.5 1337.63L444 1334.63L434 1331.63L426.5 1325.13L421.5 1313.13L416 1306.63L413.5 1297.13L411 1284.63L407.5 1275.13L401.5 1270.63L395.5 1262.63L392 1270.63L393.5 1279.13L395.5 1284.63L397 1290.63L399 1302.63L403 1310.13L404 1315.63L405 1321.63L406.5 1328.13L409 1335.63C409 1335.79 409.3 1337.23 410.5 1341.63C411.7 1346.03 413 1351.46 413.5 1353.63L416 1358.63L417 1364.13L418.5 1370.13L420 1376.13L422.5 1383.13L424.5 1389.63L426 1394.63L428 1401.63L430.5 1407.63V1412.13L432 1417.63L434 1424.13L435.5 1430.63V1436.13L437 1442.13V1447.63V1454.13L435.5 1458.13L432 1459.63L428 1461.13L423.5 1461.63L418.5 1461.13L415.5 1459.63L411 1454.13L407 1450.13L403 1442.13L395 1436.13C394.667 1435.13 393 1433.73 389 1436.13C385 1438.53 382 1441.13 381 1442.13L376.5 1447.63C376.5 1446.63 376.5 1446.53 376.5 1454.13C376.5 1461.73 376.5 1467.96 376.5 1470.13V1475.63C376.5 1475.79 376.5 1477.53 376.5 1483.13C376.5 1488.73 375.167 1492.13 374.5 1493.13L368.5 1497.13L364.5 1498.13C364.667 1498.46 363.8 1498.93 359 1498.13C354.2 1497.33 350.667 1495.46 349.5 1494.63L346 1489.13L344.5 1484.63L342.5 1478.63V1474.13L339.5 1463.63L338.5 1455.63L335 1450.13L330.5 1447.63L323 1445.63L318 1447.63L313 1450.13L309.5 1454.13V1463.63V1470.13L307.5 1474.13L306.5 1478.63L305.5 1482.13L304 1486.13L302.5 1489.13L300 1493.13L296 1494.63H290C289.667 1495.46 288.4 1496.33 286 1493.13C283.6 1489.93 281 1487.13 280 1486.13C279.333 1486.46 277.8 1486.13 277 1482.13C276 1477.13 275 1475.13 274 1471.13C273.2 1467.93 273.667 1458.46 274 1454.13C274 1454.29 273.7 1453.73 272.5 1450.13C271.3 1446.53 270.667 1443.63 270.5 1442.63C270.667 1442.63 270.6 1442.13 269 1440.13C267.4 1438.13 265.333 1437.96 264.5 1438.13H261L257.5 1440.13L254.5 1441.63L252.5 1442.63L251 1445.63L249.5 1450.13C250.333 1450.46 251.5 1451.73 249.5 1454.13C247 1457.13 247.5 1458.13 243 1459.63C238.5 1461.13 238.5 1463.63 234 1462.13C226 1458.63 226.5 1459.13 223 1455.63C220.2 1452.83 218.833 1449.13 218.5 1447.63V1442.63V1438.13V1433.63C218.5 1433.96 218.5 1433.53 218.5 1429.13C218.5 1421.53 218.5 1416.29 218.5 1414.63V1408.13C218.5 1408.13 218.5 1407.13 218.5 1403.13C218.5 1395.93 218.5 1391.13 218.5 1389.63C218.5 1389.13 218.5 1387.33 218.5 1384.13C218.5 1380.93 218.5 1377.46 218.5 1376.13V1370.13V1365.13C218.5 1364.63 218.7 1362.83 219.5 1359.63C219.5 1350.63 222.5 1361.13 221 1354.13C219.8 1348.53 220.5 1347.13 221 1347.13V1342.13V1336.63V1330.13C221.5 1329.46 222.2 1327.03 221 1322.63C217.8 1307.83 218.667 1311.13 219.5 1314.63L216 1301.63V1296.63C216 1295.13 216 1287.83 216 1270.63C216 1249.13 212 1258.13 214 1236.13C215.6 1218.53 214.667 1199.79 214 1192.63C213.5 1192.13 213.2 1189.63 216 1183.63C221 1175.63 221 1176.63 221 1167.63C221 1152.13 223 1158.13 219.5 1145.13C216.7 1134.73 214.667 1128.79 214 1127.13L209.5 1119.13L207 1111.63L205 1105.13C204.333 1103.96 202.6 1100.63 201 1096.63C194.2 1081.03 194.5 1081.79 195.5 1084.13L193 1077.13L187.5 1070.63L184 1061.63L176 1042.63L170 1031.13L167.5 1023.63L164.5 1018.63L161.5 1013.13C160.833 1012.63 159.2 1010.63 158 1006.63C156.8 1002.63 155.167 999.295 154.5 998.128L152 994.128C152 994.128 151.5 993.028 149.5 988.628C147 983.128 146.5 981.628 144 977.128C140.8 969.128 137.667 963.795 136.5 962.128C136 961.295 134.4 958.428 132 953.628C129.6 948.828 128 943.628 127.5 941.628C127.5 941.295 126.4 938.628 122 930.628C112 910.628 107.167 900.628 106 898.128L95.5 878.628C96.1667 880.628 96.3 881.328 91.5 868.128C78.5 838.128 89.5 859.628 83.5 845.628C78.7 834.428 74.8333 824.962 73.5 821.628C74.3333 822.295 75 821.328 71 812.128C67 802.928 64.3333 794.628 63.5 791.628C62.1667 791.295 59.5 789.128 59.5 783.128C59.5 771.528 58.1667 769.295 57.5 769.628C58.1667 771.128 59.1 772.528 57.5 766.128C57.5 752.628 57.5 757.128 56 750.628C54.5 744.128 54 739.628 53.5 732.128C51.5 709.128 53 729.128 52 718.128C50.4 698.528 49 685.628 48.5 681.628C48.3333 681.128 47.8 678.828 47 673.628C45.4 666.028 44 662.128 43.5 661.128C43.5 661.295 43.1 660.328 41.5 655.128C38.3 641.128 38.8333 643.628 39.5 646.628L35 634.628L32.5 629.128C32.3334 628.962 31.7 627.728 30.5 624.128C29 619.628 30 620.128 27 613.128C24.6 607.528 23.3334 602.795 23 601.128L20 593.628C20.8334 594.462 22 594.828 20 589.628C18 584.428 14.1667 578.462 12.5 576.128C12.6667 577.295 12.6 577.728 11 570.128C9.40002 562.528 9.33335 556.628 9.50002 554.628C8.83334 553.462 7.3 549.328 6.5 542.128C5.5 533.128 9 540.628 6.5 527.128C4 513.628 3.5 513.128 2.5 501.628C1.5 490.128 1 489.128 0.5 478.628C0.5 465.428 0.5 458.128 0.5 456.128C0.5 454.295 0.5 448.228 0.5 438.628C0.5 426.628 2.5 425.628 2.5 414.128C2.5 402.628 4 403.128 4 395.628C4 389.628 5.33333 383.128 6 380.628V372.628L8.5 365.128C7.83333 365.795 6.9 365.628 8.5 359.628C12.5 341.628 9.5 362.628 10.5 351.628C14.1 325.228 15 325.628 15 329.128V316.128C16.1667 315.462 18.4 313.328 18 310.128C17.5 306.128 15 306.128 18 301.628C20.4 293.228 21.3333 288.128 21.5 286.628C21 287.462 20.3 287.928 21.5 283.128C22.7 278.328 23.3333 274.128 23.5 272.628V267.128L26.5 261.128C26.5 261.295 26.5 260.528 26.5 256.128C28.5 240.928 29 244.128 29 247.628L29.5 240.128L30 234.128L30.5 229.628L31 225.628L32.5 221.628L33 218.628C33 218.462 33 217.728 33 216.128C33 214.528 33.3333 212.795 33.5 212.128L34 208.628L34.5 206.628L35 203.128L35.5 200.128V197.628L36.5 193.628V190.628C36.5 191.128 36.6 191.328 37 188.128C37.4 184.928 37.8333 182.795 38 182.128L39 178.628L39.5 175.128L40 171.628L40.5 168.628L41 165.628V162.128L41.5 158.628L42 155.628L43 152.128L43.5 149.128L44 146.128L44.5 142.628C45 142.628 45.9 141.828 45.5 138.628C45.1 135.428 45.3333 133.295 45.5 132.628L46 130.128L46.5 126.628L47 122.628L47.5 119.128L48 116.128L48.5 113.628L49 110.128L49.5 107.128V104.628L50.5 103.128V101.128V98.1282C50.1667 98.2948 49.7 98.0282 50.5 95.6282C51.3 93.2282 52.1667 91.6282 52.5 91.1282L53 88.1282L53.5 86.6282V84.1282L54.5 82.1282V79.6282V77.1282C54.1667 76.9615 53.7 76.1282 54.5 74.1282C55.5 71.6282 56.5 71.6282 56.5 69.1282C56.5 67.1282 56.5 64.9615 56.5 64.1282L57 60.6282C56.8333 60.7948 56.7 60.4282 57.5 57.6282C58.3 54.8282 59.1667 51.4615 59.5 50.1282V47.6282V44.6282V42.1282C59.6667 41.7948 60.1 40.7282 60.5 39.1282C60.9 37.5282 61.3333 35.4615 61.5 34.6282V31.6282L62.5 28.1282L63.5 23.1282V19.6282L65.5 14.1282L66 10.1282L67 7.12817L69 3.62817L71 0.628174L75.5 2.62817L79 4.62817L82 7.12817L84.5 8.62817L86 10.1282L87.5 11.1282L89.5 12.6282L91.5 13.6282L92.5 14.6282L94 15.6282L96.5 16.6282L98 18.1282L100 19.6282L101.5 21.1282L103 23.1282L104.5 24.1282L106.5 26.6282C106.167 26.6282 105.9 26.9282 107.5 28.1282C109.1 29.3282 111.167 31.2948 112 32.1282C111.833 32.1282 111.9 32.5282 113.5 34.1282C115.1 35.7282 117.5 38.1282 118.5 39.1282L120.5 41.6282L123 44.1282L123.5 45.1282L124.5 46.6282L126 49.1282L127 50.6282L128.5 53.1282L130 55.1282L132 57.1282L133.5 59.6282L135 62.1282L136.5 64.6282L137.5 66.6282C137.5 66.6282 137.8 67.0282 139 68.6282C141.4 71.8282 142.333 73.9615 142.5 74.6282L144 77.1282L145.5 79.6282L147 83.1282L148.5 85.6282L150 88.1282L151.5 90.6282L152.5 92.6282L153.5 95.1282L155 97.6282L155.5 99.6282L157.5 103.628L158.5 106.628L160 109.628L161 113.628L162 117.128L163.5 121.628L165 127.128L166.5 131.128L168 135.628L168.5 138.128L169.5 143.628L170 147.128L170.5 151.128L171.5 154.628L172 156.628L172.5 159.628L173 163.628L173.5 168.628L174 172.628V177.128C174.167 177.128 174.6 177.928 175 181.128C175.4 184.328 175.5 188.128 175.5 189.628L176 194.628V198.628C176 198.962 176 200.228 176 202.628C176.4 208.228 176.5 212.628 176.5 214.128V218.128V222.128V226.628C176.5 226.962 176.5 228.428 176.5 231.628C176.5 234.828 176.167 237.962 176 239.128L175.5 242.628L174.5 246.128V250.628V255.128L174 259.628V263.628V267.128L173.5 270.628L173 274.128V277.628V281.128V284.128L172 287.128V290.128V293.628L171.5 297.628C171.5 297.462 171.4 297.928 171 301.128C170.6 304.328 170.5 307.795 170.5 309.128V312.128V315.628V319.628V322.628C170.333 322.795 170.1 323.928 170.5 327.128C170.9 330.328 171.333 332.795 171.5 333.628V335.128C171.5 334.962 171.6 335.028 172 336.628C172.5 338.628 172 338.128 173 340.628C173.8 342.628 174.333 344.462 174.5 345.128L175 347.128L175.5 349.128L176 351.628L176.5 353.128C176.5 353.128 176.6 353.528 177 355.128C177.4 356.728 178.167 358.795 178.5 359.628L179.5 361.628L180 364.128L180.5 366.128L181.5 369.128L182 372.128L182.5 374.628L183 377.128L183.5 378.628C183.5 378.795 183.6 379.428 184 380.628C184.4 381.828 185.167 383.128 185.5 383.628L186 385.628V387.128L187 389.628C186.833 389.128 186.6 388.628 187 390.628C187.4 392.628 187.5 394.128 187.5 394.628V396.628V398.628L188 400.628L189 403.628L190 406.628L191 409.128C190.833 408.795 190.7 408.628 191.5 410.628C192.3 412.628 192.5 414.128 192.5 414.628L193 416.628V419.628L193.5 421.628L194 423.628L195 426.128C195 426.295 195 427.028 195 428.628C195.4 431.428 195.5 433.128 195.5 433.628V435.128L196 438.628L196.5 441.128L197 444.128L197.5 446.628V448.128V450.628V453.628V456.128V459.128L198 462.628V464.628L198.5 467.128L199.5 469.128L200 472.128V474.128L200.5 476.628V478.128L201 480.128V481.628V484.128V486.128C201 485.628 201 485.328 201 488.128C201 491.628 201.5 491.628 201.5 493.628C201.5 495.228 201.833 496.295 202 496.628L202.5 498.128V501.628V503.628L203 506.128V508.128V510.128V512.628V515.128L203.5 517.628L204 519.628L204.5 521.628C204.5 521.462 204.5 521.628 204.5 523.628C204.5 525.628 204.5 528.795 204.5 530.128V532.628L205 536.128L205.5 537.628V539.628L206 541.628L206.5 543.628V544.628C206.333 544.628 206.1 545.228 206.5 547.628C206.9 550.028 206.667 550.628 206.5 550.628V552.628L207 554.628V557.128C207 556.628 207.1 556.128 207.5 558.128C207.9 560.128 208 561.628 208 562.128C207.833 561.795 207.6 561.628 208 563.628C208.4 565.628 209.5 573.795 210 577.628C210 575.295 210 573.928 210 587.128C210 600.328 212 607.962 213 610.128L215 617.628L217.5 624.128L220 630.128C220.167 630.628 220.8 632.028 222 633.628C223.2 635.228 223.833 636.295 224 636.628C223.667 636.295 223.4 636.328 225 639.128C226.6 641.928 228.333 645.295 229 646.628L231.5 650.128L232 651.628C231.667 651.628 231.4 652.128 233 654.128C234.6 656.128 235.333 657.628 235.5 658.128L237 660.628C237 660.795 237.2 661.628 238 663.628C238.8 665.628 239.667 667.795 240 668.628L241.5 671.128L243 674.628L244 677.128L245.5 680.628L246.5 683.128C246.833 683.795 247.9 686.428 249.5 691.628C251.9 698.828 251.833 697.628 251.5 696.128L252.5 700.128L254 703.628L254.5 705.628C254.5 705.128 254.8 705.328 256 710.128C257.2 714.928 258.167 717.795 258.5 718.628L260 722.628C259.667 722.628 259.3 723.328 260.5 726.128C261.7 728.928 262.333 731.628 262.5 732.628C262.5 732.962 262.7 734.028 263.5 735.628C264.3 737.228 265.167 739.628 265.5 740.628L266 743.128L266.5 747.128L267 749.628L268 753.128L268.5 755.628L269.5 758.628L270.5 761.128L271.5 764.128L272.5 767.128L273 770.128C272.833 769.795 272.8 769.928 274 773.128C275.5 777.128 275 777.128 276 780.628C278 786.628 278 784.628 278.5 789.128C278.5 795.128 278.833 798.962 279 800.128L280 802.628L280.5 807.128L282 811.128V815.128C282 814.962 282.2 815.328 283 818.128C283.8 820.928 284 823.628 284 824.628V828.128C283.667 828.462 283.2 829.528 284 831.128C285 833.128 285 831.628 285.5 835.128C285.9 839.928 286.333 842.795 286.5 843.628C286.5 843.295 286.5 843.628 286.5 847.628C286.5 851.628 287.5 854.295 288 855.128C288 855.295 288.1 856.328 288.5 859.128C288.9 861.928 289 865.295 289 866.628C289.167 866.962 289.6 868.028 290 869.628C290.4 871.228 290.167 872.628 290 873.128C289.833 872.795 289.7 872.628 290.5 874.628C291.5 877.128 291.5 875.128 292 879.128C292.4 882.328 292.167 884.795 292 885.628L292.5 888.628L293.5 891.628C293.333 891.795 293.2 892.628 294 894.628C294.8 898.628 295.333 901.628 295.5 902.628C295.333 902.795 295.1 903.628 295.5 905.628C296 908.128 295.5 907.628 296.5 910.628C297.5 913.628 296.5 911.628 297 914.628C297.5 917.628 297.5 918.628 298 920.628C298.5 922.628 298.5 922.628 299 925.628C299.4 928.028 300.167 929.295 300.5 929.628C300.5 929.295 300.5 929.228 300.5 931.628C300.5 934.028 300.833 935.962 301 936.628C300.833 936.295 300.7 936.228 301.5 938.628C302.3 941.028 302.833 943.962 303 945.128C303 945.462 303.1 946.728 303.5 949.128C304 952.128 304 953.128 304.5 955.628C306.1 959.628 306.5 961.628 306.5 962.128C306.5 962.128 306.7 962.728 307.5 965.128C308.3 967.528 308.833 970.462 309 971.628C309 971.128 309.2 970.928 310 974.128C310.8 977.328 311.667 979.795 312 980.628L312.5 984.128C312 983.795 311.4 984.028 313 987.628C315 993.628 314.833 993.462 314.5 992.628C314.833 992.462 315.6 992.728 316 995.128C317.2 999.528 318.167 1002.29 318.5 1003.13V1006.13L319.5 1008.63L320.5 1010.63L321.5 1013.13V1015.63C321.333 1015.79 321.2 1016.53 322 1018.13C323.2 1021.33 324.167 1023.46 324.5 1024.13L325 1028.63L325.5 1031.13L327.5 1034.63L328 1037.13C327.833 1037.79 327.7 1039.63 328.5 1041.63C329.3 1043.63 330.5 1046.13 331 1047.13C331.167 1047.96 331.6 1049.93 332 1051.13C332.8 1054.33 332.667 1057.13 332.5 1058.13C332.167 1057.46 331.7 1056.83 332.5 1059.63C333.5 1063.13 333 1060.13 334 1065.13C335.6 1071.13 336.333 1073.96 336.5 1074.63L337 1077.63L337.5 1080.63V1083.13C337.333 1082.79 337.3 1082.73 338.5 1085.13C340 1088.13 340 1088.13 341 1090.63C343 1096.23 343.833 1099.29 344 1100.13L344.5 1102.63L345.5 1106.13C345.667 1105.79 346 1105.63 346 1107.63C346 1109.63 346.667 1111.79 347 1112.63L348 1116.63C348.167 1116.46 348.5 1116.83 348.5 1119.63C348.5 1122.43 348.833 1124.13 349 1124.63V1128.63C349 1128.63 349.2 1129.23 350 1131.63C350.8 1134.03 352.667 1137.96 353.5 1139.63L357 1144.13C356.5 1143.96 356.3 1144.33 359.5 1147.13C362.7 1149.93 366.5 1153.63 368 1155.13L374 1159.63L379 1163.13L384 1167.13L389.5 1171.63L397.5 1177.63L401.5 1182.63L405.5 1186.13L411 1190.13L416 1196.13L421.5 1201.13C421.5 1200.79 422.2 1201.03 425 1204.63C427.8 1208.23 430.5 1212.46 431.5 1214.13L434.429 1219.63Z" stroke="#0B0A0A" stroke-opacity="0.1"/>
<path d="M434 1218.63L434.429 1219.63M434.429 1219.63L438.5 1229.13L444 1240.13L448 1249.13L452.5 1262.63C453 1260.79 454.4 1259.83 456 1270.63C457.6 1281.43 458.667 1294.46 459 1299.63V1313.13V1325.13V1334.63L452.5 1337.63L444 1334.63L434 1331.63L426.5 1325.13L421.5 1313.13L416 1306.63L413.5 1297.13L411 1284.63L407.5 1275.13L401.5 1270.63L395.5 1262.63L392 1270.63L393.5 1279.13L395.5 1284.63L397 1290.63L399 1302.63L403 1310.13L404 1315.63L405 1321.63L406.5 1328.13L409 1335.63C409 1335.79 409.3 1337.23 410.5 1341.63C411.7 1346.03 413 1351.46 413.5 1353.63L416 1358.63L417 1364.13L418.5 1370.13L420 1376.13L422.5 1383.13L424.5 1389.63L426 1394.63L428 1401.63L430.5 1407.63V1412.13L432 1417.63L434 1424.13L435.5 1430.63V1436.13L437 1442.13V1447.63V1454.13L435.5 1458.13L432 1459.63L428 1461.13L423.5 1461.63L418.5 1461.13L415.5 1459.63L411 1454.13L407 1450.13L403 1442.13L395 1436.13C394.667 1435.13 393 1433.73 389 1436.13C385 1438.53 382 1441.13 381 1442.13L376.5 1447.63C376.5 1446.63 376.5 1446.53 376.5 1454.13C376.5 1461.73 376.5 1467.96 376.5 1470.13V1475.63C376.5 1475.79 376.5 1477.53 376.5 1483.13C376.5 1488.73 375.167 1492.13 374.5 1493.13L368.5 1497.13L364.5 1498.13C364.667 1498.46 363.8 1498.93 359 1498.13C354.2 1497.33 350.667 1495.46 349.5 1494.63L346 1489.13L344.5 1484.63L342.5 1478.63V1474.13L339.5 1463.63L338.5 1455.63L335 1450.13L330.5 1447.63L323 1445.63L318 1447.63L313 1450.13L309.5 1454.13V1463.63V1470.13L307.5 1474.13L306.5 1478.63L305.5 1482.13L304 1486.13L302.5 1489.13L300 1493.13L296 1494.63H290C289.667 1495.46 288.4 1496.33 286 1493.13C283.6 1489.93 281 1487.13 280 1486.13C279.333 1486.46 277.8 1486.13 277 1482.13C276 1477.13 275 1475.13 274 1471.13C273.2 1467.93 273.667 1458.46 274 1454.13C274 1454.29 273.7 1453.73 272.5 1450.13C271.3 1446.53 270.667 1443.63 270.5 1442.63C270.667 1442.63 270.6 1442.13 269 1440.13C267.4 1438.13 265.333 1437.96 264.5 1438.13H261L257.5 1440.13L254.5 1441.63L252.5 1442.63L251 1445.63L249.5 1450.13C250.333 1450.46 251.5 1451.73 249.5 1454.13C247 1457.13 247.5 1458.13 243 1459.63C238.5 1461.13 238.5 1463.63 234 1462.13C226 1458.63 226.5 1459.13 223 1455.63C220.2 1452.83 218.833 1449.13 218.5 1447.63V1442.63V1438.13V1433.63C218.5 1433.96 218.5 1433.53 218.5 1429.13C218.5 1421.53 218.5 1416.29 218.5 1414.63V1408.13C218.5 1408.13 218.5 1407.13 218.5 1403.13C218.5 1395.93 218.5 1391.13 218.5 1389.63C218.5 1389.13 218.5 1387.33 218.5 1384.13C218.5 1380.93 218.5 1377.46 218.5 1376.13V1370.13V1365.13C218.5 1364.63 218.7 1362.83 219.5 1359.63C219.5 1350.63 222.5 1361.13 221 1354.13C219.8 1348.53 220.5 1347.13 221 1347.13V1342.13V1336.63V1330.13C221.5 1329.46 222.2 1327.03 221 1322.63C217.8 1307.83 218.667 1311.13 219.5 1314.63L216 1301.63V1296.63C216 1295.13 216 1287.83 216 1270.63C216 1249.13 212 1258.13 214 1236.13C215.6 1218.53 214.667 1199.79 214 1192.63C213.5 1192.13 213.2 1189.63 216 1183.63C221 1175.63 221 1176.63 221 1167.63C221 1152.13 223 1158.13 219.5 1145.13C216.7 1134.73 214.667 1128.79 214 1127.13L209.5 1119.13L207 1111.63L205 1105.13C204.333 1103.96 202.6 1100.63 201 1096.63C194.2 1081.03 194.5 1081.79 195.5 1084.13L193 1077.13L187.5 1070.63L184 1061.63L176 1042.63L170 1031.13L167.5 1023.63L164.5 1018.63L161.5 1013.13C160.833 1012.63 159.2 1010.63 158 1006.63C156.8 1002.63 155.167 999.295 154.5 998.128L152 994.128C152 994.128 151.5 993.028 149.5 988.628C147 983.128 146.5 981.628 144 977.128C140.8 969.128 137.667 963.795 136.5 962.128C136 961.295 134.4 958.428 132 953.628C129.6 948.828 128 943.628 127.5 941.628C127.5 941.295 126.4 938.628 122 930.628C112 910.628 107.167 900.628 106 898.128L95.5 878.628C96.1667 880.628 96.3 881.328 91.5 868.128C78.5 838.128 89.5 859.628 83.5 845.628C78.7 834.428 74.8333 824.962 73.5 821.628C74.3333 822.295 75 821.328 71 812.128C67 802.928 64.3333 794.628 63.5 791.628C62.1667 791.295 59.5 789.128 59.5 783.128C59.5 771.528 58.1667 769.295 57.5 769.628C58.1667 771.128 59.1 772.528 57.5 766.128C57.5 752.628 57.5 757.128 56 750.628C54.5 744.128 54 739.628 53.5 732.128C51.5 709.128 53 729.128 52 718.128C50.4 698.528 49 685.628 48.5 681.628C48.3333 681.128 47.8 678.828 47 673.628C45.4 666.028 44 662.128 43.5 661.128C43.5 661.295 43.1 660.328 41.5 655.128C38.3 641.128 38.8333 643.628 39.5 646.628L35 634.628L32.5 629.128C32.3334 628.962 31.7 627.728 30.5 624.128C29 619.628 30 620.128 27 613.128C24.6 607.528 23.3334 602.795 23 601.128L20 593.628C20.8334 594.462 22 594.828 20 589.628C18 584.428 14.1667 578.462 12.5 576.128C12.6667 577.295 12.6 577.728 11 570.128C9.40002 562.528 9.33335 556.628 9.50002 554.628C8.83334 553.462 7.3 549.328 6.5 542.128C5.5 533.128 9 540.628 6.5 527.128C4 513.628 3.5 513.128 2.5 501.628C1.5 490.128 1 489.128 0.5 478.628C0.5 465.428 0.5 458.128 0.5 456.128C0.5 454.295 0.5 448.228 0.5 438.628C0.5 426.628 2.5 425.628 2.5 414.128C2.5 402.628 4 403.128 4 395.628C4 389.628 5.33333 383.128 6 380.628V372.628L8.5 365.128C7.83333 365.795 6.9 365.628 8.5 359.628C12.5 341.628 9.5 362.628 10.5 351.628C14.1 325.228 15 325.628 15 329.128V316.128C16.1667 315.462 18.4 313.328 18 310.128C17.5 306.128 15 306.128 18 301.628C20.4 293.228 21.3333 288.128 21.5 286.628C21 287.462 20.3 287.928 21.5 283.128C22.7 278.328 23.3333 274.128 23.5 272.628V267.128L26.5 261.128C26.5 261.295 26.5 260.528 26.5 256.128C28.5 240.928 29 244.128 29 247.628L29.5 240.128L30 234.128L30.5 229.628L31 225.628L32.5 221.628L33 218.628C33 218.462 33 217.728 33 216.128C33 214.528 33.3333 212.795 33.5 212.128L34 208.628L34.5 206.628L35 203.128L35.5 200.128V197.628L36.5 193.628V190.628C36.5 191.128 36.6 191.328 37 188.128C37.4 184.928 37.8333 182.795 38 182.128L39 178.628L39.5 175.128L40 171.628L40.5 168.628L41 165.628V162.128L41.5 158.628L42 155.628L43 152.128L43.5 149.128L44 146.128L44.5 142.628C45 142.628 45.9 141.828 45.5 138.628C45.1 135.428 45.3333 133.295 45.5 132.628L46 130.128L46.5 126.628L47 122.628L47.5 119.128L48 116.128L48.5 113.628L49 110.128L49.5 107.128V104.628L50.5 103.128V101.128V98.1282C50.1667 98.2948 49.7 98.0282 50.5 95.6282C51.3 93.2282 52.1667 91.6282 52.5 91.1282L53 88.1282L53.5 86.6282V84.1282L54.5 82.1282V79.6282V77.1282C54.1667 76.9615 53.7 76.1282 54.5 74.1282C55.5 71.6282 56.5 71.6282 56.5 69.1282C56.5 67.1282 56.5 64.9615 56.5 64.1282L57 60.6282C56.8333 60.7948 56.7 60.4282 57.5 57.6282C58.3 54.8282 59.1667 51.4615 59.5 50.1282V47.6282V44.6282V42.1282C59.6667 41.7948 60.1 40.7282 60.5 39.1282C60.9 37.5282 61.3333 35.4615 61.5 34.6282V31.6282L62.5 28.1282L63.5 23.1282V19.6282L65.5 14.1282L66 10.1282L67 7.12817L69 3.62817L71 0.628174L75.5 2.62817L79 4.62817L82 7.12817L84.5 8.62817L86 10.1282L87.5 11.1282L89.5 12.6282L91.5 13.6282L92.5 14.6282L94 15.6282L96.5 16.6282L98 18.1282L100 19.6282L101.5 21.1282L103 23.1282L104.5 24.1282L106.5 26.6282C106.167 26.6282 105.9 26.9282 107.5 28.1282C109.1 29.3282 111.167 31.2948 112 32.1282C111.833 32.1282 111.9 32.5282 113.5 34.1282C115.1 35.7282 117.5 38.1282 118.5 39.1282L120.5 41.6282L123 44.1282L123.5 45.1282L124.5 46.6282L126 49.1282L127 50.6282L128.5 53.1282L130 55.1282L132 57.1282L133.5 59.6282L135 62.1282L136.5 64.6282L137.5 66.6282C137.5 66.6282 137.8 67.0282 139 68.6282C141.4 71.8282 142.333 73.9615 142.5 74.6282L144 77.1282L145.5 79.6282L147 83.1282L148.5 85.6282L150 88.1282L151.5 90.6282L152.5 92.6282L153.5 95.1282L155 97.6282L155.5 99.6282L157.5 103.628L158.5 106.628L160 109.628L161 113.628L162 117.128L163.5 121.628L165 127.128L166.5 131.128L168 135.628L168.5 138.128L169.5 143.628L170 147.128L170.5 151.128L171.5 154.628L172 156.628L172.5 159.628L173 163.628L173.5 168.628L174 172.628V177.128C174.167 177.128 174.6 177.928 175 181.128C175.4 184.328 175.5 188.128 175.5 189.628L176 194.628V198.628C176 198.962 176 200.228 176 202.628C176.4 208.228 176.5 212.628 176.5 214.128V218.128V222.128V226.628C176.5 226.962 176.5 228.428 176.5 231.628C176.5 234.828 176.167 237.962 176 239.128L175.5 242.628L174.5 246.128V250.628V255.128L174 259.628V263.628V267.128L173.5 270.628L173 274.128V277.628V281.128V284.128L172 287.128V290.128V293.628L171.5 297.628C171.5 297.462 171.4 297.928 171 301.128C170.6 304.328 170.5 307.795 170.5 309.128V312.128V315.628V319.628V322.628C170.333 322.795 170.1 323.928 170.5 327.128C170.9 330.328 171.333 332.795 171.5 333.628V335.128C171.5 334.962 171.6 335.028 172 336.628C172.5 338.628 172 338.128 173 340.628C173.8 342.628 174.333 344.462 174.5 345.128L175 347.128L175.5 349.128L176 351.628L176.5 353.128C176.5 353.128 176.6 353.528 177 355.128C177.4 356.728 178.167 358.795 178.5 359.628L179.5 361.628L180 364.128L180.5 366.128L181.5 369.128L182 372.128L182.5 374.628L183 377.128L183.5 378.628C183.5 378.795 183.6 379.428 184 380.628C184.4 381.828 185.167 383.128 185.5 383.628L186 385.628V387.128L187 389.628C186.833 389.128 186.6 388.628 187 390.628C187.4 392.628 187.5 394.128 187.5 394.628V396.628V398.628L188 400.628L189 403.628L190 406.628L191 409.128C190.833 408.795 190.7 408.628 191.5 410.628C192.3 412.628 192.5 414.128 192.5 414.628L193 416.628V419.628L193.5 421.628L194 423.628L195 426.128C195 426.295 195 427.028 195 428.628C195.4 431.428 195.5 433.128 195.5 433.628V435.128L196 438.628L196.5 441.128L197 444.128L197.5 446.628V448.128V450.628V453.628V456.128V459.128L198 462.628V464.628L198.5 467.128L199.5 469.128L200 472.128V474.128L200.5 476.628V478.128L201 480.128V481.628V484.128V486.128C201 485.628 201 485.328 201 488.128C201 491.628 201.5 491.628 201.5 493.628C201.5 495.228 201.833 496.295 202 496.628L202.5 498.128V501.628V503.628L203 506.128V508.128V510.128V512.628V515.128L203.5 517.628L204 519.628L204.5 521.628C204.5 521.462 204.5 521.628 204.5 523.628C204.5 525.628 204.5 528.795 204.5 530.128V532.628L205 536.128L205.5 537.628V539.628L206 541.628L206.5 543.628V544.628C206.333 544.628 206.1 545.228 206.5 547.628C206.9 550.028 206.667 550.628 206.5 550.628V552.628L207 554.628V557.128C207 556.628 207.1 556.128 207.5 558.128C207.9 560.128 208 561.628 208 562.128C207.833 561.795 207.6 561.628 208 563.628C208.4 565.628 209.5 573.795 210 577.628C210 575.295 210 573.928 210 587.128C210 600.328 212 607.962 213 610.128L215 617.628L217.5 624.128L220 630.128C220.167 630.628 220.8 632.028 222 633.628C223.2 635.228 223.833 636.295 224 636.628C223.667 636.295 223.4 636.328 225 639.128C226.6 641.928 228.333 645.295 229 646.628L231.5 650.128L232 651.628C231.667 651.628 231.4 652.128 233 654.128C234.6 656.128 235.333 657.628 235.5 658.128L237 660.628C237 660.795 237.2 661.628 238 663.628C238.8 665.628 239.667 667.795 240 668.628L241.5 671.128L243 674.628L244 677.128L245.5 680.628L246.5 683.128C246.833 683.795 247.9 686.428 249.5 691.628C251.9 698.828 251.833 697.628 251.5 696.128L252.5 700.128L254 703.628L254.5 705.628C254.5 705.128 254.8 705.328 256 710.128C257.2 714.928 258.167 717.795 258.5 718.628L260 722.628C259.667 722.628 259.3 723.328 260.5 726.128C261.7 728.928 262.333 731.628 262.5 732.628C262.5 732.962 262.7 734.028 263.5 735.628C264.3 737.228 265.167 739.628 265.5 740.628L266 743.128L266.5 747.128L267 749.628L268 753.128L268.5 755.628L269.5 758.628L270.5 761.128L271.5 764.128L272.5 767.128L273 770.128C272.833 769.795 272.8 769.928 274 773.128C275.5 777.128 275 777.128 276 780.628C278 786.628 278 784.628 278.5 789.128C278.5 795.128 278.833 798.962 279 800.128L280 802.628L280.5 807.128L282 811.128V815.128C282 814.962 282.2 815.328 283 818.128C283.8 820.928 284 823.628 284 824.628V828.128C283.667 828.462 283.2 829.528 284 831.128C285 833.128 285 831.628 285.5 835.128C285.9 839.928 286.333 842.795 286.5 843.628C286.5 843.295 286.5 843.628 286.5 847.628C286.5 851.628 287.5 854.295 288 855.128C288 855.295 288.1 856.328 288.5 859.128C288.9 861.928 289 865.295 289 866.628C289.167 866.962 289.6 868.028 290 869.628C290.4 871.228 290.167 872.628 290 873.128C289.833 872.795 289.7 872.628 290.5 874.628C291.5 877.128 291.5 875.128 292 879.128C292.4 882.328 292.167 884.795 292 885.628L292.5 888.628L293.5 891.628C293.333 891.795 293.2 892.628 294 894.628C294.8 898.628 295.333 901.628 295.5 902.628C295.333 902.795 295.1 903.628 295.5 905.628C296 908.128 295.5 907.628 296.5 910.628C297.5 913.628 296.5 911.628 297 914.628C297.5 917.628 297.5 918.628 298 920.628C298.5 922.628 298.5 922.628 299 925.628C299.4 928.028 300.167 929.295 300.5 929.628C300.5 929.295 300.5 929.228 300.5 931.628C300.5 934.028 300.833 935.962 301 936.628C300.833 936.295 300.7 936.228 301.5 938.628C302.3 941.028 302.833 943.962 303 945.128C303 945.462 303.1 946.728 303.5 949.128C304 952.128 304 953.128 304.5 955.628C306.1 959.628 306.5 961.628 306.5 962.128C306.5 962.128 306.7 962.728 307.5 965.128C308.3 967.528 308.833 970.462 309 971.628C309 971.128 309.2 970.928 310 974.128C310.8 977.328 311.667 979.795 312 980.628L312.5 984.128C312 983.795 311.4 984.028 313 987.628C315 993.628 314.833 993.462 314.5 992.628C314.833 992.462 315.6 992.728 316 995.128C317.2 999.528 318.167 1002.29 318.5 1003.13V1006.13L319.5 1008.63L320.5 1010.63L321.5 1013.13V1015.63C321.333 1015.79 321.2 1016.53 322 1018.13C323.2 1021.33 324.167 1023.46 324.5 1024.13L325 1028.63L325.5 1031.13L327.5 1034.63L328 1037.13C327.833 1037.79 327.7 1039.63 328.5 1041.63C329.3 1043.63 330.5 1046.13 331 1047.13C331.167 1047.96 331.6 1049.93 332 1051.13C332.8 1054.33 332.667 1057.13 332.5 1058.13C332.167 1057.46 331.7 1056.83 332.5 1059.63C333.5 1063.13 333 1060.13 334 1065.13C335.6 1071.13 336.333 1073.96 336.5 1074.63L337 1077.63L337.5 1080.63V1083.13C337.333 1082.79 337.3 1082.73 338.5 1085.13C340 1088.13 340 1088.13 341 1090.63C343 1096.23 343.833 1099.29 344 1100.13L344.5 1102.63L345.5 1106.13C345.667 1105.79 346 1105.63 346 1107.63C346 1109.63 346.667 1111.79 347 1112.63L348 1116.63C348.167 1116.46 348.5 1116.83 348.5 1119.63C348.5 1122.43 348.833 1124.13 349 1124.63V1128.63C349 1128.63 349.2 1129.23 350 1131.63C350.8 1134.03 352.667 1137.96 353.5 1139.63L357 1144.13C356.5 1143.96 356.3 1144.33 359.5 1147.13C362.7 1149.93 366.5 1153.63 368 1155.13L374 1159.63L379 1163.13L384 1167.13L389.5 1171.63L397.5 1177.63L401.5 1182.63L405.5 1186.13L411 1190.13L416 1196.13L421.5 1201.13C421.5 1200.79 422.2 1201.03 425 1204.63C427.8 1208.23 430.5 1212.46 431.5 1214.13L434.429 1219.63Z" stroke="#D52020" stroke-opacity="0.73"/>
</svg>
