<svg width="359" height="1749" viewBox="0 0 359 1749" fill="none" xmlns="http://www.w3.org/2000/svg">
<path d="M0.500122 97.8831V33.3831V28.3831L3.50012 30.3831L8.50012 34.3831L12.5001 37.3831L20.0001 41.3831L25.0001 43.8831L29.0001 46.3831L31.5001 46.8831L36.0001 48.8831H39.0001L46.0001 50.8831C47.1668 51.0498 50.0001 51.5831 52.0001 52.3831C54.0001 53.1831 55.8335 53.7164 56.5001 53.8831L58.5001 55.3831C60.1001 56.5831 61.8335 55.2164 62.5001 54.3831H64.0001L65.5001 54.8831L73.5001 56.3831L80.0001 57.8831H86.5001H96.5001H105H112.5H124.5H135.5H143L149.5 57.3831H156.5H164H171L175 56.8831H179.5H183.5L187 55.8831L189 54.8831H197H199L202 53.8831L204 52.8831H208H212L215 52.3831L218 51.3831H221H225L226.5 49.8831L232 49.3831L233.5 48.8831L235 47.8831H237L241 47.3831L245 46.8831L248.5 45.8831L252.5 44.8831L257.5 43.3831L263 41.8831L269 40.3831L272 39.3831L275 38.3831L278.5 37.3831L282.5 36.8831L284.5 35.8831L288 35.3831L290.5 34.8831L293.5 33.3831L296.5 31.8831L300.5 30.8831L307 28.3831L309 27.3831L312.5 25.3831L315 24.3831L318 23.3831L320 22.3831L327 19.3831L331.5 16.8831L339 13.3831L343 10.8831L349 6.8831L353 3.8831L358 0.883102V19.8831V61.3831V79.8831L357 92.3831V107.883L353.5 131.883L353 158.883L349.5 179.883L347 201.383L344 219.883L343 234.883L339.5 260.383L337.5 280.383L335.5 291.383L334 306.383L331 323.883L328 340.383L326 356.883L323.5 371.883L320 392.883L316.5 411.883L313.5 424.883L309.5 446.383L306.5 463.883L303.5 481.383L301 492.383L300 502.883L297.5 517.883L296 531.383L293 547.883L291 564.383L289 579.883L287 603.883L284 617.383V629.883L281 648.883L279.5 662.883L278 680.883L276 699.383L273.5 710.383L270 724.883V742.883V762.383L271.5 774.883L273 786.383L276 799.383L279 812.883L281 821.383L283 831.883L286 846.883L288.5 856.883L293 872.383L294.5 890.883L297 906.883L299 922.883L301 948.383L303 959.883V986.383V1032.88L300 1040.88L298.5 1056.88V1066.88L296 1078.88L292 1102.38L287.5 1118.88L284.5 1130.88L281 1145.88L277 1159.88L270.5 1182.38L265 1197.38L258.5 1222.38L253 1237.88L243.5 1267.38L241.5 1275.38L237 1289.88L232.5 1304.88L228.5 1320.38L226.5 1329.88L223 1341.88L220 1352.88C219.833 1354.22 219.2 1357.98 218 1362.38C216.8 1366.78 217.167 1372.22 217.5 1374.38L215.5 1381.38L212.5 1392.88L211 1398.88L207.5 1410.38C206.833 1414.72 204.8 1425.88 202 1435.88C199.2 1445.88 198.5 1448.72 198.5 1448.88L195.5 1464.38C194.5 1469.55 192 1482.48 190 1492.88C188.8 1498.08 188.833 1501.38 189 1502.38L187.5 1510.38L187 1520.88V1544.88L189.5 1556.38V1569.88C189.833 1572.22 191.6 1577.18 196 1578.38C200 1579.58 200.667 1577.88 200.5 1576.88L205.5 1573.38L209 1571.38C210.667 1570.88 215.2 1569.68 220 1568.88C224.8 1568.08 225.667 1570.22 225.5 1571.38L230.5 1573.88L234.5 1576.88L236.5 1586.88V1609.88C236.167 1611.05 235.1 1616.28 233.5 1627.88C232.3 1634.28 230 1639.55 229 1641.38L221.5 1658.38L215.5 1671.38L209.5 1684.38L207 1692.88L204.5 1700.88L200 1711.88L197 1718.38L191 1728.38L184 1734.88C181.667 1736.38 175.9 1739.98 171.5 1742.38C167.1 1744.78 164.667 1744.72 164 1744.38L152 1747.88H139.5H109L104.5 1746.38L95.0001 1744.38L90.5001 1742.38L76.5001 1730.88L74.0001 1725.88L70.0001 1712.88L67.0001 1705.38C66.3335 1700.88 64.8001 1690.28 64.0001 1683.88C63.2001 1677.48 62.6668 1674.55 62.5001 1673.88L58.5001 1666.38L54.0001 1657.88L47.0001 1645.38L42.0001 1637.88L38.5001 1631.88L33.5001 1617.38L30.0001 1607.88L27.5001 1601.88L27.0001 1593.88L27.5001 1575.88L28.0001 1569.88C28.6668 1568.55 31.0001 1564.88 35.0001 1560.88L41.0001 1554.88L47.0001 1554.38L50.0001 1548.38L53.0001 1527.88L54.0001 1516.88L61.5001 1499.88L64.5001 1490.88L68.0001 1477.38L70.5001 1470.88C71.0001 1466.05 72.5001 1453.68 74.5001 1442.88C76.5001 1432.08 76.3335 1425.05 76.0001 1422.88C76.1668 1421.05 76.7001 1415.78 77.5001 1409.38C78.3001 1402.98 78.1668 1388.72 78.0001 1382.38L79.0001 1363.38L80.5001 1343.38V1318.88L80.0001 1287.38L79.0001 1236.88L77.0001 1205.38L75.5001 1192.88V1170.88L74.0001 1157.88L70.5001 1133.88L68.0001 1119.88L64.5001 1100.38L61.0001 1076.38L59.5001 1059.88L57.5001 1042.38L55.0001 1010.88V969.883V950.883L56.0001 942.383L56.5001 930.383C56.6668 928.383 57.6001 922.683 60.0001 915.883C62.4001 909.083 61.0001 903.383 60.0001 901.383C59.8335 898.05 60.0001 888.783 62.0001 878.383C64.0001 867.983 63.1668 861.383 62.5001 859.383V829.883L61.0001 803.383L59.5001 775.883L57.5001 760.383L53.5001 750.883L48.5001 731.883L45.0001 720.883L43.5001 699.883L40.0001 682.383L37.5001 660.383L35.0001 634.383L33.5001 613.383L31.0001 585.383L29.5001 551.383L28.5001 525.883L26.0001 496.383L24.0001 481.883L23.5001 453.383L21.0001 424.383L17.5001 392.883L13.0001 353.883L11.0001 322.883L7.00012 281.383L4.50012 237.883L2.00012 194.883V163.883L0.500122 97.8831Z" fill="#FF0000" fill-opacity="0.3" stroke="black"/>
</svg>
