<svg width="798" height="1443" viewBox="0 0 798 1443" fill="none" xmlns="http://www.w3.org/2000/svg">
<path d="M795.071 115.516L796.571 113.516L795.571 112.016L794.571 110.016L793.071 108.516L788.571 107.016C786.171 106.216 786.904 106.016 787.571 106.016L785.071 104.016L782.571 102.516L781.071 101.516L778.571 100.016L775.071 98.0164C773.737 97.683 770.571 96.8164 768.571 96.0164C766.571 95.2164 765.737 94.0164 765.571 93.5164C764.571 93.0164 762.271 91.8164 761.071 91.0164C759.871 90.2164 757.904 90.683 757.071 91.0164L755.071 90.0164L750.071 87.5164C747.671 86.3164 745.737 86.683 745.071 87.0164H742.071L739.071 86.5164L732.571 84.0164C730.237 83.8497 724.871 83.3164 722.071 82.5164C719.271 81.7164 716.237 81.5164 715.071 81.5164L710.071 81.0164L704.571 80.0164L699.571 78.5164L694.571 76.0164C692.171 74.8164 690.904 75.5164 690.571 76.0164C690.071 76.0164 688.271 75.6164 685.071 74.0164C683.071 72.8164 681.571 72.183 681.071 72.0164C679.904 71.683 677.171 70.7164 675.571 69.5164C673.971 68.3164 672.904 68.683 672.571 69.0164L669.071 68.0164L664.571 66.5164C663.404 66.0164 660.271 64.6164 657.071 63.0164C653.871 61.4164 653.404 62.0164 653.571 62.5164L651.071 61.0164L645.571 59.5164L642.571 58.0164H640.071C639.237 57.8497 637.271 57.2164 636.071 56.0164C634.871 54.8164 634.237 55.183 634.071 55.5164L629.071 54.5164L625.571 53.0164C624.737 52.8497 622.571 52.3164 620.571 51.5164C618.571 50.7164 619.404 50.183 620.071 50.0164L618.071 50.5164L616.071 49.5164L612.571 48.5164L608.571 47.5164L604.571 45.5164C603.904 45.3497 601.171 44.6164 595.571 43.0164C593.971 42.2164 592.571 42.0164 592.071 42.0164L590.071 41.0164C589.404 40.683 587.571 39.8164 585.571 39.0164C583.571 38.2164 582.071 37.683 581.571 37.5164L579.071 37.0164L576.571 35.5164L573.571 33.5164L569.571 31.5164L568.071 30.5164C566.904 30.183 564.271 29.4164 563.071 29.0164C561.871 28.6164 559.571 26.8497 558.571 26.0164L556.571 25.0164L553.571 23.0164L551.071 21.5164C550.571 21.3497 549.071 20.3164 547.071 17.5164C545.571 15.5164 545.071 16.0164 540.571 12.5164C538.071 10.5164 539.071 11.5164 537.571 10.0164C536.371 8.81636 536.404 8.51636 536.571 8.51636L535.071 7.01636L532.571 4.51636L530.571 2.51636L528.571 1.01636L526.071 0.516357L524.571 1.01636L518.071 3.01636L513.571 4.51636L509.571 6.51636L505.071 9.01636L498.571 11.5164L493.071 13.0164L488.071 14.0164L484.071 15.0164L479.071 17.0164L470.071 18.0164L469.071 20.0164H463.071L455.571 20.5164L451.571 22.5164H444.071H426.571C422.571 22.5164 421.571 23.183 421.571 23.5164L407.571 24.0164H379.071L374.571 23.5164L371.571 23.0164H367.571H359.571H356.571L354.071 22.5164H350.071L347.571 21.5164L344.071 20.5164L340.071 19.5164H337.071L333.571 18.5164C332.904 18.5164 330.871 18.3164 328.071 17.5164C325.271 16.7164 324.904 16.8497 325.071 17.0164L317.071 15.5164H315.071H313.571H311.071L308.071 15.0164L305.071 14.5164L299.571 12.0164L296.571 10.5164L293.571 9.01636L290.071 8.51636C289.071 8.18302 286.371 7.31636 283.571 6.51636C280.771 5.71636 280.737 5.18302 281.071 5.01636L278.071 3.51636L277.071 1.51636L275.071 5.51636C274.404 6.68302 272.671 9.31636 271.071 10.5164C269.471 11.7164 269.071 13.683 269.071 14.5164L266.071 16.5164L261.571 21.0164L255.571 25.0164L252.571 27.5164L250.571 30.0164L248.071 30.5164L244.071 33.0164L240.571 35.0164L237.571 36.0164L236.071 37.5164L233.571 39.5164L228.571 41.5164L227.071 42.5164L225.571 43.5164L222.071 45.0164H220.571C220.071 45.5164 218.671 46.8164 217.071 48.0164C215.471 49.2164 214.071 49.5164 213.571 49.5164L212.071 51.0164L210.071 51.5164L208.571 52.5164L204.571 55.0164C203.071 55.683 199.371 57.4164 196.571 59.0164C195.771 59.8164 193.904 59.3497 193.071 59.0164L187.571 62.5164L183.071 65.0164L179.571 66.5164L173.571 69.0164L170.571 69.5164L168.571 71.0164L165.071 73.5164C163.571 73.8497 160.171 74.7164 158.571 75.5164C156.971 76.3164 156.571 76.183 156.571 76.0164L151.571 78.5164L147.571 80.5164L140.071 82.5164L136.071 83.5164L132.071 85.0164L129.071 86.5164L125.571 87.5164L120.571 89.0164L115.571 91.0164H111.89H108.071L106.571 93.0164L96.0706 94.0164H86.0706H78.5706L76.0706 95.5164H69.0706L67.0706 96.0164L65.0706 97.0164H50.5706H47.0706L44.5706 98.0164L41.5706 99.5164L38.0706 101.016L33.5706 102.016L32.0706 102.516L30.0706 103.516L28.0706 105.516H25.0706L23.0706 106.016L21.0706 107.516L19.0706 108.016C18.5706 108.516 17.425 109.816 16.843 111.016C16.2609 112.216 14.7522 111.516 14.0706 111.016L12.5706 112.516L9.07056 113.016L8.07056 114.516L3.57056 118.016L0.570557 120.016L1.07056 122.016L2.57056 126.516L4.07056 130.016L6.07056 135.016L7.07056 140.016L8.07056 144.016L9.57056 148.016L10.5706 152.016L11.5706 156.016L12.5706 160.016L14.5706 166.016L16.5706 174.016L18.5706 178.516V180.516V183.516L19.5706 187.016L20.5706 191.016V192.516L21.0706 194.016V195.516L22.0706 198.016V200.016L23.0706 203.516L23.5706 206.516L24.5706 208.516V210.516V213.016L25.5706 215.516L27.5706 219.516L28.0706 223.016L29.0706 225.016L30.0706 228.016L30.5706 232.016L32.0706 235.516L31.5706 236.516L32.5706 240.016L33.5706 243.516L34.5706 247.516L35.5706 251.016L36.0706 255.016L37.0706 259.016L37.5706 261.516L39.0706 266.516L40.5706 271.016V272.516L41.5706 277.016L43.0706 282.016L43.5706 286.516L44.5706 290.016V293.016L46.0706 297.016L47.0706 302.016V304.516L48.0706 308.016L48.5706 310.016L49.5706 315.016L50.0706 318.016L51.0706 320.516C51.0706 321.016 51.1706 322.616 51.5706 325.016C51.9706 327.416 52.4039 329.35 52.5706 330.016L53.5706 333.516L54.0706 336.516L55.5706 342.516L57.0706 347.016V351.016V353.516L58.0706 356.016L60.0706 363.016L62.0706 375.016L64.5706 386.016L66.5706 392.016V402.016C66.9039 403.683 67.8706 408.116 69.0706 412.516C70.2706 416.916 69.5706 417.016 69.0706 416.516L71.5706 425.016L74.5706 437.016V440.016V444.016L73.5706 445.016V446.516V447.516L75.0706 451.516L75.5706 453.016L76.0706 456.016L76.5706 460.516C76.7372 461.683 77.1706 464.616 77.5706 467.016C77.9706 469.416 77.7372 469.016 77.5706 468.516L77.0706 470.016V473.016L78.0706 478.016L79.5706 485.016V487.016L80.5706 491.516L81.5706 494.516L82.0706 501.016L82.5706 508.516L83.0706 511.516L83.5706 515.016L84.0706 519.016L84.5706 524.016V526.516L85.0706 530.016L86.0706 533.516V540.016V547.016V553.516V561.516V568.016V575.016L86.5706 578.016L87.0706 584.516V616.016V625.516V633.016V639.516V645.516V649.516L86.5706 653.016L86.0706 658.016L85.5706 663.016L84.5706 670.016V679.016V688.516L84.0706 693.516V698.516L85.5706 703.016L87.5706 708.016V718.016L89.5706 722.016V729.516L90.5706 733.016L91.5706 736.516C91.7372 737.35 92.2706 739.816 93.0706 743.016C93.8706 746.216 94.0706 746.35 94.0706 746.016C94.2372 747.85 94.8706 752.116 96.0706 754.516C97.5706 757.516 96.5706 760.516 96.5706 763.016C96.5706 765.016 97.2372 765.85 97.5706 766.016L99.5706 769.516V775.016L101.571 780.016L103.071 787.516L104.071 790.516L105.071 795.016L105.571 799.516L107.571 807.516L109.071 814.016L110.071 818.016L111.071 823.016L113.071 829.016L115.071 837.516C115.071 839.35 115.571 843.716 117.571 846.516C119.571 849.316 118.404 850.683 117.571 851.016V858.016L120.571 868.016V876.516V912.016L117.571 929.516V936.016L116.571 938.016V956.016L118.071 961.016L119.071 967.016L120.571 972.016L121.071 975.516V982.016L122.571 985.016L123.571 989.516V994.516V1019.52V1028.52C123.404 1029.52 122.971 1032.22 122.571 1035.02C122.171 1037.82 121.737 1038.18 121.571 1038.02L120.571 1040.52L120.071 1043.52L119.071 1047.52L118.071 1050.52V1054.02L116.571 1057.52L115.571 1061.52C115.237 1062.52 114.271 1065.92 113.071 1071.52C112.671 1074.32 112.237 1074.35 112.071 1074.02L111.071 1077.52L109.571 1081.02L108.571 1084.52L107.571 1088.52L106.571 1092.02L105.071 1095.52L104.071 1101.02L102.071 1104.52C101.571 1106.18 99.8706 1110.72 97.0706 1115.52C94.2706 1120.32 95.9039 1122.52 97.0706 1123.02L96.5706 1125.52L96.0706 1128.52L95.0706 1130.52L93.0706 1133.52V1138.02L91.5706 1142.02V1147.02L90.0706 1149.52C90.4039 1149.35 90.7706 1149.32 89.5706 1150.52C88.3706 1151.72 88.7372 1151.68 89.0706 1151.52C89.0706 1152.18 88.9706 1153.82 88.5706 1155.02C88.1706 1156.22 87.7372 1156.85 87.5706 1157.02L86.5706 1159.02V1160.52V1164.52V1166.52L85.5706 1168.52L84.0706 1170.52L83.0706 1172.52V1174.52L82.5706 1177.02L81.5706 1180.02L81.0706 1182.52C80.7372 1183.18 80.0706 1184.92 80.0706 1186.52C80.0706 1188.12 79.4039 1188.85 79.0706 1189.02V1191.52L78.0706 1194.02L77.5706 1196.52L76.0706 1202.52L75.5706 1204.02L74.5706 1207.02V1209.52L73.5706 1212.52L73.0706 1216.52L72.0706 1219.52L70.5706 1222.02L70.0706 1225.02L69.5706 1227.52V1229.52L69.0706 1232.52L68.5706 1235.02L67.0706 1239.52L66.0706 1241.52L65.5706 1242.02V1247.02C65.5706 1249.02 64.9039 1249.52 64.5706 1249.52V1254.02L63.5706 1255.52L62.0706 1258.02L61.5706 1260.02V1262.02L61.0706 1265.02L60.5706 1266.02L60.0706 1267.52V1271.52L59.0706 1274.52V1279.02L57.5706 1281.02V1287.02C57.5706 1288.22 56.9039 1288.52 56.5706 1288.52L55.0706 1290.02V1296.52L54.5706 1299.52V1302.52V1305.02C53.9039 1305.52 52.5706 1307.02 52.5706 1309.02C52.5706 1311.02 52.9039 1313.85 53.0706 1315.02L50.5706 1318.02V1321.02V1325.52L49.0706 1329.02V1335.02L48.5706 1341.52V1345.52L48.0706 1347.02L47.0706 1349.02V1353.52V1358.52C47.0706 1360.12 46.4039 1360.52 46.0706 1360.52L45.0706 1362.52V1372.02C45.0706 1373.22 44.4039 1373.18 44.0706 1373.02V1381.02L46.5706 1383.52L49.0706 1385.52L52.0706 1387.02L54.5706 1388.52L57.5706 1390.02L59.5706 1391.52L63.0706 1393.02L67.0706 1395.02L69.5706 1396.52L74.5706 1399.02L78.5706 1400.52L83.5706 1402.52L86.0706 1403.52L90.0706 1405.02L92.5706 1407.02L95.5706 1408.52C96.0706 1408.68 97.5706 1409.02 99.5706 1409.02C101.571 1409.02 101.737 1409.68 101.571 1410.02L103.571 1411.02L106.071 1412.02L108.571 1413.02L111.571 1414.02L114.071 1415.52L116.571 1416.02L119.071 1416.52L121.571 1418.02L125.071 1419.52L127.571 1420.02L131.071 1421.02L134.071 1422.02L139.571 1424.02L142.571 1425.02L147.571 1426.02L150.571 1427.02L154.071 1428.02L158.071 1429.02L160.071 1429.52L163.071 1431.02H166.571L170.071 1432.02L173.571 1433.02L176.571 1434.02H181.571L186.071 1436.02H189.571H195.571L198.071 1437.52L202.571 1438.52L205.071 1439.52H208.571H214.571L218.071 1440.52L222.571 1442.02H231.071H260.571H263.571L269.571 1441.52H279.071H284.071H289.071H296.571L299.071 1440.52H303.571L306.071 1439.52L310.071 1438.52H314.571C315.904 1438.52 319.271 1438.12 322.071 1436.52C324.871 1434.92 325.571 1435.85 325.571 1436.52H331.071C333.071 1436.18 338.371 1435.12 343.571 1433.52H347.571L351.071 1432.02L354.571 1430.52L357.571 1429.52L361.071 1428.02L365.071 1427.02L368.571 1425.02L371.571 1424.02L375.571 1422.02L379.071 1419.52L385.071 1415.52L393.071 1409.52C393.737 1408.85 396.071 1406.82 400.071 1404.02C404.071 1401.22 403.404 1400.18 402.571 1400.02L403.071 1395.52L403.571 1392.52L404.071 1387.02L405.571 1383.52L406.571 1377.52L411.071 1252.02V1377.52L412.071 1381.02L413.571 1384.52L415.571 1388.52L417.071 1393.02L419.071 1397.52L420.571 1402.02L423.071 1406.02L425.571 1410.02L428.071 1412.02L431.071 1414.02L433.071 1415.52L435.071 1417.02L439.071 1419.02L441.571 1420.52L444.571 1422.02C445.571 1422.52 448.071 1423.82 450.071 1425.02C452.071 1426.22 453.237 1426.18 453.571 1426.02L455.571 1427.02L458.571 1428.52L460.071 1428.02L462.571 1428.52L465.571 1429.52L469.071 1431.02H471.571L475.071 1432.02C475.904 1432.18 478.171 1432.82 480.571 1434.02C482.971 1435.22 483.571 1434.52 483.571 1434.02H488.071L489.571 1435.02L492.571 1435.52L500.071 1437.02L504.071 1437.52H520.571H544.071H549.571H557.071H564.071L580.571 1437.02H595.071L599.571 1436.02H604.571L607.071 1435.52L610.571 1434.02H613.571H618.071H622.071L624.571 1433.02L627.571 1432.52H631.571H635.071L640.071 1431.02H646.571L648.071 1429.52H651.571L654.571 1429.02L656.571 1427.52H658.571H661.071L664.071 1427.02L667.571 1426.52L671.071 1425.52L675.071 1424.52L678.071 1423.52L681.071 1422.52L683.071 1422.02L687.571 1421.02L691.571 1420.02L694.571 1419.02L697.071 1418.02L701.071 1417.02L704.071 1416.52L706.571 1415.52L709.071 1415.02L712.071 1414.52L714.571 1413.02L717.571 1411.52L721.071 1410.52L725.071 1409.02L728.071 1408.02L730.571 1406.52L734.071 1405.02L738.571 1403.52L741.571 1402.02L745.571 1400.52L748.571 1399.02L752.571 1397.02L756.071 1395.52L759.071 1394.02L762.571 1392.02L766.071 1389.52L768.071 1387.52L770.071 1386.52L774.071 1384.02L777.071 1381.52L779.071 1379.02L779.571 1376.52L780.071 1371.52V1361.52C779.904 1357.18 779.571 1348.02 779.571 1346.02C779.571 1344.02 779.237 1343.18 779.071 1343.02L777.571 1340.52V1337.02V1333.52C777.404 1332.35 776.971 1329.12 776.571 1325.52C776.171 1321.92 775.737 1321.68 775.571 1322.02V1310.52L774.571 1309.02L773.571 1306.52V1301.52V1296.02L772.571 1293.52L771.571 1291.02L770.071 1287.02V1278.52V1271.52L769.071 1269.02L768.071 1266.02V1263.02C767.904 1261.18 767.671 1256.92 768.071 1254.52C768.471 1252.12 767.571 1252.52 767.071 1253.02L765.571 1251.02V1247.52V1240.02V1237.52L764.571 1236.52L763.071 1233.52V1231.02L762.571 1228.52V1225.52C762.571 1224.68 762.471 1222.62 762.071 1221.02C761.671 1219.42 761.904 1219.02 762.071 1219.02L760.571 1217.02V1209.02V1207.52L760.071 1205.02L758.571 1202.52L757.571 1199.52V1195.02C757.404 1194.02 756.871 1190.62 756.071 1185.02C756.071 1182.62 755.071 1181.35 754.571 1181.02L753.571 1176.02L752.571 1173.02V1170.02L752.071 1166.52L751.071 1164.02L750.071 1160.52C749.904 1159.85 749.371 1158.12 748.571 1156.52C747.771 1154.92 748.237 1153.52 748.571 1153.02C748.571 1152.18 748.271 1149.52 747.071 1145.52C746.671 1143.92 746.237 1143.18 746.071 1143.02L745.071 1139.52L744.071 1137.52L743.071 1134.52V1132.52C742.404 1130.85 740.771 1127.02 739.571 1125.02C738.371 1123.02 739.071 1122.52 739.571 1122.52L737.571 1120.52V1117.02L736.571 1114.52L735.571 1112.52L734.071 1109.52L732.071 1105.52L731.071 1104.02L730.571 1102.52V1099.52L729.071 1097.02L728.071 1094.02L726.571 1090.52L725.071 1088.02V1085.52L723.571 1083.02L723.071 1080.52L721.571 1078.02V1075.52L720.071 1073.02L719.071 1070.52L718.571 1068.02L717.071 1065.02L716.071 1062.52L715.071 1059.52L714.571 1056.52L713.571 1054.52L712.571 1051.52L712.071 1048.02L711.071 1045.52L710.071 1042.52L709.071 1039.52V1036.52L708.071 1034.02V1031.52L706.571 1029.52L706.071 1027.02L705.071 1024.52V1021.52L704.571 1019.02L704.071 1016.02L704.571 1013.52V1007.52V983.516V969.516L705.571 968.516V941.516V938.516L704.571 935.016L703.571 932.516V929.016L703.071 926.016V922.516L702.071 918.516L701.571 915.016L701.071 912.516V909.016L700.071 906.016L699.571 903.016L699.071 900.016V896.516L699.571 892.016L699.071 889.016L698.071 885.516V881.016C698.071 879.516 698.271 876.016 699.071 874.016C699.871 872.016 699.404 870.183 699.071 869.516V865.016V862.016V858.516V855.516L701.071 851.516V847.516V845.516L702.571 842.016V838.516V834.016L704.071 830.016V827.016L705.571 824.516C705.571 823.683 705.771 821.616 706.571 820.016C707.371 818.416 706.904 817.35 706.571 817.016V814.016L707.571 811.516V810.016V807.016L709.071 804.016V801.016L711.071 799.016V795.016L712.071 792.516L713.071 789.516V787.016V784.016L713.571 781.016L715.071 777.516L716.071 774.516L716.571 771.016L718.071 769.516L718.571 767.016L718.071 763.516C718.404 762.516 719.271 760.016 720.071 758.016C720.871 756.016 720.737 755.183 720.571 755.016V751.516L722.071 749.016L722.571 746.016V744.016C722.904 742.683 724.071 739.716 726.071 738.516C728.071 737.316 726.904 735.683 726.071 735.016V731.516V729.016V726.016L727.071 724.516L728.571 720.016L729.571 716.016V710.516C729.571 708.116 730.237 708.183 730.571 708.516L731.571 704.516V700.016L733.571 689.516L735.071 683.516V678.016L734.571 673.516V671.516V669.516L734.071 668.516L733.571 667.516L733.071 665.016V663.016L731.571 658.516L731.071 657.016V652.016V650.016L732.571 648.016L732.071 645.516L731.071 639.016L730.571 636.516L729.571 631.016L728.071 626.016L727.571 619.016L727.071 610.516L726.571 606.516L726.071 603.016L725.071 597.016V588.516V574.016V572.016V566.016V562.016V555.516V550.016L725.571 547.016V544.016V542.016L726.571 538.516L727.071 535.516V533.516V532.016V529.016V524.016V522.016L727.571 519.016L728.071 515.516L728.571 513.516V511.016V507.016L729.071 504.516V501.516L729.571 499.016L730.571 496.516L731.071 493.516V491.016L730.571 486.516L731.071 484.516L732.071 482.516L733.071 480.516L732.571 479.016L732.071 477.516L733.071 475.016L733.571 472.016L734.571 468.516L735.071 464.016L735.571 462.016V458.016C735.571 456.016 736.237 454.183 736.571 453.516L737.071 449.016L738.071 444.516L739.071 439.516V435.516V432.016C739.237 431.183 739.871 428.816 741.071 426.016C742.271 423.216 741.904 422.85 741.571 423.016L741.071 418.016L742.571 414.016L745.071 406.016V398.516C745.071 401.35 745.371 404.716 746.571 395.516C747.371 393.116 747.571 391.85 747.571 391.516L748.571 381.516V380.016L750.571 376.516L751.071 375.516L751.571 374.516V373.516V371.016V369.516V368.516V367.516L752.071 366.516V365.516V364.516L752.571 363.016V361.516L753.071 360.016V358.516L753.571 358.016L754.071 357.016V356.016C754.237 355.35 754.571 353.516 754.571 351.516V350.016V348.516L755.071 346.016V345.016C755.071 344.216 755.404 344.016 755.571 344.016V342.516L756.071 339.016V338.516L756.571 337.516V336.016L757.571 334.016V333.016L758.071 332.016V329.516V328.016V326.016C758.071 324.016 758.071 326.016 758.571 323.516V322.516L759.071 321.516C759.237 320.85 759.671 318.816 760.071 316.016C760.471 314.016 760.237 314.183 760.071 314.516L760.571 311.016C760.571 312.35 760.671 313.516 761.071 307.516L761.571 304.516C761.737 303.683 762.071 301.316 762.071 298.516C762.071 297.316 762.404 296.683 762.571 296.516L763.571 293.516C763.737 292.85 764.071 291.216 764.071 290.016V289.016L764.571 287.516L765.071 286.016L765.571 284.016C765.737 283.016 766.071 280.616 766.071 279.016V277.016V275.516V273.516C766.237 272.85 766.771 270.616 767.571 267.016C767.971 265.416 768.071 264.683 768.071 264.516L768.571 262.516L769.071 259.016L769.571 256.516L770.071 254.516V251.516V248.516V246.016L770.571 244.016L771.071 241.516L771.571 239.016V237.016V234.016L772.571 231.516L773.071 229.016V227.016L774.071 222.516L774.571 220.016V218.516L775.071 216.516V214.016V213.016V211.516V210.016L775.571 208.016L776.071 205.516L776.571 204.016L778.071 201.516L778.571 199.516V197.016L779.071 195.516L779.571 194.016V192.016C779.404 191.683 779.071 190.716 779.071 189.516V188.516L779.571 188.016L780.071 186.516L780.571 185.016L781.571 182.516V180.516C781.571 179.85 781.471 178.116 781.071 176.516C780.671 174.916 781.237 174.85 781.571 175.016L782.071 173.516L782.571 171.016C782.571 170.683 782.671 169.516 783.071 167.516C783.471 165.516 783.571 165.35 783.571 165.516L784.571 164.016V162.516V160.516V157.516V155.516C784.737 155.016 785.171 153.616 785.571 152.016C785.971 150.416 785.737 150.35 785.571 150.516L786.571 148.516V147.516V146.016V145.016L787.071 144.202V143.516C787.071 143.183 787.171 142.316 787.571 141.516L788.071 140.516V139.516V138.516L788.571 137.516V136.516V135.516V134.516V133.016C788.571 132.216 788.904 132.016 789.071 132.016L789.571 131.016V130.016L790.071 128.516L790.571 127.516L790.071 127.016L790.571 126.016C790.737 125.683 791.071 124.816 791.071 124.016V123.016L791.571 121.516L792.071 120.516L792.571 120.016L793.071 119.016L793.571 118.016L794.071 116.516L795.071 115.516Z" fill="#FF0000" fill-opacity="0.31"/>
<path d="M795.071 115.516L796.571 113.516L795.571 112.016L794.571 110.016L793.071 108.516L788.571 107.016C786.171 106.216 786.904 106.016 787.571 106.016L785.071 104.016L782.571 102.516L781.071 101.516L778.571 100.016L775.071 98.0164C773.737 97.683 770.571 96.8164 768.571 96.0164C766.571 95.2164 765.737 94.0164 765.571 93.5164C764.571 93.0164 762.271 91.8164 761.071 91.0164C759.871 90.2164 757.904 90.683 757.071 91.0164L755.071 90.0164L750.071 87.5164C747.671 86.3164 745.737 86.683 745.071 87.0164H742.071L739.071 86.5164L732.571 84.0164C730.237 83.8497 724.871 83.3164 722.071 82.5164C719.271 81.7164 716.237 81.5164 715.071 81.5164L710.071 81.0164L704.571 80.0164L699.571 78.5164L694.571 76.0164C692.171 74.8164 690.904 75.5164 690.571 76.0164C690.071 76.0164 688.271 75.6164 685.071 74.0164C683.071 72.8164 681.571 72.183 681.071 72.0164C679.904 71.683 677.171 70.7164 675.571 69.5164C673.971 68.3164 672.904 68.683 672.571 69.0164L669.071 68.0164L664.571 66.5164C663.404 66.0164 660.271 64.6164 657.071 63.0164C653.871 61.4164 653.404 62.0164 653.571 62.5164L651.071 61.0164L645.571 59.5164L642.571 58.0164H640.071C639.237 57.8497 637.271 57.2164 636.071 56.0164C634.871 54.8164 634.237 55.183 634.071 55.5164L629.071 54.5164L625.571 53.0164C624.737 52.8497 622.571 52.3164 620.571 51.5164C618.571 50.7164 619.404 50.183 620.071 50.0164L618.071 50.5164L616.071 49.5164L612.571 48.5164L608.571 47.5164L604.571 45.5164C603.904 45.3497 601.171 44.6164 595.571 43.0164C593.971 42.2164 592.571 42.0164 592.071 42.0164L590.071 41.0164C589.404 40.683 587.571 39.8164 585.571 39.0164C583.571 38.2164 582.071 37.683 581.571 37.5164L579.071 37.0164L576.571 35.5164L573.571 33.5164L569.571 31.5164L568.071 30.5164C566.904 30.183 564.271 29.4164 563.071 29.0164C561.871 28.6164 559.571 26.8497 558.571 26.0164L556.571 25.0164L553.571 23.0164L551.071 21.5164C550.571 21.3497 549.071 20.3164 547.071 17.5164C545.571 15.5164 545.071 16.0164 540.571 12.5164C538.071 10.5164 539.071 11.5164 537.571 10.0164C536.371 8.81636 536.404 8.51636 536.571 8.51636L535.071 7.01636L532.571 4.51636L530.571 2.51636L528.571 1.01636L526.071 0.516357L524.571 1.01636L518.071 3.01636L513.571 4.51636L509.571 6.51636L505.071 9.01636L498.571 11.5164L493.071 13.0164L488.071 14.0164L484.071 15.0164L479.071 17.0164L470.071 18.0164L469.071 20.0164H463.071L455.571 20.5164L451.571 22.5164H444.071H426.571C422.571 22.5164 421.571 23.183 421.571 23.5164L407.571 24.0164H379.071L374.571 23.5164L371.571 23.0164H367.571H359.571H356.571L354.071 22.5164H350.071L347.571 21.5164L344.071 20.5164L340.071 19.5164H337.071L333.571 18.5164C332.904 18.5164 330.871 18.3164 328.071 17.5164C325.271 16.7164 324.904 16.8497 325.071 17.0164L317.071 15.5164H315.071H313.571H311.071L308.071 15.0164L305.071 14.5164L299.571 12.0164L296.571 10.5164L293.571 9.01636L290.071 8.51636C289.071 8.18302 286.371 7.31636 283.571 6.51636C280.771 5.71636 280.737 5.18302 281.071 5.01636L278.071 3.51636L277.071 1.51636L275.071 5.51636C274.404 6.68302 272.671 9.31636 271.071 10.5164C269.471 11.7164 269.071 13.683 269.071 14.5164L266.071 16.5164L261.571 21.0164L255.571 25.0164L252.571 27.5164L250.571 30.0164L248.071 30.5164L244.071 33.0164L240.571 35.0164L237.571 36.0164L236.071 37.5164L233.571 39.5164L228.571 41.5164L227.071 42.5164L225.571 43.5164L222.071 45.0164H220.571C220.071 45.5164 218.671 46.8164 217.071 48.0164C215.471 49.2164 214.071 49.5164 213.571 49.5164L212.071 51.0164L210.071 51.5164L208.571 52.5164L204.571 55.0164C203.071 55.683 199.371 57.4164 196.571 59.0164C195.771 59.8164 193.904 59.3497 193.071 59.0164L187.571 62.5164L183.071 65.0164L179.571 66.5164L173.571 69.0164L170.571 69.5164L168.571 71.0164L165.071 73.5164C163.571 73.8497 160.171 74.7164 158.571 75.5164C156.971 76.3164 156.571 76.183 156.571 76.0164L151.571 78.5164L147.571 80.5164L140.071 82.5164L136.071 83.5164L132.071 85.0164L129.071 86.5164L125.571 87.5164L120.571 89.0164L115.571 91.0164H111.89H108.071L106.571 93.0164L96.0706 94.0164H86.0706H78.5706L76.0706 95.5164H69.0706L67.0706 96.0164L65.0706 97.0164H50.5706H47.0706L44.5706 98.0164L41.5706 99.5164L38.0706 101.016L33.5706 102.016L32.0706 102.516L30.0706 103.516L28.0706 105.516H25.0706L23.0706 106.016L21.0706 107.516L19.0706 108.016C18.5706 108.516 17.425 109.816 16.843 111.016C16.2609 112.216 14.7522 111.516 14.0706 111.016L12.5706 112.516L9.07056 113.016L8.07056 114.516L3.57056 118.016L0.570557 120.016L1.07056 122.016L2.57056 126.516L4.07056 130.016L6.07056 135.016L7.07056 140.016L8.07056 144.016L9.57056 148.016L10.5706 152.016L11.5706 156.016L12.5706 160.016L14.5706 166.016L16.5706 174.016L18.5706 178.516V180.516V183.516L19.5706 187.016L20.5706 191.016V192.516L21.0706 194.016V195.516L22.0706 198.016V200.016L23.0706 203.516L23.5706 206.516L24.5706 208.516V210.516V213.016L25.5706 215.516L27.5706 219.516L28.0706 223.016L29.0706 225.016L30.0706 228.016L30.5706 232.016L32.0706 235.516L31.5706 236.516L32.5706 240.016L33.5706 243.516L34.5706 247.516L35.5706 251.016L36.0706 255.016L37.0706 259.016L37.5706 261.516L39.0706 266.516L40.5706 271.016V272.516L41.5706 277.016L43.0706 282.016L43.5706 286.516L44.5706 290.016V293.016L46.0706 297.016L47.0706 302.016V304.516L48.0706 308.016L48.5706 310.016L49.5706 315.016L50.0706 318.016L51.0706 320.516C51.0706 321.016 51.1706 322.616 51.5706 325.016C51.9706 327.416 52.4039 329.35 52.5706 330.016L53.5706 333.516L54.0706 336.516L55.5706 342.516L57.0706 347.016V351.016V353.516L58.0706 356.016L60.0706 363.016L62.0706 375.016L64.5706 386.016L66.5706 392.016V402.016C66.9039 403.683 67.8706 408.116 69.0706 412.516C70.2706 416.916 69.5706 417.016 69.0706 416.516L71.5706 425.016L74.5706 437.016V440.016V444.016L73.5706 445.016V446.516V447.516L75.0706 451.516L75.5706 453.016L76.0706 456.016L76.5706 460.516C76.7372 461.683 77.1706 464.616 77.5706 467.016C77.9706 469.416 77.7372 469.016 77.5706 468.516L77.0706 470.016V473.016L78.0706 478.016L79.5706 485.016V487.016L80.5706 491.516L81.5706 494.516L82.0706 501.016L82.5706 508.516L83.0706 511.516L83.5706 515.016L84.0706 519.016L84.5706 524.016V526.516L85.0706 530.016L86.0706 533.516V540.016V547.016V553.516V561.516V568.016V575.016L86.5706 578.016L87.0706 584.516V616.016V625.516V633.016V639.516V645.516V649.516L86.5706 653.016L86.0706 658.016L85.5706 663.016L84.5706 670.016V679.016V688.516L84.0706 693.516V698.516L85.5706 703.016L87.5706 708.016V718.016L89.5706 722.016V729.516L90.5706 733.016L91.5706 736.516C91.7372 737.35 92.2706 739.816 93.0706 743.016C93.8706 746.216 94.0706 746.35 94.0706 746.016C94.2372 747.85 94.8706 752.116 96.0706 754.516C97.5706 757.516 96.5706 760.516 96.5706 763.016C96.5706 765.016 97.2372 765.85 97.5706 766.016L99.5706 769.516V775.016L101.571 780.016L103.071 787.516L104.071 790.516L105.071 795.016L105.571 799.516L107.571 807.516L109.071 814.016L110.071 818.016L111.071 823.016L113.071 829.016L115.071 837.516C115.071 839.35 115.571 843.716 117.571 846.516C119.571 849.316 118.404 850.683 117.571 851.016V858.016L120.571 868.016V876.516V912.016L117.571 929.516V936.016L116.571 938.016V956.016L118.071 961.016L119.071 967.016L120.571 972.016L121.071 975.516V982.016L122.571 985.016L123.571 989.516V994.516V1019.52V1028.52C123.404 1029.52 122.971 1032.22 122.571 1035.02C122.171 1037.82 121.737 1038.18 121.571 1038.02L120.571 1040.52L120.071 1043.52L119.071 1047.52L118.071 1050.52V1054.02L116.571 1057.52L115.571 1061.52C115.237 1062.52 114.271 1065.92 113.071 1071.52C112.671 1074.32 112.237 1074.35 112.071 1074.02L111.071 1077.52L109.571 1081.02L108.571 1084.52L107.571 1088.52L106.571 1092.02L105.071 1095.52L104.071 1101.02L102.071 1104.52C101.571 1106.18 99.8706 1110.72 97.0706 1115.52C94.2706 1120.32 95.9039 1122.52 97.0706 1123.02L96.5706 1125.52L96.0706 1128.52L95.0706 1130.52L93.0706 1133.52V1138.02L91.5706 1142.02V1147.02L90.0706 1149.52C90.4039 1149.35 90.7706 1149.32 89.5706 1150.52C88.3706 1151.72 88.7372 1151.68 89.0706 1151.52C89.0706 1152.18 88.9706 1153.82 88.5706 1155.02C88.1706 1156.22 87.7372 1156.85 87.5706 1157.02L86.5706 1159.02V1160.52V1164.52V1166.52L85.5706 1168.52L84.0706 1170.52L83.0706 1172.52V1174.52L82.5706 1177.02L81.5706 1180.02L81.0706 1182.52C80.7372 1183.18 80.0706 1184.92 80.0706 1186.52C80.0706 1188.12 79.4039 1188.85 79.0706 1189.02V1191.52L78.0706 1194.02L77.5706 1196.52L76.0706 1202.52L75.5706 1204.02L74.5706 1207.02V1209.52L73.5706 1212.52L73.0706 1216.52L72.0706 1219.52L70.5706 1222.02L70.0706 1225.02L69.5706 1227.52V1229.52L69.0706 1232.52L68.5706 1235.02L67.0706 1239.52L66.0706 1241.52L65.5706 1242.02V1247.02C65.5706 1249.02 64.9039 1249.52 64.5706 1249.52V1254.02L63.5706 1255.52L62.0706 1258.02L61.5706 1260.02V1262.02L61.0706 1265.02L60.5706 1266.02L60.0706 1267.52V1271.52L59.0706 1274.52V1279.02L57.5706 1281.02V1287.02C57.5706 1288.22 56.9039 1288.52 56.5706 1288.52L55.0706 1290.02V1296.52L54.5706 1299.52V1302.52V1305.02C53.9039 1305.52 52.5706 1307.02 52.5706 1309.02C52.5706 1311.02 52.9039 1313.85 53.0706 1315.02L50.5706 1318.02V1321.02V1325.52L49.0706 1329.02V1335.02L48.5706 1341.52V1345.52L48.0706 1347.02L47.0706 1349.02V1353.52V1358.52C47.0706 1360.12 46.4039 1360.52 46.0706 1360.52L45.0706 1362.52V1372.02C45.0706 1373.22 44.4039 1373.18 44.0706 1373.02V1381.02L46.5706 1383.52L49.0706 1385.52L52.0706 1387.02L54.5706 1388.52L57.5706 1390.02L59.5706 1391.52L63.0706 1393.02L67.0706 1395.02L69.5706 1396.52L74.5706 1399.02L78.5706 1400.52L83.5706 1402.52L86.0706 1403.52L90.0706 1405.02L92.5706 1407.02L95.5706 1408.52C96.0706 1408.68 97.5706 1409.02 99.5706 1409.02C101.571 1409.02 101.737 1409.68 101.571 1410.02L103.571 1411.02L106.071 1412.02L108.571 1413.02L111.571 1414.02L114.071 1415.52L116.571 1416.02L119.071 1416.52L121.571 1418.02L125.071 1419.52L127.571 1420.02L131.071 1421.02L134.071 1422.02L139.571 1424.02L142.571 1425.02L147.571 1426.02L150.571 1427.02L154.071 1428.02L158.071 1429.02L160.071 1429.52L163.071 1431.02H166.571L170.071 1432.02L173.571 1433.02L176.571 1434.02H181.571L186.071 1436.02H189.571H195.571L198.071 1437.52L202.571 1438.52L205.071 1439.52H208.571H214.571L218.071 1440.52L222.571 1442.02H231.071H260.571H263.571L269.571 1441.52H279.071H284.071H289.071H296.571L299.071 1440.52H303.571L306.071 1439.52L310.071 1438.52H314.571C315.904 1438.52 319.271 1438.12 322.071 1436.52C324.871 1434.92 325.571 1435.85 325.571 1436.52H331.071C333.071 1436.18 338.371 1435.12 343.571 1433.52H347.571L351.071 1432.02L354.571 1430.52L357.571 1429.52L361.071 1428.02L365.071 1427.02L368.571 1425.02L371.571 1424.02L375.571 1422.02L379.071 1419.52L385.071 1415.52L393.071 1409.52C393.737 1408.85 396.071 1406.82 400.071 1404.02C404.071 1401.22 403.404 1400.18 402.571 1400.02L403.071 1395.52L403.571 1392.52L404.071 1387.02L405.571 1383.52L406.571 1377.52L411.071 1252.02V1377.52L412.071 1381.02L413.571 1384.52L415.571 1388.52L417.071 1393.02L419.071 1397.52L420.571 1402.02L423.071 1406.02L425.571 1410.02L428.071 1412.02L431.071 1414.02L433.071 1415.52L435.071 1417.02L439.071 1419.02L441.571 1420.52L444.571 1422.02C445.571 1422.52 448.071 1423.82 450.071 1425.02C452.071 1426.22 453.237 1426.18 453.571 1426.02L455.571 1427.02L458.571 1428.52L460.071 1428.02L462.571 1428.52L465.571 1429.52L469.071 1431.02H471.571L475.071 1432.02C475.904 1432.18 478.171 1432.82 480.571 1434.02C482.971 1435.22 483.571 1434.52 483.571 1434.02H488.071L489.571 1435.02L492.571 1435.52L500.071 1437.02L504.071 1437.52H520.571H544.071H549.571H557.071H564.071L580.571 1437.02H595.071L599.571 1436.02H604.571L607.071 1435.52L610.571 1434.02H613.571H618.071H622.071L624.571 1433.02L627.571 1432.52H631.571H635.071L640.071 1431.02H646.571L648.071 1429.52H651.571L654.571 1429.02L656.571 1427.52H658.571H661.071L664.071 1427.02L667.571 1426.52L671.071 1425.52L675.071 1424.52L678.071 1423.52L681.071 1422.52L683.071 1422.02L687.571 1421.02L691.571 1420.02L694.571 1419.02L697.071 1418.02L701.071 1417.02L704.071 1416.52L706.571 1415.52L709.071 1415.02L712.071 1414.52L714.571 1413.02L717.571 1411.52L721.071 1410.52L725.071 1409.02L728.071 1408.02L730.571 1406.52L734.071 1405.02L738.571 1403.52L741.571 1402.02L745.571 1400.52L748.571 1399.02L752.571 1397.02L756.071 1395.52L759.071 1394.02L762.571 1392.02L766.071 1389.52L768.071 1387.52L770.071 1386.52L774.071 1384.02L777.071 1381.52L779.071 1379.02L779.571 1376.52L780.071 1371.52V1361.52C779.904 1357.18 779.571 1348.02 779.571 1346.02C779.571 1344.02 779.237 1343.18 779.071 1343.02L777.571 1340.52V1337.02V1333.52C777.404 1332.35 776.971 1329.12 776.571 1325.52C776.171 1321.92 775.737 1321.68 775.571 1322.02V1310.52L774.571 1309.02L773.571 1306.52V1301.52V1296.02L772.571 1293.52L771.571 1291.02L770.071 1287.02V1278.52V1271.52L769.071 1269.02L768.071 1266.02V1263.02C767.904 1261.18 767.671 1256.92 768.071 1254.52C768.471 1252.12 767.571 1252.52 767.071 1253.02L765.571 1251.02V1247.52V1240.02V1237.52L764.571 1236.52L763.071 1233.52V1231.02L762.571 1228.52V1225.52C762.571 1224.68 762.471 1222.62 762.071 1221.02C761.671 1219.42 761.904 1219.02 762.071 1219.02L760.571 1217.02V1209.02V1207.52L760.071 1205.02L758.571 1202.52L757.571 1199.52V1195.02C757.404 1194.02 756.871 1190.62 756.071 1185.02C756.071 1182.62 755.071 1181.35 754.571 1181.02L753.571 1176.02L752.571 1173.02V1170.02L752.071 1166.52L751.071 1164.02L750.071 1160.52C749.904 1159.85 749.371 1158.12 748.571 1156.52C747.771 1154.92 748.237 1153.52 748.571 1153.02C748.571 1152.18 748.271 1149.52 747.071 1145.52C746.671 1143.92 746.237 1143.18 746.071 1143.02L745.071 1139.52L744.071 1137.52L743.071 1134.52V1132.52C742.404 1130.85 740.771 1127.02 739.571 1125.02C738.371 1123.02 739.071 1122.52 739.571 1122.52L737.571 1120.52V1117.02L736.571 1114.52L735.571 1112.52L734.071 1109.52L732.071 1105.52L731.071 1104.02L730.571 1102.52V1099.52L729.071 1097.02L728.071 1094.02L726.571 1090.52L725.071 1088.02V1085.52L723.571 1083.02L723.071 1080.52L721.571 1078.02V1075.52L720.071 1073.02L719.071 1070.52L718.571 1068.02L717.071 1065.02L716.071 1062.52L715.071 1059.52L714.571 1056.52L713.571 1054.52L712.571 1051.52L712.071 1048.02L711.071 1045.52L710.071 1042.52L709.071 1039.52V1036.52L708.071 1034.02V1031.52L706.571 1029.52L706.071 1027.02L705.071 1024.52V1021.52L704.571 1019.02L704.071 1016.02L704.571 1013.52V1007.52V983.516V969.516L705.571 968.516V941.516V938.516L704.571 935.016L703.571 932.516V929.016L703.071 926.016V922.516L702.071 918.516L701.571 915.016L701.071 912.516V909.016L700.071 906.016L699.571 903.016L699.071 900.016V896.516L699.571 892.016L699.071 889.016L698.071 885.516V881.016C698.071 879.516 698.271 876.016 699.071 874.016C699.871 872.016 699.404 870.183 699.071 869.516V865.016V862.016V858.516V855.516L701.071 851.516V847.516V845.516L702.571 842.016V838.516V834.016L704.071 830.016V827.016L705.571 824.516C705.571 823.683 705.771 821.616 706.571 820.016C707.371 818.416 706.904 817.35 706.571 817.016V814.016L707.571 811.516V810.016V807.016L709.071 804.016V801.016L711.071 799.016V795.016L712.071 792.516L713.071 789.516V787.016V784.016L713.571 781.016L715.071 777.516L716.071 774.516L716.571 771.016L718.071 769.516L718.571 767.016L718.071 763.516C718.404 762.516 719.271 760.016 720.071 758.016C720.871 756.016 720.737 755.183 720.571 755.016V751.516L722.071 749.016L722.571 746.016V744.016C722.904 742.683 724.071 739.716 726.071 738.516C728.071 737.316 726.904 735.683 726.071 735.016V731.516V729.016V726.016L727.071 724.516L728.571 720.016L729.571 716.016V710.516C729.571 708.116 730.237 708.183 730.571 708.516L731.571 704.516V700.016L733.571 689.516L735.071 683.516V678.016L734.571 673.516V671.516V669.516L734.071 668.516L733.571 667.516L733.071 665.016V663.016L731.571 658.516L731.071 657.016V652.016V650.016L732.571 648.016L732.071 645.516L731.071 639.016L730.571 636.516L729.571 631.016L728.071 626.016L727.571 619.016L727.071 610.516L726.571 606.516L726.071 603.016L725.071 597.016V588.516V574.016V572.016V566.016V562.016V555.516V550.016L725.571 547.016V544.016V542.016L726.571 538.516L727.071 535.516V533.516V532.016V529.016V524.016V522.016L727.571 519.016L728.071 515.516L728.571 513.516V511.016V507.016L729.071 504.516V501.516L729.571 499.016L730.571 496.516L731.071 493.516V491.016L730.571 486.516L731.071 484.516L732.071 482.516L733.071 480.516L732.571 479.016L732.071 477.516L733.071 475.016L733.571 472.016L734.571 468.516L735.071 464.016L735.571 462.016V458.016C735.571 456.016 736.237 454.183 736.571 453.516L737.071 449.016L738.071 444.516L739.071 439.516V435.516V432.016C739.237 431.183 739.871 428.816 741.071 426.016C742.271 423.216 741.904 422.85 741.571 423.016L741.071 418.016L742.571 414.016L745.071 406.016V398.516C745.071 401.35 745.371 404.716 746.571 395.516C747.371 393.116 747.571 391.85 747.571 391.516L748.571 381.516V380.016L750.571 376.516L751.071 375.516L751.571 374.516V373.516V371.016V369.516V368.516V367.516L752.071 366.516V365.516V364.516L752.571 363.016V361.516L753.071 360.016V358.516L753.571 358.016L754.071 357.016V356.016C754.237 355.35 754.571 353.516 754.571 351.516V350.016V348.516L755.071 346.016V345.016C755.071 344.216 755.404 344.016 755.571 344.016V342.516L756.071 339.016V338.516L756.571 337.516V336.016L757.571 334.016V333.016L758.071 332.016V329.516V328.016V326.016C758.071 324.016 758.071 326.016 758.571 323.516V322.516L759.071 321.516C759.237 320.85 759.671 318.816 760.071 316.016C760.471 314.016 760.237 314.183 760.071 314.516L760.571 311.016C760.571 312.35 760.671 313.516 761.071 307.516L761.571 304.516C761.737 303.683 762.071 301.316 762.071 298.516C762.071 297.316 762.404 296.683 762.571 296.516L763.571 293.516C763.737 292.85 764.071 291.216 764.071 290.016V289.016L764.571 287.516L765.071 286.016L765.571 284.016C765.737 283.016 766.071 280.616 766.071 279.016V277.016V275.516V273.516C766.237 272.85 766.771 270.616 767.571 267.016C767.971 265.416 768.071 264.683 768.071 264.516L768.571 262.516L769.071 259.016L769.571 256.516L770.071 254.516V251.516V248.516V246.016L770.571 244.016L771.071 241.516L771.571 239.016V237.016V234.016L772.571 231.516L773.071 229.016V227.016L774.071 222.516L774.571 220.016V218.516L775.071 216.516V214.016V213.016V211.516V210.016L775.571 208.016L776.071 205.516L776.571 204.016L778.071 201.516L778.571 199.516V197.016L779.071 195.516L779.571 194.016V192.016C779.404 191.683 779.071 190.716 779.071 189.516V188.516L779.571 188.016L780.071 186.516L780.571 185.016L781.571 182.516V180.516C781.571 179.85 781.471 178.116 781.071 176.516C780.671 174.916 781.237 174.85 781.571 175.016L782.071 173.516L782.571 171.016C782.571 170.683 782.671 169.516 783.071 167.516C783.471 165.516 783.571 165.35 783.571 165.516L784.571 164.016V162.516V160.516V157.516V155.516C784.737 155.016 785.171 153.616 785.571 152.016C785.971 150.416 785.737 150.35 785.571 150.516L786.571 148.516V147.516V146.016V145.016L787.071 144.202V143.516C787.071 143.183 787.171 142.316 787.571 141.516L788.071 140.516V139.516V138.516L788.571 137.516V136.516V135.516V134.516V133.016C788.571 132.216 788.904 132.016 789.071 132.016L789.571 131.016V130.016L790.071 128.516L790.571 127.516L790.071 127.016L790.571 126.016C790.737 125.683 791.071 124.816 791.071 124.016V123.016L791.571 121.516L792.071 120.516L792.571 120.016L793.071 119.016L793.571 118.016L794.071 116.516L795.071 115.516Z" stroke="black"/>
<path d="M795.071 115.516L796.571 113.516L795.571 112.016L794.571 110.016L793.071 108.516L788.571 107.016C786.171 106.216 786.904 106.016 787.571 106.016L785.071 104.016L782.571 102.516L781.071 101.516L778.571 100.016L775.071 98.0164C773.737 97.683 770.571 96.8164 768.571 96.0164C766.571 95.2164 765.737 94.0164 765.571 93.5164C764.571 93.0164 762.271 91.8164 761.071 91.0164C759.871 90.2164 757.904 90.683 757.071 91.0164L755.071 90.0164L750.071 87.5164C747.671 86.3164 745.737 86.683 745.071 87.0164H742.071L739.071 86.5164L732.571 84.0164C730.237 83.8497 724.871 83.3164 722.071 82.5164C719.271 81.7164 716.237 81.5164 715.071 81.5164L710.071 81.0164L704.571 80.0164L699.571 78.5164L694.571 76.0164C692.171 74.8164 690.904 75.5164 690.571 76.0164C690.071 76.0164 688.271 75.6164 685.071 74.0164C683.071 72.8164 681.571 72.183 681.071 72.0164C679.904 71.683 677.171 70.7164 675.571 69.5164C673.971 68.3164 672.904 68.683 672.571 69.0164L669.071 68.0164L664.571 66.5164C663.404 66.0164 660.271 64.6164 657.071 63.0164C653.871 61.4164 653.404 62.0164 653.571 62.5164L651.071 61.0164L645.571 59.5164L642.571 58.0164H640.071C639.237 57.8497 637.271 57.2164 636.071 56.0164C634.871 54.8164 634.237 55.183 634.071 55.5164L629.071 54.5164L625.571 53.0164C624.737 52.8497 622.571 52.3164 620.571 51.5164C618.571 50.7164 619.404 50.183 620.071 50.0164L618.071 50.5164L616.071 49.5164L612.571 48.5164L608.571 47.5164L604.571 45.5164C603.904 45.3497 601.171 44.6164 595.571 43.0164C593.971 42.2164 592.571 42.0164 592.071 42.0164L590.071 41.0164C589.404 40.683 587.571 39.8164 585.571 39.0164C583.571 38.2164 582.071 37.683 581.571 37.5164L579.071 37.0164L576.571 35.5164L573.571 33.5164L569.571 31.5164L568.071 30.5164C566.904 30.183 564.271 29.4164 563.071 29.0164C561.871 28.6164 559.571 26.8497 558.571 26.0164L556.571 25.0164L553.571 23.0164L551.071 21.5164C550.571 21.3497 549.071 20.3164 547.071 17.5164C545.571 15.5164 545.071 16.0164 540.571 12.5164C538.071 10.5164 539.071 11.5164 537.571 10.0164C536.371 8.81636 536.404 8.51636 536.571 8.51636L535.071 7.01636L532.571 4.51636L530.571 2.51636L528.571 1.01636L526.071 0.516357L524.571 1.01636L518.071 3.01636L513.571 4.51636L509.571 6.51636L505.071 9.01636L498.571 11.5164L493.071 13.0164L488.071 14.0164L484.071 15.0164L479.071 17.0164L470.071 18.0164L469.071 20.0164H463.071L455.571 20.5164L451.571 22.5164H444.071H426.571C422.571 22.5164 421.571 23.183 421.571 23.5164L407.571 24.0164H379.071L374.571 23.5164L371.571 23.0164H367.571H359.571H356.571L354.071 22.5164H350.071L347.571 21.5164L344.071 20.5164L340.071 19.5164H337.071L333.571 18.5164C332.904 18.5164 330.871 18.3164 328.071 17.5164C325.271 16.7164 324.904 16.8497 325.071 17.0164L317.071 15.5164H315.071H313.571H311.071L308.071 15.0164L305.071 14.5164L299.571 12.0164L296.571 10.5164L293.571 9.01636L290.071 8.51636C289.071 8.18302 286.371 7.31636 283.571 6.51636C280.771 5.71636 280.737 5.18302 281.071 5.01636L278.071 3.51636L277.071 1.51636L275.071 5.51636C274.404 6.68302 272.671 9.31636 271.071 10.5164C269.471 11.7164 269.071 13.683 269.071 14.5164L266.071 16.5164L261.571 21.0164L255.571 25.0164L252.571 27.5164L250.571 30.0164L248.071 30.5164L244.071 33.0164L240.571 35.0164L237.571 36.0164L236.071 37.5164L233.571 39.5164L228.571 41.5164L227.071 42.5164L225.571 43.5164L222.071 45.0164H220.571C220.071 45.5164 218.671 46.8164 217.071 48.0164C215.471 49.2164 214.071 49.5164 213.571 49.5164L212.071 51.0164L210.071 51.5164L208.571 52.5164L204.571 55.0164C203.071 55.683 199.371 57.4164 196.571 59.0164C195.771 59.8164 193.904 59.3497 193.071 59.0164L187.571 62.5164L183.071 65.0164L179.571 66.5164L173.571 69.0164L170.571 69.5164L168.571 71.0164L165.071 73.5164C163.571 73.8497 160.171 74.7164 158.571 75.5164C156.971 76.3164 156.571 76.183 156.571 76.0164L151.571 78.5164L147.571 80.5164L140.071 82.5164L136.071 83.5164L132.071 85.0164L129.071 86.5164L125.571 87.5164L120.571 89.0164L115.571 91.0164H111.89H108.071L106.571 93.0164L96.0706 94.0164H86.0706H78.5706L76.0706 95.5164H69.0706L67.0706 96.0164L65.0706 97.0164H50.5706H47.0706L44.5706 98.0164L41.5706 99.5164L38.0706 101.016L33.5706 102.016L32.0706 102.516L30.0706 103.516L28.0706 105.516H25.0706L23.0706 106.016L21.0706 107.516L19.0706 108.016C18.5706 108.516 17.425 109.816 16.843 111.016C16.2609 112.216 14.7522 111.516 14.0706 111.016L12.5706 112.516L9.07056 113.016L8.07056 114.516L3.57056 118.016L0.570557 120.016L1.07056 122.016L2.57056 126.516L4.07056 130.016L6.07056 135.016L7.07056 140.016L8.07056 144.016L9.57056 148.016L10.5706 152.016L11.5706 156.016L12.5706 160.016L14.5706 166.016L16.5706 174.016L18.5706 178.516V180.516V183.516L19.5706 187.016L20.5706 191.016V192.516L21.0706 194.016V195.516L22.0706 198.016V200.016L23.0706 203.516L23.5706 206.516L24.5706 208.516V210.516V213.016L25.5706 215.516L27.5706 219.516L28.0706 223.016L29.0706 225.016L30.0706 228.016L30.5706 232.016L32.0706 235.516L31.5706 236.516L32.5706 240.016L33.5706 243.516L34.5706 247.516L35.5706 251.016L36.0706 255.016L37.0706 259.016L37.5706 261.516L39.0706 266.516L40.5706 271.016V272.516L41.5706 277.016L43.0706 282.016L43.5706 286.516L44.5706 290.016V293.016L46.0706 297.016L47.0706 302.016V304.516L48.0706 308.016L48.5706 310.016L49.5706 315.016L50.0706 318.016L51.0706 320.516C51.0706 321.016 51.1706 322.616 51.5706 325.016C51.9706 327.416 52.4039 329.35 52.5706 330.016L53.5706 333.516L54.0706 336.516L55.5706 342.516L57.0706 347.016V351.016V353.516L58.0706 356.016L60.0706 363.016L62.0706 375.016L64.5706 386.016L66.5706 392.016V402.016C66.9039 403.683 67.8706 408.116 69.0706 412.516C70.2706 416.916 69.5706 417.016 69.0706 416.516L71.5706 425.016L74.5706 437.016V440.016V444.016L73.5706 445.016V446.516V447.516L75.0706 451.516L75.5706 453.016L76.0706 456.016L76.5706 460.516C76.7372 461.683 77.1706 464.616 77.5706 467.016C77.9706 469.416 77.7372 469.016 77.5706 468.516L77.0706 470.016V473.016L78.0706 478.016L79.5706 485.016V487.016L80.5706 491.516L81.5706 494.516L82.0706 501.016L82.5706 508.516L83.0706 511.516L83.5706 515.016L84.0706 519.016L84.5706 524.016V526.516L85.0706 530.016L86.0706 533.516V540.016V547.016V553.516V561.516V568.016V575.016L86.5706 578.016L87.0706 584.516V616.016V625.516V633.016V639.516V645.516V649.516L86.5706 653.016L86.0706 658.016L85.5706 663.016L84.5706 670.016V679.016V688.516L84.0706 693.516V698.516L85.5706 703.016L87.5706 708.016V718.016L89.5706 722.016V729.516L90.5706 733.016L91.5706 736.516C91.7372 737.35 92.2706 739.816 93.0706 743.016C93.8706 746.216 94.0706 746.35 94.0706 746.016C94.2372 747.85 94.8706 752.116 96.0706 754.516C97.5706 757.516 96.5706 760.516 96.5706 763.016C96.5706 765.016 97.2372 765.85 97.5706 766.016L99.5706 769.516V775.016L101.571 780.016L103.071 787.516L104.071 790.516L105.071 795.016L105.571 799.516L107.571 807.516L109.071 814.016L110.071 818.016L111.071 823.016L113.071 829.016L115.071 837.516C115.071 839.35 115.571 843.716 117.571 846.516C119.571 849.316 118.404 850.683 117.571 851.016V858.016L120.571 868.016V876.516V912.016L117.571 929.516V936.016L116.571 938.016V956.016L118.071 961.016L119.071 967.016L120.571 972.016L121.071 975.516V982.016L122.571 985.016L123.571 989.516V994.516V1019.52V1028.52C123.404 1029.52 122.971 1032.22 122.571 1035.02C122.171 1037.82 121.737 1038.18 121.571 1038.02L120.571 1040.52L120.071 1043.52L119.071 1047.52L118.071 1050.52V1054.02L116.571 1057.52L115.571 1061.52C115.237 1062.52 114.271 1065.92 113.071 1071.52C112.671 1074.32 112.237 1074.35 112.071 1074.02L111.071 1077.52L109.571 1081.02L108.571 1084.52L107.571 1088.52L106.571 1092.02L105.071 1095.52L104.071 1101.02L102.071 1104.52C101.571 1106.18 99.8706 1110.72 97.0706 1115.52C94.2706 1120.32 95.9039 1122.52 97.0706 1123.02L96.5706 1125.52L96.0706 1128.52L95.0706 1130.52L93.0706 1133.52V1138.02L91.5706 1142.02V1147.02L90.0706 1149.52C90.4039 1149.35 90.7706 1149.32 89.5706 1150.52C88.3706 1151.72 88.7372 1151.68 89.0706 1151.52C89.0706 1152.18 88.9706 1153.82 88.5706 1155.02C88.1706 1156.22 87.7372 1156.85 87.5706 1157.02L86.5706 1159.02V1160.52V1164.52V1166.52L85.5706 1168.52L84.0706 1170.52L83.0706 1172.52V1174.52L82.5706 1177.02L81.5706 1180.02L81.0706 1182.52C80.7372 1183.18 80.0706 1184.92 80.0706 1186.52C80.0706 1188.12 79.4039 1188.85 79.0706 1189.02V1191.52L78.0706 1194.02L77.5706 1196.52L76.0706 1202.52L75.5706 1204.02L74.5706 1207.02V1209.52L73.5706 1212.52L73.0706 1216.52L72.0706 1219.52L70.5706 1222.02L70.0706 1225.02L69.5706 1227.52V1229.52L69.0706 1232.52L68.5706 1235.02L67.0706 1239.52L66.0706 1241.52L65.5706 1242.02V1247.02C65.5706 1249.02 64.9039 1249.52 64.5706 1249.52V1254.02L63.5706 1255.52L62.0706 1258.02L61.5706 1260.02V1262.02L61.0706 1265.02L60.5706 1266.02L60.0706 1267.52V1271.52L59.0706 1274.52V1279.02L57.5706 1281.02V1287.02C57.5706 1288.22 56.9039 1288.52 56.5706 1288.52L55.0706 1290.02V1296.52L54.5706 1299.52V1302.52V1305.02C53.9039 1305.52 52.5706 1307.02 52.5706 1309.02C52.5706 1311.02 52.9039 1313.85 53.0706 1315.02L50.5706 1318.02V1321.02V1325.52L49.0706 1329.02V1335.02L48.5706 1341.52V1345.52L48.0706 1347.02L47.0706 1349.02V1353.52V1358.52C47.0706 1360.12 46.4039 1360.52 46.0706 1360.52L45.0706 1362.52V1372.02C45.0706 1373.22 44.4039 1373.18 44.0706 1373.02V1381.02L46.5706 1383.52L49.0706 1385.52L52.0706 1387.02L54.5706 1388.52L57.5706 1390.02L59.5706 1391.52L63.0706 1393.02L67.0706 1395.02L69.5706 1396.52L74.5706 1399.02L78.5706 1400.52L83.5706 1402.52L86.0706 1403.52L90.0706 1405.02L92.5706 1407.02L95.5706 1408.52C96.0706 1408.68 97.5706 1409.02 99.5706 1409.02C101.571 1409.02 101.737 1409.68 101.571 1410.02L103.571 1411.02L106.071 1412.02L108.571 1413.02L111.571 1414.02L114.071 1415.52L116.571 1416.02L119.071 1416.52L121.571 1418.02L125.071 1419.52L127.571 1420.02L131.071 1421.02L134.071 1422.02L139.571 1424.02L142.571 1425.02L147.571 1426.02L150.571 1427.02L154.071 1428.02L158.071 1429.02L160.071 1429.52L163.071 1431.02H166.571L170.071 1432.02L173.571 1433.02L176.571 1434.02H181.571L186.071 1436.02H189.571H195.571L198.071 1437.52L202.571 1438.52L205.071 1439.52H208.571H214.571L218.071 1440.52L222.571 1442.02H231.071H260.571H263.571L269.571 1441.52H279.071H284.071H289.071H296.571L299.071 1440.52H303.571L306.071 1439.52L310.071 1438.52H314.571C315.904 1438.52 319.271 1438.12 322.071 1436.52C324.871 1434.92 325.571 1435.85 325.571 1436.52H331.071C333.071 1436.18 338.371 1435.12 343.571 1433.52H347.571L351.071 1432.02L354.571 1430.52L357.571 1429.52L361.071 1428.02L365.071 1427.02L368.571 1425.02L371.571 1424.02L375.571 1422.02L379.071 1419.52L385.071 1415.52L393.071 1409.52C393.737 1408.85 396.071 1406.82 400.071 1404.02C404.071 1401.22 403.404 1400.18 402.571 1400.02L403.071 1395.52L403.571 1392.52L404.071 1387.02L405.571 1383.52L406.571 1377.52L411.071 1252.02V1377.52L412.071 1381.02L413.571 1384.52L415.571 1388.52L417.071 1393.02L419.071 1397.52L420.571 1402.02L423.071 1406.02L425.571 1410.02L428.071 1412.02L431.071 1414.02L433.071 1415.52L435.071 1417.02L439.071 1419.02L441.571 1420.52L444.571 1422.02C445.571 1422.52 448.071 1423.82 450.071 1425.02C452.071 1426.22 453.237 1426.18 453.571 1426.02L455.571 1427.02L458.571 1428.52L460.071 1428.02L462.571 1428.52L465.571 1429.52L469.071 1431.02H471.571L475.071 1432.02C475.904 1432.18 478.171 1432.82 480.571 1434.02C482.971 1435.22 483.571 1434.52 483.571 1434.02H488.071L489.571 1435.02L492.571 1435.52L500.071 1437.02L504.071 1437.52H520.571H544.071H549.571H557.071H564.071L580.571 1437.02H595.071L599.571 1436.02H604.571L607.071 1435.52L610.571 1434.02H613.571H618.071H622.071L624.571 1433.02L627.571 1432.52H631.571H635.071L640.071 1431.02H646.571L648.071 1429.52H651.571L654.571 1429.02L656.571 1427.52H658.571H661.071L664.071 1427.02L667.571 1426.52L671.071 1425.52L675.071 1424.52L678.071 1423.52L681.071 1422.52L683.071 1422.02L687.571 1421.02L691.571 1420.02L694.571 1419.02L697.071 1418.02L701.071 1417.02L704.071 1416.52L706.571 1415.52L709.071 1415.02L712.071 1414.52L714.571 1413.02L717.571 1411.52L721.071 1410.52L725.071 1409.02L728.071 1408.02L730.571 1406.52L734.071 1405.02L738.571 1403.52L741.571 1402.02L745.571 1400.52L748.571 1399.02L752.571 1397.02L756.071 1395.52L759.071 1394.02L762.571 1392.02L766.071 1389.52L768.071 1387.52L770.071 1386.52L774.071 1384.02L777.071 1381.52L779.071 1379.02L779.571 1376.52L780.071 1371.52V1361.52C779.904 1357.18 779.571 1348.02 779.571 1346.02C779.571 1344.02 779.237 1343.18 779.071 1343.02L777.571 1340.52V1337.02V1333.52C777.404 1332.35 776.971 1329.12 776.571 1325.52C776.171 1321.92 775.737 1321.68 775.571 1322.02V1310.52L774.571 1309.02L773.571 1306.52V1301.52V1296.02L772.571 1293.52L771.571 1291.02L770.071 1287.02V1278.52V1271.52L769.071 1269.02L768.071 1266.02V1263.02C767.904 1261.18 767.671 1256.92 768.071 1254.52C768.471 1252.12 767.571 1252.52 767.071 1253.02L765.571 1251.02V1247.52V1240.02V1237.52L764.571 1236.52L763.071 1233.52V1231.02L762.571 1228.52V1225.52C762.571 1224.68 762.471 1222.62 762.071 1221.02C761.671 1219.42 761.904 1219.02 762.071 1219.02L760.571 1217.02V1209.02V1207.52L760.071 1205.02L758.571 1202.52L757.571 1199.52V1195.02C757.404 1194.02 756.871 1190.62 756.071 1185.02C756.071 1182.62 755.071 1181.35 754.571 1181.02L753.571 1176.02L752.571 1173.02V1170.02L752.071 1166.52L751.071 1164.02L750.071 1160.52C749.904 1159.85 749.371 1158.12 748.571 1156.52C747.771 1154.92 748.237 1153.52 748.571 1153.02C748.571 1152.18 748.271 1149.52 747.071 1145.52C746.671 1143.92 746.237 1143.18 746.071 1143.02L745.071 1139.52L744.071 1137.52L743.071 1134.52V1132.52C742.404 1130.85 740.771 1127.02 739.571 1125.02C738.371 1123.02 739.071 1122.52 739.571 1122.52L737.571 1120.52V1117.02L736.571 1114.52L735.571 1112.52L734.071 1109.52L732.071 1105.52L731.071 1104.02L730.571 1102.52V1099.52L729.071 1097.02L728.071 1094.02L726.571 1090.52L725.071 1088.02V1085.52L723.571 1083.02L723.071 1080.52L721.571 1078.02V1075.52L720.071 1073.02L719.071 1070.52L718.571 1068.02L717.071 1065.02L716.071 1062.52L715.071 1059.52L714.571 1056.52L713.571 1054.52L712.571 1051.52L712.071 1048.02L711.071 1045.52L710.071 1042.52L709.071 1039.52V1036.52L708.071 1034.02V1031.52L706.571 1029.52L706.071 1027.02L705.071 1024.52V1021.52L704.571 1019.02L704.071 1016.02L704.571 1013.52V1007.52V983.516V969.516L705.571 968.516V941.516V938.516L704.571 935.016L703.571 932.516V929.016L703.071 926.016V922.516L702.071 918.516L701.571 915.016L701.071 912.516V909.016L700.071 906.016L699.571 903.016L699.071 900.016V896.516L699.571 892.016L699.071 889.016L698.071 885.516V881.016C698.071 879.516 698.271 876.016 699.071 874.016C699.871 872.016 699.404 870.183 699.071 869.516V865.016V862.016V858.516V855.516L701.071 851.516V847.516V845.516L702.571 842.016V838.516V834.016L704.071 830.016V827.016L705.571 824.516C705.571 823.683 705.771 821.616 706.571 820.016C707.371 818.416 706.904 817.35 706.571 817.016V814.016L707.571 811.516V810.016V807.016L709.071 804.016V801.016L711.071 799.016V795.016L712.071 792.516L713.071 789.516V787.016V784.016L713.571 781.016L715.071 777.516L716.071 774.516L716.571 771.016L718.071 769.516L718.571 767.016L718.071 763.516C718.404 762.516 719.271 760.016 720.071 758.016C720.871 756.016 720.737 755.183 720.571 755.016V751.516L722.071 749.016L722.571 746.016V744.016C722.904 742.683 724.071 739.716 726.071 738.516C728.071 737.316 726.904 735.683 726.071 735.016V731.516V729.016V726.016L727.071 724.516L728.571 720.016L729.571 716.016V710.516C729.571 708.116 730.237 708.183 730.571 708.516L731.571 704.516V700.016L733.571 689.516L735.071 683.516V678.016L734.571 673.516V671.516V669.516L734.071 668.516L733.571 667.516L733.071 665.016V663.016L731.571 658.516L731.071 657.016V652.016V650.016L732.571 648.016L732.071 645.516L731.071 639.016L730.571 636.516L729.571 631.016L728.071 626.016L727.571 619.016L727.071 610.516L726.571 606.516L726.071 603.016L725.071 597.016V588.516V574.016V572.016V566.016V562.016V555.516V550.016L725.571 547.016V544.016V542.016L726.571 538.516L727.071 535.516V533.516V532.016V529.016V524.016V522.016L727.571 519.016L728.071 515.516L728.571 513.516V511.016V507.016L729.071 504.516V501.516L729.571 499.016L730.571 496.516L731.071 493.516V491.016L730.571 486.516L731.071 484.516L732.071 482.516L733.071 480.516L732.571 479.016L732.071 477.516L733.071 475.016L733.571 472.016L734.571 468.516L735.071 464.016L735.571 462.016V458.016C735.571 456.016 736.237 454.183 736.571 453.516L737.071 449.016L738.071 444.516L739.071 439.516V435.516V432.016C739.237 431.183 739.871 428.816 741.071 426.016C742.271 423.216 741.904 422.85 741.571 423.016L741.071 418.016L742.571 414.016L745.071 406.016V398.516C745.071 401.35 745.371 404.716 746.571 395.516C747.371 393.116 747.571 391.85 747.571 391.516L748.571 381.516V380.016L750.571 376.516L751.071 375.516L751.571 374.516V373.516V371.016V369.516V368.516V367.516L752.071 366.516V365.516V364.516L752.571 363.016V361.516L753.071 360.016V358.516L753.571 358.016L754.071 357.016V356.016C754.237 355.35 754.571 353.516 754.571 351.516V350.016V348.516L755.071 346.016V345.016C755.071 344.216 755.404 344.016 755.571 344.016V342.516L756.071 339.016V338.516L756.571 337.516V336.016L757.571 334.016V333.016L758.071 332.016V329.516V328.016V326.016C758.071 324.016 758.071 326.016 758.571 323.516V322.516L759.071 321.516C759.237 320.85 759.671 318.816 760.071 316.016C760.471 314.016 760.237 314.183 760.071 314.516L760.571 311.016C760.571 312.35 760.671 313.516 761.071 307.516L761.571 304.516C761.737 303.683 762.071 301.316 762.071 298.516C762.071 297.316 762.404 296.683 762.571 296.516L763.571 293.516C763.737 292.85 764.071 291.216 764.071 290.016V289.016L764.571 287.516L765.071 286.016L765.571 284.016C765.737 283.016 766.071 280.616 766.071 279.016V277.016V275.516V273.516C766.237 272.85 766.771 270.616 767.571 267.016C767.971 265.416 768.071 264.683 768.071 264.516L768.571 262.516L769.071 259.016L769.571 256.516L770.071 254.516V251.516V248.516V246.016L770.571 244.016L771.071 241.516L771.571 239.016V237.016V234.016L772.571 231.516L773.071 229.016V227.016L774.071 222.516L774.571 220.016V218.516L775.071 216.516V214.016V213.016V211.516V210.016L775.571 208.016L776.071 205.516L776.571 204.016L778.071 201.516L778.571 199.516V197.016L779.071 195.516L779.571 194.016V192.016C779.404 191.683 779.071 190.716 779.071 189.516V188.516L779.571 188.016L780.071 186.516L780.571 185.016L781.571 182.516V180.516C781.571 179.85 781.471 178.116 781.071 176.516C780.671 174.916 781.237 174.85 781.571 175.016L782.071 173.516L782.571 171.016C782.571 170.683 782.671 169.516 783.071 167.516C783.471 165.516 783.571 165.35 783.571 165.516L784.571 164.016V162.516V160.516V157.516V155.516C784.737 155.016 785.171 153.616 785.571 152.016C785.971 150.416 785.737 150.35 785.571 150.516L786.571 148.516V147.516V146.016V145.016L787.071 144.202V143.516C787.071 143.183 787.171 142.316 787.571 141.516L788.071 140.516V139.516V138.516L788.571 137.516V136.516V135.516V134.516V133.016C788.571 132.216 788.904 132.016 789.071 132.016L789.571 131.016V130.016L790.071 128.516L790.571 127.516L790.071 127.016L790.571 126.016C790.737 125.683 791.071 124.816 791.071 124.016V123.016L791.571 121.516L792.071 120.516L792.571 120.016L793.071 119.016L793.571 118.016L794.071 116.516L795.071 115.516Z" stroke="#0B0A0A" stroke-opacity="0.1"/>
<path d="M795.071 115.516L796.571 113.516L795.571 112.016L794.571 110.016L793.071 108.516L788.571 107.016C786.171 106.216 786.904 106.016 787.571 106.016L785.071 104.016L782.571 102.516L781.071 101.516L778.571 100.016L775.071 98.0164C773.737 97.683 770.571 96.8164 768.571 96.0164C766.571 95.2164 765.737 94.0164 765.571 93.5164C764.571 93.0164 762.271 91.8164 761.071 91.0164C759.871 90.2164 757.904 90.683 757.071 91.0164L755.071 90.0164L750.071 87.5164C747.671 86.3164 745.737 86.683 745.071 87.0164H742.071L739.071 86.5164L732.571 84.0164C730.237 83.8497 724.871 83.3164 722.071 82.5164C719.271 81.7164 716.237 81.5164 715.071 81.5164L710.071 81.0164L704.571 80.0164L699.571 78.5164L694.571 76.0164C692.171 74.8164 690.904 75.5164 690.571 76.0164C690.071 76.0164 688.271 75.6164 685.071 74.0164C683.071 72.8164 681.571 72.183 681.071 72.0164C679.904 71.683 677.171 70.7164 675.571 69.5164C673.971 68.3164 672.904 68.683 672.571 69.0164L669.071 68.0164L664.571 66.5164C663.404 66.0164 660.271 64.6164 657.071 63.0164C653.871 61.4164 653.404 62.0164 653.571 62.5164L651.071 61.0164L645.571 59.5164L642.571 58.0164H640.071C639.237 57.8497 637.271 57.2164 636.071 56.0164C634.871 54.8164 634.237 55.183 634.071 55.5164L629.071 54.5164L625.571 53.0164C624.737 52.8497 622.571 52.3164 620.571 51.5164C618.571 50.7164 619.404 50.183 620.071 50.0164L618.071 50.5164L616.071 49.5164L612.571 48.5164L608.571 47.5164L604.571 45.5164C603.904 45.3497 601.171 44.6164 595.571 43.0164C593.971 42.2164 592.571 42.0164 592.071 42.0164L590.071 41.0164C589.404 40.683 587.571 39.8164 585.571 39.0164C583.571 38.2164 582.071 37.683 581.571 37.5164L579.071 37.0164L576.571 35.5164L573.571 33.5164L569.571 31.5164L568.071 30.5164C566.904 30.183 564.271 29.4164 563.071 29.0164C561.871 28.6164 559.571 26.8497 558.571 26.0164L556.571 25.0164L553.571 23.0164L551.071 21.5164C550.571 21.3497 549.071 20.3164 547.071 17.5164C545.571 15.5164 545.071 16.0164 540.571 12.5164C538.071 10.5164 539.071 11.5164 537.571 10.0164C536.371 8.81636 536.404 8.51636 536.571 8.51636L535.071 7.01636L532.571 4.51636L530.571 2.51636L528.571 1.01636L526.071 0.516357L524.571 1.01636L518.071 3.01636L513.571 4.51636L509.571 6.51636L505.071 9.01636L498.571 11.5164L493.071 13.0164L488.071 14.0164L484.071 15.0164L479.071 17.0164L470.071 18.0164L469.071 20.0164H463.071L455.571 20.5164L451.571 22.5164H444.071H426.571C422.571 22.5164 421.571 23.183 421.571 23.5164L407.571 24.0164H379.071L374.571 23.5164L371.571 23.0164H367.571H359.571H356.571L354.071 22.5164H350.071L347.571 21.5164L344.071 20.5164L340.071 19.5164H337.071L333.571 18.5164C332.904 18.5164 330.871 18.3164 328.071 17.5164C325.271 16.7164 324.904 16.8497 325.071 17.0164L317.071 15.5164H315.071H313.571H311.071L308.071 15.0164L305.071 14.5164L299.571 12.0164L296.571 10.5164L293.571 9.01636L290.071 8.51636C289.071 8.18302 286.371 7.31636 283.571 6.51636C280.771 5.71636 280.737 5.18302 281.071 5.01636L278.071 3.51636L277.071 1.51636L275.071 5.51636C274.404 6.68302 272.671 9.31636 271.071 10.5164C269.471 11.7164 269.071 13.683 269.071 14.5164L266.071 16.5164L261.571 21.0164L255.571 25.0164L252.571 27.5164L250.571 30.0164L248.071 30.5164L244.071 33.0164L240.571 35.0164L237.571 36.0164L236.071 37.5164L233.571 39.5164L228.571 41.5164L227.071 42.5164L225.571 43.5164L222.071 45.0164H220.571C220.071 45.5164 218.671 46.8164 217.071 48.0164C215.471 49.2164 214.071 49.5164 213.571 49.5164L212.071 51.0164L210.071 51.5164L208.571 52.5164L204.571 55.0164C203.071 55.683 199.371 57.4164 196.571 59.0164C195.771 59.8164 193.904 59.3497 193.071 59.0164L187.571 62.5164L183.071 65.0164L179.571 66.5164L173.571 69.0164L170.571 69.5164L168.571 71.0164L165.071 73.5164C163.571 73.8497 160.171 74.7164 158.571 75.5164C156.971 76.3164 156.571 76.183 156.571 76.0164L151.571 78.5164L147.571 80.5164L140.071 82.5164L136.071 83.5164L132.071 85.0164L129.071 86.5164L125.571 87.5164L120.571 89.0164L115.571 91.0164H111.89H108.071L106.571 93.0164L96.0706 94.0164H86.0706H78.5706L76.0706 95.5164H69.0706L67.0706 96.0164L65.0706 97.0164H50.5706H47.0706L44.5706 98.0164L41.5706 99.5164L38.0706 101.016L33.5706 102.016L32.0706 102.516L30.0706 103.516L28.0706 105.516H25.0706L23.0706 106.016L21.0706 107.516L19.0706 108.016C18.5706 108.516 17.425 109.816 16.843 111.016C16.2609 112.216 14.7522 111.516 14.0706 111.016L12.5706 112.516L9.07056 113.016L8.07056 114.516L3.57056 118.016L0.570557 120.016L1.07056 122.016L2.57056 126.516L4.07056 130.016L6.07056 135.016L7.07056 140.016L8.07056 144.016L9.57056 148.016L10.5706 152.016L11.5706 156.016L12.5706 160.016L14.5706 166.016L16.5706 174.016L18.5706 178.516V180.516V183.516L19.5706 187.016L20.5706 191.016V192.516L21.0706 194.016V195.516L22.0706 198.016V200.016L23.0706 203.516L23.5706 206.516L24.5706 208.516V210.516V213.016L25.5706 215.516L27.5706 219.516L28.0706 223.016L29.0706 225.016L30.0706 228.016L30.5706 232.016L32.0706 235.516L31.5706 236.516L32.5706 240.016L33.5706 243.516L34.5706 247.516L35.5706 251.016L36.0706 255.016L37.0706 259.016L37.5706 261.516L39.0706 266.516L40.5706 271.016V272.516L41.5706 277.016L43.0706 282.016L43.5706 286.516L44.5706 290.016V293.016L46.0706 297.016L47.0706 302.016V304.516L48.0706 308.016L48.5706 310.016L49.5706 315.016L50.0706 318.016L51.0706 320.516C51.0706 321.016 51.1706 322.616 51.5706 325.016C51.9706 327.416 52.4039 329.35 52.5706 330.016L53.5706 333.516L54.0706 336.516L55.5706 342.516L57.0706 347.016V351.016V353.516L58.0706 356.016L60.0706 363.016L62.0706 375.016L64.5706 386.016L66.5706 392.016V402.016C66.9039 403.683 67.8706 408.116 69.0706 412.516C70.2706 416.916 69.5706 417.016 69.0706 416.516L71.5706 425.016L74.5706 437.016V440.016V444.016L73.5706 445.016V446.516V447.516L75.0706 451.516L75.5706 453.016L76.0706 456.016L76.5706 460.516C76.7372 461.683 77.1706 464.616 77.5706 467.016C77.9706 469.416 77.7372 469.016 77.5706 468.516L77.0706 470.016V473.016L78.0706 478.016L79.5706 485.016V487.016L80.5706 491.516L81.5706 494.516L82.0706 501.016L82.5706 508.516L83.0706 511.516L83.5706 515.016L84.0706 519.016L84.5706 524.016V526.516L85.0706 530.016L86.0706 533.516V540.016V547.016V553.516V561.516V568.016V575.016L86.5706 578.016L87.0706 584.516V616.016V625.516V633.016V639.516V645.516V649.516L86.5706 653.016L86.0706 658.016L85.5706 663.016L84.5706 670.016V679.016V688.516L84.0706 693.516V698.516L85.5706 703.016L87.5706 708.016V718.016L89.5706 722.016V729.516L90.5706 733.016L91.5706 736.516C91.7372 737.35 92.2706 739.816 93.0706 743.016C93.8706 746.216 94.0706 746.35 94.0706 746.016C94.2372 747.85 94.8706 752.116 96.0706 754.516C97.5706 757.516 96.5706 760.516 96.5706 763.016C96.5706 765.016 97.2372 765.85 97.5706 766.016L99.5706 769.516V775.016L101.571 780.016L103.071 787.516L104.071 790.516L105.071 795.016L105.571 799.516L107.571 807.516L109.071 814.016L110.071 818.016L111.071 823.016L113.071 829.016L115.071 837.516C115.071 839.35 115.571 843.716 117.571 846.516C119.571 849.316 118.404 850.683 117.571 851.016V858.016L120.571 868.016V876.516V912.016L117.571 929.516V936.016L116.571 938.016V956.016L118.071 961.016L119.071 967.016L120.571 972.016L121.071 975.516V982.016L122.571 985.016L123.571 989.516V994.516V1019.52V1028.52C123.404 1029.52 122.971 1032.22 122.571 1035.02C122.171 1037.82 121.737 1038.18 121.571 1038.02L120.571 1040.52L120.071 1043.52L119.071 1047.52L118.071 1050.52V1054.02L116.571 1057.52L115.571 1061.52C115.237 1062.52 114.271 1065.92 113.071 1071.52C112.671 1074.32 112.237 1074.35 112.071 1074.02L111.071 1077.52L109.571 1081.02L108.571 1084.52L107.571 1088.52L106.571 1092.02L105.071 1095.52L104.071 1101.02L102.071 1104.52C101.571 1106.18 99.8706 1110.72 97.0706 1115.52C94.2706 1120.32 95.9039 1122.52 97.0706 1123.02L96.5706 1125.52L96.0706 1128.52L95.0706 1130.52L93.0706 1133.52V1138.02L91.5706 1142.02V1147.02L90.0706 1149.52C90.4039 1149.35 90.7706 1149.32 89.5706 1150.52C88.3706 1151.72 88.7372 1151.68 89.0706 1151.52C89.0706 1152.18 88.9706 1153.82 88.5706 1155.02C88.1706 1156.22 87.7372 1156.85 87.5706 1157.02L86.5706 1159.02V1160.52V1164.52V1166.52L85.5706 1168.52L84.0706 1170.52L83.0706 1172.52V1174.52L82.5706 1177.02L81.5706 1180.02L81.0706 1182.52C80.7372 1183.18 80.0706 1184.92 80.0706 1186.52C80.0706 1188.12 79.4039 1188.85 79.0706 1189.02V1191.52L78.0706 1194.02L77.5706 1196.52L76.0706 1202.52L75.5706 1204.02L74.5706 1207.02V1209.52L73.5706 1212.52L73.0706 1216.52L72.0706 1219.52L70.5706 1222.02L70.0706 1225.02L69.5706 1227.52V1229.52L69.0706 1232.52L68.5706 1235.02L67.0706 1239.52L66.0706 1241.52L65.5706 1242.02V1247.02C65.5706 1249.02 64.9039 1249.52 64.5706 1249.52V1254.02L63.5706 1255.52L62.0706 1258.02L61.5706 1260.02V1262.02L61.0706 1265.02L60.5706 1266.02L60.0706 1267.52V1271.52L59.0706 1274.52V1279.02L57.5706 1281.02V1287.02C57.5706 1288.22 56.9039 1288.52 56.5706 1288.52L55.0706 1290.02V1296.52L54.5706 1299.52V1302.52V1305.02C53.9039 1305.52 52.5706 1307.02 52.5706 1309.02C52.5706 1311.02 52.9039 1313.85 53.0706 1315.02L50.5706 1318.02V1321.02V1325.52L49.0706 1329.02V1335.02L48.5706 1341.52V1345.52L48.0706 1347.02L47.0706 1349.02V1353.52V1358.52C47.0706 1360.12 46.4039 1360.52 46.0706 1360.52L45.0706 1362.52V1372.02C45.0706 1373.22 44.4039 1373.18 44.0706 1373.02V1381.02L46.5706 1383.52L49.0706 1385.52L52.0706 1387.02L54.5706 1388.52L57.5706 1390.02L59.5706 1391.52L63.0706 1393.02L67.0706 1395.02L69.5706 1396.52L74.5706 1399.02L78.5706 1400.52L83.5706 1402.52L86.0706 1403.52L90.0706 1405.02L92.5706 1407.02L95.5706 1408.52C96.0706 1408.68 97.5706 1409.02 99.5706 1409.02C101.571 1409.02 101.737 1409.68 101.571 1410.02L103.571 1411.02L106.071 1412.02L108.571 1413.02L111.571 1414.02L114.071 1415.52L116.571 1416.02L119.071 1416.52L121.571 1418.02L125.071 1419.52L127.571 1420.02L131.071 1421.02L134.071 1422.02L139.571 1424.02L142.571 1425.02L147.571 1426.02L150.571 1427.02L154.071 1428.02L158.071 1429.02L160.071 1429.52L163.071 1431.02H166.571L170.071 1432.02L173.571 1433.02L176.571 1434.02H181.571L186.071 1436.02H189.571H195.571L198.071 1437.52L202.571 1438.52L205.071 1439.52H208.571H214.571L218.071 1440.52L222.571 1442.02H231.071H260.571H263.571L269.571 1441.52H279.071H284.071H289.071H296.571L299.071 1440.52H303.571L306.071 1439.52L310.071 1438.52H314.571C315.904 1438.52 319.271 1438.12 322.071 1436.52C324.871 1434.92 325.571 1435.85 325.571 1436.52H331.071C333.071 1436.18 338.371 1435.12 343.571 1433.52H347.571L351.071 1432.02L354.571 1430.52L357.571 1429.52L361.071 1428.02L365.071 1427.02L368.571 1425.02L371.571 1424.02L375.571 1422.02L379.071 1419.52L385.071 1415.52L393.071 1409.52C393.737 1408.85 396.071 1406.82 400.071 1404.02C404.071 1401.22 403.404 1400.18 402.571 1400.02L403.071 1395.52L403.571 1392.52L404.071 1387.02L405.571 1383.52L406.571 1377.52L411.071 1252.02V1377.52L412.071 1381.02L413.571 1384.52L415.571 1388.52L417.071 1393.02L419.071 1397.52L420.571 1402.02L423.071 1406.02L425.571 1410.02L428.071 1412.02L431.071 1414.02L433.071 1415.52L435.071 1417.02L439.071 1419.02L441.571 1420.52L444.571 1422.02C445.571 1422.52 448.071 1423.82 450.071 1425.02C452.071 1426.22 453.237 1426.18 453.571 1426.02L455.571 1427.02L458.571 1428.52L460.071 1428.02L462.571 1428.52L465.571 1429.52L469.071 1431.02H471.571L475.071 1432.02C475.904 1432.18 478.171 1432.82 480.571 1434.02C482.971 1435.22 483.571 1434.52 483.571 1434.02H488.071L489.571 1435.02L492.571 1435.52L500.071 1437.02L504.071 1437.52H520.571H544.071H549.571H557.071H564.071L580.571 1437.02H595.071L599.571 1436.02H604.571L607.071 1435.52L610.571 1434.02H613.571H618.071H622.071L624.571 1433.02L627.571 1432.52H631.571H635.071L640.071 1431.02H646.571L648.071 1429.52H651.571L654.571 1429.02L656.571 1427.52H658.571H661.071L664.071 1427.02L667.571 1426.52L671.071 1425.52L675.071 1424.52L678.071 1423.52L681.071 1422.52L683.071 1422.02L687.571 1421.02L691.571 1420.02L694.571 1419.02L697.071 1418.02L701.071 1417.02L704.071 1416.52L706.571 1415.52L709.071 1415.02L712.071 1414.52L714.571 1413.02L717.571 1411.52L721.071 1410.52L725.071 1409.02L728.071 1408.02L730.571 1406.52L734.071 1405.02L738.571 1403.52L741.571 1402.02L745.571 1400.52L748.571 1399.02L752.571 1397.02L756.071 1395.52L759.071 1394.02L762.571 1392.02L766.071 1389.52L768.071 1387.52L770.071 1386.52L774.071 1384.02L777.071 1381.52L779.071 1379.02L779.571 1376.52L780.071 1371.52V1361.52C779.904 1357.18 779.571 1348.02 779.571 1346.02C779.571 1344.02 779.237 1343.18 779.071 1343.02L777.571 1340.52V1337.02V1333.52C777.404 1332.35 776.971 1329.12 776.571 1325.52C776.171 1321.92 775.737 1321.68 775.571 1322.02V1310.52L774.571 1309.02L773.571 1306.52V1301.52V1296.02L772.571 1293.52L771.571 1291.02L770.071 1287.02V1278.52V1271.52L769.071 1269.02L768.071 1266.02V1263.02C767.904 1261.18 767.671 1256.92 768.071 1254.52C768.471 1252.12 767.571 1252.52 767.071 1253.02L765.571 1251.02V1247.52V1240.02V1237.52L764.571 1236.52L763.071 1233.52V1231.02L762.571 1228.52V1225.52C762.571 1224.68 762.471 1222.62 762.071 1221.02C761.671 1219.42 761.904 1219.02 762.071 1219.02L760.571 1217.02V1209.02V1207.52L760.071 1205.02L758.571 1202.52L757.571 1199.52V1195.02C757.404 1194.02 756.871 1190.62 756.071 1185.02C756.071 1182.62 755.071 1181.35 754.571 1181.02L753.571 1176.02L752.571 1173.02V1170.02L752.071 1166.52L751.071 1164.02L750.071 1160.52C749.904 1159.85 749.371 1158.12 748.571 1156.52C747.771 1154.92 748.237 1153.52 748.571 1153.02C748.571 1152.18 748.271 1149.52 747.071 1145.52C746.671 1143.92 746.237 1143.18 746.071 1143.02L745.071 1139.52L744.071 1137.52L743.071 1134.52V1132.52C742.404 1130.85 740.771 1127.02 739.571 1125.02C738.371 1123.02 739.071 1122.52 739.571 1122.52L737.571 1120.52V1117.02L736.571 1114.52L735.571 1112.52L734.071 1109.52L732.071 1105.52L731.071 1104.02L730.571 1102.52V1099.52L729.071 1097.02L728.071 1094.02L726.571 1090.52L725.071 1088.02V1085.52L723.571 1083.02L723.071 1080.52L721.571 1078.02V1075.52L720.071 1073.02L719.071 1070.52L718.571 1068.02L717.071 1065.02L716.071 1062.52L715.071 1059.52L714.571 1056.52L713.571 1054.52L712.571 1051.52L712.071 1048.02L711.071 1045.52L710.071 1042.52L709.071 1039.52V1036.52L708.071 1034.02V1031.52L706.571 1029.52L706.071 1027.02L705.071 1024.52V1021.52L704.571 1019.02L704.071 1016.02L704.571 1013.52V1007.52V983.516V969.516L705.571 968.516V941.516V938.516L704.571 935.016L703.571 932.516V929.016L703.071 926.016V922.516L702.071 918.516L701.571 915.016L701.071 912.516V909.016L700.071 906.016L699.571 903.016L699.071 900.016V896.516L699.571 892.016L699.071 889.016L698.071 885.516V881.016C698.071 879.516 698.271 876.016 699.071 874.016C699.871 872.016 699.404 870.183 699.071 869.516V865.016V862.016V858.516V855.516L701.071 851.516V847.516V845.516L702.571 842.016V838.516V834.016L704.071 830.016V827.016L705.571 824.516C705.571 823.683 705.771 821.616 706.571 820.016C707.371 818.416 706.904 817.35 706.571 817.016V814.016L707.571 811.516V810.016V807.016L709.071 804.016V801.016L711.071 799.016V795.016L712.071 792.516L713.071 789.516V787.016V784.016L713.571 781.016L715.071 777.516L716.071 774.516L716.571 771.016L718.071 769.516L718.571 767.016L718.071 763.516C718.404 762.516 719.271 760.016 720.071 758.016C720.871 756.016 720.737 755.183 720.571 755.016V751.516L722.071 749.016L722.571 746.016V744.016C722.904 742.683 724.071 739.716 726.071 738.516C728.071 737.316 726.904 735.683 726.071 735.016V731.516V729.016V726.016L727.071 724.516L728.571 720.016L729.571 716.016V710.516C729.571 708.116 730.237 708.183 730.571 708.516L731.571 704.516V700.016L733.571 689.516L735.071 683.516V678.016L734.571 673.516V671.516V669.516L734.071 668.516L733.571 667.516L733.071 665.016V663.016L731.571 658.516L731.071 657.016V652.016V650.016L732.571 648.016L732.071 645.516L731.071 639.016L730.571 636.516L729.571 631.016L728.071 626.016L727.571 619.016L727.071 610.516L726.571 606.516L726.071 603.016L725.071 597.016V588.516V574.016V572.016V566.016V562.016V555.516V550.016L725.571 547.016V544.016V542.016L726.571 538.516L727.071 535.516V533.516V532.016V529.016V524.016V522.016L727.571 519.016L728.071 515.516L728.571 513.516V511.016V507.016L729.071 504.516V501.516L729.571 499.016L730.571 496.516L731.071 493.516V491.016L730.571 486.516L731.071 484.516L732.071 482.516L733.071 480.516L732.571 479.016L732.071 477.516L733.071 475.016L733.571 472.016L734.571 468.516L735.071 464.016L735.571 462.016V458.016C735.571 456.016 736.237 454.183 736.571 453.516L737.071 449.016L738.071 444.516L739.071 439.516V435.516V432.016C739.237 431.183 739.871 428.816 741.071 426.016C742.271 423.216 741.904 422.85 741.571 423.016L741.071 418.016L742.571 414.016L745.071 406.016V398.516C745.071 401.35 745.371 404.716 746.571 395.516C747.371 393.116 747.571 391.85 747.571 391.516L748.571 381.516V380.016L750.571 376.516L751.071 375.516L751.571 374.516V373.516V371.016V369.516V368.516V367.516L752.071 366.516V365.516V364.516L752.571 363.016V361.516L753.071 360.016V358.516L753.571 358.016L754.071 357.016V356.016C754.237 355.35 754.571 353.516 754.571 351.516V350.016V348.516L755.071 346.016V345.016C755.071 344.216 755.404 344.016 755.571 344.016V342.516L756.071 339.016V338.516L756.571 337.516V336.016L757.571 334.016V333.016L758.071 332.016V329.516V328.016V326.016C758.071 324.016 758.071 326.016 758.571 323.516V322.516L759.071 321.516C759.237 320.85 759.671 318.816 760.071 316.016C760.471 314.016 760.237 314.183 760.071 314.516L760.571 311.016C760.571 312.35 760.671 313.516 761.071 307.516L761.571 304.516C761.737 303.683 762.071 301.316 762.071 298.516C762.071 297.316 762.404 296.683 762.571 296.516L763.571 293.516C763.737 292.85 764.071 291.216 764.071 290.016V289.016L764.571 287.516L765.071 286.016L765.571 284.016C765.737 283.016 766.071 280.616 766.071 279.016V277.016V275.516V273.516C766.237 272.85 766.771 270.616 767.571 267.016C767.971 265.416 768.071 264.683 768.071 264.516L768.571 262.516L769.071 259.016L769.571 256.516L770.071 254.516V251.516V248.516V246.016L770.571 244.016L771.071 241.516L771.571 239.016V237.016V234.016L772.571 231.516L773.071 229.016V227.016L774.071 222.516L774.571 220.016V218.516L775.071 216.516V214.016V213.016V211.516V210.016L775.571 208.016L776.071 205.516L776.571 204.016L778.071 201.516L778.571 199.516V197.016L779.071 195.516L779.571 194.016V192.016C779.404 191.683 779.071 190.716 779.071 189.516V188.516L779.571 188.016L780.071 186.516L780.571 185.016L781.571 182.516V180.516C781.571 179.85 781.471 178.116 781.071 176.516C780.671 174.916 781.237 174.85 781.571 175.016L782.071 173.516L782.571 171.016C782.571 170.683 782.671 169.516 783.071 167.516C783.471 165.516 783.571 165.35 783.571 165.516L784.571 164.016V162.516V160.516V157.516V155.516C784.737 155.016 785.171 153.616 785.571 152.016C785.971 150.416 785.737 150.35 785.571 150.516L786.571 148.516V147.516V146.016V145.016L787.071 144.202V143.516C787.071 143.183 787.171 142.316 787.571 141.516L788.071 140.516V139.516V138.516L788.571 137.516V136.516V135.516V134.516V133.016C788.571 132.216 788.904 132.016 789.071 132.016L789.571 131.016V130.016L790.071 128.516L790.571 127.516L790.071 127.016L790.571 126.016C790.737 125.683 791.071 124.816 791.071 124.016V123.016L791.571 121.516L792.071 120.516L792.571 120.016L793.071 119.016L793.571 118.016L794.071 116.516L795.071 115.516Z" stroke="#D52020" stroke-opacity="0.73"/>
</svg>
